<svg xmlns="http://www.w3.org/2000/svg" viewBox="0 0 750 500"><g id="freepik--background-simple--inject-1054"><path d="M49.47,184.41l1.62,1.09C64.8,194.65,82.4,195.82,96.73,188a41.56,41.56,0,0,0,5.3-3.41,46.42,46.42,0,0,0,17.81-40c-.72-9-4-18.16-1.46-26.75,3.35-11.19,15.18-17,25.83-21.58S166.69,85.81,170,74.62c2.07-7,.17-14.73-3.29-21.22-9.15-17.18-28.78-27.21-48-27.76S80.69,33,65.21,44.38c-21.68,16-38.27,39.86-42.4,66.71S28.22,167.43,49.47,184.41Z" style="fill:#f5f5f5"></path><path d="M540.5,88.78l-.12,1.93c-1,16.25,6.79,31.85,20.6,40.18a42.47,42.47,0,0,0,5.55,2.81,45.8,45.8,0,0,0,43-4.72c7.3-5.08,13.49-12.48,22.1-14.56,11.21-2.71,22.06,4.48,31.27,11.29s20.08,14,31.28,11.23c7-1.73,12.65-7.2,16.46-13.38,10.1-16.36,8.88-38.09-.24-54.8S685.24,40,667.8,32.49c-24.44-10.54-53.06-12.8-78-3S544.41,62.2,540.5,88.78Z" style="fill:#f5f5f5"></path><circle cx="235.12" cy="58.82" r="26.79" style="fill:#f5f5f5"></circle><circle cx="491.94" cy="85.61" r="26.79" style="fill:#f5f5f5"></circle></g><g id="freepik--Floor--inject-1054"><path d="M722.32,455.42c0,.14-153.72.26-343.3.26s-343.34-.12-343.34-.26,153.69-.26,343.34-.26S722.32,455.28,722.32,455.42Z" style="fill:#263238"></path></g><g id="freepik--Plant--inject-1054"><path d="M113.43,286.5c-8.79,4.55-15.53,12.39-20.38,21S85.08,325.62,82,335l-2.71,48.49c10.23-17.4,18.44-37.85,20.66-57.91L93.13,325c4.56-.69,8.39-4,10.83-7.92s3.69-8.44,4.92-12.89l-8.31,1.23A30.76,30.76,0,0,0,113.43,286.5Z" style="fill:#455a64"></path><g style="opacity:0.30000000000000004"><path d="M113.43,286.5c-8.79,4.55-15.53,12.39-20.38,21S85.08,325.62,82,335l-2.71,48.49c10.23-17.4,18.44-37.85,20.66-57.91L93.13,325c4.56-.69,8.39-4,10.83-7.92s3.69-8.44,4.92-12.89l-8.31,1.23A30.76,30.76,0,0,0,113.43,286.5Z"></path></g><path d="M77.77,394.88S55.57,368.31,55.83,343h9s-9.74-6.41-9-10,1-17.17,1-17.17l8.2,2s-6.15-3.07-6.92-7.94,1.8-27.42,1.8-27.42S69.92,293,73,303.75s11.15,23.31,8.78,56.11S77.77,394.88,77.77,394.88Z" style="fill:#455a64"></path><path d="M89,397.39s24-16,29.4-36.47l-7.21-2s9.23-3,9.39-6.07,2.93-14,2.93-14l-7-.14s5.62-1.13,7.3-4.87,4.56-22.44,4.56-22.44-10.33,6.26-15.16,14.24S99.13,342,93.86,368.84,89,397.39,89,397.39Z" style="fill:#455a64"></path><path d="M66,305.65a.92.92,0,0,1,.08.28l.2.81.72,3.15c.31,1.37.67,3.05,1.06,5s.86,4.18,1.31,6.65c1,4.92,2,10.81,3,17.36s2,13.79,2.89,21.39,1.55,14.88,2.07,21.49.85,12.58,1,17.6c.12,2.5.18,4.77.24,6.76s.09,3.71.1,5.11l0,3.23v.84a.94.94,0,0,1,0,.29,1.11,1.11,0,0,1,0-.29l0-.84-.12-3.22c0-1.4-.1-3.12-.19-5.11s-.17-4.25-.32-6.76c-.24-5-.64-11-1.15-17.57s-1.23-13.87-2.1-21.47S72.86,345.53,71.89,339s-2-12.45-2.89-17.38c-.43-2.47-.87-4.69-1.24-6.65s-.69-3.64-1-5l-.62-3.17-.15-.82A1.06,1.06,0,0,1,66,305.65Z" style="fill:#263238"></path><path d="M74.69,411.15s-20.31-23-26.62-37l4.76-2c-3.45.57-7-.92-9.66-3.17a36.22,36.22,0,0,1-6.57-8.14l6.27-1.06a23.35,23.35,0,0,1-13.71-10.61c7.41,1.22,14.1,5.28,19.62,10.36A98.37,98.37,0,0,1,60.67,373.3a47.31,47.31,0,0,1,4.62,7.59C68.7,387.94,74.7,402.69,74.69,411.15Z" style="fill:#455a64"></path><path d="M118.74,324.83l-.09.24-.31.67-1.23,2.56c-1.08,2.22-2.62,5.44-4.48,9.43-3.73,8-8.65,19.14-13.51,31.69S90.41,393.53,87.8,402c-1.31,4.21-2.34,7.63-3,10-.35,1.15-.62,2.06-.82,2.72l-.22.7a1.13,1.13,0,0,1-.1.24,2.12,2.12,0,0,1,.05-.25l.17-.72.72-2.75c.63-2.38,1.61-5.82,2.87-10,2.53-8.46,6.34-20.05,11.2-32.62s9.84-23.7,13.65-31.65c1.91-4,3.5-7.18,4.64-9.37l1.31-2.52.36-.65A.87.87,0,0,1,118.74,324.83Z" style="fill:#263238"></path><path d="M76.41,421a11.64,11.64,0,0,1-.31-1.64c-.16-1.07-.43-2.6-.81-4.48a94.36,94.36,0,0,0-4.12-14.41A93.68,93.68,0,0,0,64.74,387c-1-1.66-1.77-3-2.35-3.9a9.83,9.83,0,0,1-.85-1.44,9.61,9.61,0,0,1,1,1.33c.64.87,1.5,2.17,2.51,3.82a82.46,82.46,0,0,1,6.6,13.54,82.94,82.94,0,0,1,4,14.52c.33,1.9.55,3.45.65,4.52A9,9,0,0,1,76.41,421Z" style="fill:#263238"></path><rect x="58.76" y="415.61" width="44.46" height="9.07" style="fill:#0EBE75"></rect><polygon points="62.99 424.68 67.8 455.19 94.67 455.19 99.15 424.68 62.99 424.68" style="fill:#0EBE75"></polygon><path d="M100.49,424.68c0,.14-8.41.26-18.78.26s-18.79-.12-18.79-.26,8.41-.26,18.79-.26S100.49,424.54,100.49,424.68Z" style="fill:#263238"></path></g><g id="freepik--Bars--inject-1054"><rect x="152.87" y="123.34" width="58.37" height="332.08" style="fill:#e0e0e0"></rect><path d="M211.24,455.42c0-1.3-.05-36.09-.14-95.57S211,217.38,211,123.34l.25.26H152.87l.26-.26c0,141-.1,264.53-.13,332.08l-.13-.14,58.37.14-58.37.14h-.14v-.14c0-67.55-.07-191.07-.12-332.08v-.26H211.5v.26c-.05,94.12-.09,177.17-.11,236.69S211.24,454.12,211.24,455.42Z" style="fill:#263238"></path><rect x="228.67" y="123.34" width="58.37" height="332.08" style="fill:#e0e0e0"></rect><path d="M287,455.42c0-1.3-.05-36.09-.14-95.57s-.07-142.47-.12-236.51l.26.26H228.67l.26-.26c-.06,141-.1,264.53-.13,332.08l-.13-.14,58.37.14-58.37.14h-.14v-.14c0-67.55-.07-191.07-.12-332.08v-.26h58.9v.26c-.05,94.12-.09,177.17-.12,236.69S287,454.12,287,455.42Z" style="fill:#263238"></path><rect x="444.22" y="122.13" width="58.37" height="332.08" transform="translate(-64.76 155.77) rotate(-17.51)" style="fill:#e0e0e0"></rect><path d="M551.19,437.74c-.39-1.24-10.91-34.4-28.89-91.09S479.38,210.8,451,121.12l.33.17-55.66,17.56h0l.17-.32C438.24,273,475.35,390.84,495.65,455.26l-.17-.08,55.71-17.44-55.63,17.69-.13.05,0-.13c-20.34-64.42-57.55-182.2-100-316.66l-.08-.25.25-.08h0l55.65-17.55.25-.08.07.25,71.1,225.76Z" style="fill:#263238"></path><rect x="556.31" y="134.4" width="58.37" height="332.08" transform="translate(-68.48 373.83) rotate(-33.57)" style="fill:#e0e0e0"></rect><path d="M701.62,422.65l-53-79.55-130.87-197,.36.07-48.62,32.27h0l.07-.36L653.09,454.85l-.19,0,48.72-32.16L653.05,455l-.11.07-.07-.11L469.15,178.37l-.15-.22.22-.14h0l48.62-32.27.22-.14.14.21L649,343.09Z" style="fill:#263238"></path></g></svg>
