<svg xmlns="http://www.w3.org/2000/svg" xmlns:xlink="http://www.w3.org/1999/xlink" width="500" zoomAndPan="magnify" viewBox="0 0 375 374.999991" height="500" preserveAspectRatio="xMidYMid meet" version="1.0"><defs><clipPath id="1bbcbfde14"><path d="M 19 75.457031 L 355 75.457031 L 355 249 L 19 249 Z M 19 75.457031 " clip-rule="nonzero"/></clipPath></defs><path fill="#201600" d="M 107.300781 212.246094 C 107.292969 212.332031 107.28125 212.421875 107.238281 212.511719 C 106 215.386719 104.871094 218.546875 105.339844 221.722656 C 105.367188 221.90625 105.316406 222.066406 105.238281 222.195312 C 115.953125 224.679688 133.894531 229.410156 132.429688 213.984375 C 124.125 212.980469 115.671875 212.871094 107.300781 212.246094 " fill-opacity="1" fill-rule="nonzero"/><path fill="#201600" d="M 105.902344 212.128906 C 105.289062 212.078125 104.671875 212.035156 104.058594 211.976562 C 102.992188 215.066406 102.054688 218.171875 101.648438 221.421875 C 102.355469 221.554688 103.140625 221.722656 103.976562 221.910156 C 103.527344 218.5 104.578125 215.246094 105.902344 212.128906 " fill-opacity="1" fill-rule="nonzero"/><path fill="#201600" d="M 40.371094 194.46875 C 39.757812 194.316406 39.144531 194.167969 38.53125 194.015625 C 40.085938 199.558594 42.734375 204.007812 46.480469 207.515625 C 45.664062 206.03125 44.898438 204.515625 43.96875 203.078125 C 42.203125 200.332031 41.160156 197.617188 40.371094 194.46875 " fill-opacity="1" fill-rule="nonzero"/><path fill="#201600" d="M 93.125 208.574219 C 89.136719 207.246094 84.972656 206.503906 80.964844 205.222656 C 76.308594 203.738281 71.621094 202.367188 66.898438 201.101562 C 58.605469 198.890625 50.25 196.902344 41.910156 194.847656 C 42.667969 197.550781 43.71875 199.902344 45.171875 202.375 C 46.695312 204.96875 47.90625 207.742188 49.746094 210.132812 C 51.871094 211.601562 54.253906 212.863281 56.910156 213.910156 C 68.035156 218.292969 79.398438 220.386719 91.257812 218.644531 C 91.261719 218.644531 91.261719 218.644531 91.265625 218.644531 C 91.269531 218.636719 91.269531 218.632812 91.273438 218.625 C 92.722656 215.527344 93.773438 212.480469 93.097656 209.03125 C 93.066406 208.859375 93.082031 208.710938 93.125 208.574219 " fill-opacity="1" fill-rule="nonzero"/><path fill="#201600" d="M 22.914062 204.710938 C 24.726562 206.402344 26.625 207.96875 28.757812 209.226562 C 29.078125 208.582031 29.339844 207.917969 29.523438 207.21875 C 29.546875 207.140625 29.585938 207.078125 29.625 207.019531 C 27.28125 205.8125 25.535156 203.765625 23.25 202.472656 C 22.914062 203.175781 22.542969 203.863281 22.207031 204.570312 C 22.429688 204.484375 22.6875 204.5 22.914062 204.710938 " fill-opacity="1" fill-rule="nonzero"/><path fill="#201600" d="M 31.875 202.890625 C 33.636719 203.632812 35.453125 204.316406 37.15625 205.171875 C 36.351562 201.226562 35.457031 196.484375 32.476562 193.777344 C 30.460938 191.953125 28.125 190.589844 25.695312 189.410156 C 26.285156 194.65625 27.90625 199.417969 31.875 202.890625 " fill-opacity="1" fill-rule="nonzero"/><path fill="#201600" d="M 186 179.6875 C 182.722656 183.40625 180.097656 187.824219 177.96875 192.011719 C 172.523438 202.710938 169.410156 214.460938 166.234375 225.988281 C 166.265625 226.136719 166.269531 226.296875 166.226562 226.476562 C 165.472656 229.636719 166.625 232.660156 167.503906 235.667969 C 167.640625 236.140625 167.457031 236.511719 167.152344 236.734375 C 167.082031 237.050781 166.855469 237.324219 166.425781 237.414062 C 166.210938 237.457031 166 237.496094 165.785156 237.539062 C 169.160156 241.089844 173.617188 242.636719 178.160156 244.394531 C 180.21875 245.199219 182.257812 245.867188 184.304688 246.292969 C 171.523438 240.566406 172.011719 221.496094 174.867188 209.542969 C 177.636719 197.960938 186.261719 180.914062 199.324219 178.066406 C 194.910156 177.769531 190.371094 178.433594 186.378906 179.644531 C 186.246094 179.6875 186.117188 179.695312 186 179.6875 " fill-opacity="1" fill-rule="nonzero"/><path fill="#201600" d="M 124.613281 195.515625 C 117.695312 195.542969 110.789062 197.109375 105.710938 201.617188 C 109.886719 202.148438 113.972656 203.230469 118.132812 203.808594 C 118.160156 203.761719 118.171875 203.710938 118.210938 203.667969 C 119.742188 201.847656 120.753906 199.695312 122.167969 197.796875 C 122.863281 196.863281 123.6875 196.121094 124.613281 195.515625 " fill-opacity="1" fill-rule="nonzero"/><path fill="#201600" d="M 345.574219 125.140625 C 345.128906 125.859375 344.742188 126.628906 344.621094 127.476562 C 344.355469 129.339844 344.75 131.207031 345.554688 132.890625 C 347.691406 131.792969 347.113281 127.558594 346.46875 125.6875 C 346.277344 125.144531 346.074219 124.320312 345.574219 125.140625 " fill-opacity="1" fill-rule="nonzero"/><path fill="#201600" d="M 22.460938 187.933594 C 22.625 190.652344 23.011719 193.351562 23.542969 196.042969 C 24.65625 198.496094 26.4375 200.066406 28.507812 201.269531 C 25.949219 197.859375 24.765625 193.734375 24.277344 189.195312 C 24.257812 189.023438 24.308594 188.894531 24.382812 188.789062 C 23.742188 188.496094 23.101562 188.210938 22.460938 187.933594 " fill-opacity="1" fill-rule="nonzero"/><path fill="#201600" d="M 197.6875 235.378906 C 207.058594 230.378906 211.210938 220.785156 212.636719 210.757812 C 212.585938 210.640625 212.550781 210.507812 212.574219 210.351562 C 213.253906 205.761719 214.15625 201.320312 212.648438 196.75 C 210.949219 191.582031 206.296875 187.738281 200.550781 189.046875 C 190.210938 191.402344 185.65625 204.171875 183.957031 213.386719 C 182.914062 219.023438 181.75 226.691406 184.816406 231.957031 C 187.589844 236.71875 192.816406 237.976562 197.6875 235.378906 " fill-opacity="1" fill-rule="nonzero"/><path fill="#201600" d="M 111.582031 233.53125 C 118.113281 234.601562 124.246094 235.308594 130.828125 235.023438 C 131.269531 233.933594 131.492188 232.769531 131.464844 231.59375 C 128.265625 231.289062 124.992188 231.53125 121.777344 231.269531 C 118.496094 231.007812 115.222656 230.640625 111.953125 230.28125 C 111.9375 230.351562 111.921875 230.421875 111.882812 230.492188 C 111.410156 231.300781 110.738281 232.6875 111.402344 233.539062 C 111.460938 233.535156 111.515625 233.519531 111.582031 233.53125 " fill-opacity="1" fill-rule="nonzero"/><path fill="#201600" d="M 127.355469 195.664062 C 123.414062 197.15625 122.070312 200.894531 119.714844 204 C 119.855469 204.011719 119.996094 204.035156 120.136719 204.046875 C 122.921875 204.304688 125.9375 204.5 128.644531 203.660156 C 132.425781 202.492188 134.386719 200.117188 135.882812 196.664062 C 133.214844 196.136719 130.367188 195.746094 127.476562 195.589844 C 127.433594 195.613281 127.40625 195.648438 127.355469 195.664062 " fill-opacity="1" fill-rule="nonzero"/><path fill="#201600" d="M 137.785156 196.566406 C 137.777344 196.605469 137.769531 196.640625 137.753906 196.675781 C 135.398438 202.40625 131.535156 205.71875 125.144531 205.953125 C 118.1875 206.203125 111.582031 203.941406 104.726562 203.230469 C 104.472656 203.203125 104.28125 203.089844 104.140625 202.9375 C 103.433594 203.070312 102.714844 202.121094 103.355469 201.453125 C 111.894531 192.609375 126.207031 192.8125 137.378906 195.199219 C 138.09375 195.351562 138.144531 196.117188 137.785156 196.566406 Z M 123.398438 226.722656 C 115.65625 227.347656 108.347656 224.351562 100.839844 223.035156 C 100.535156 222.980469 100.355469 222.816406 100.269531 222.609375 C 100.003906 222.492188 99.8125 222.242188 99.851562 221.847656 C 100.257812 218.164062 101.28125 214.667969 102.496094 211.175781 C 102.542969 211.046875 102.605469 210.941406 102.683594 210.855469 C 102.730469 210.46875 103.003906 210.140625 103.507812 210.1875 C 113.21875 211.136719 123.082031 211.085938 132.738281 212.277344 C 133.050781 212.316406 133.269531 212.484375 133.40625 212.699219 C 133.757812 212.78125 134.078125 213.050781 134.132812 213.496094 C 134.992188 220.742188 130.835938 226.121094 123.398438 226.722656 Z M 92.253906 220.25 C 79.183594 222.292969 66.085938 220.050781 54.035156 214.5625 C 44.683594 210.304688 39.015625 203.324219 36.546875 193.371094 C 36.316406 192.441406 37.496094 191.972656 38.019531 192.523438 C 38.207031 192.324219 38.492188 192.214844 38.835938 192.296875 C 48.347656 194.667969 57.902344 196.867188 67.363281 199.425781 C 72.074219 200.703125 76.78125 202.03125 81.425781 203.546875 C 85.625 204.914062 90.003906 205.628906 94.167969 207.089844 C 94.746094 207.289062 94.867188 207.886719 94.6875 208.320312 C 94.726562 208.394531 94.757812 208.472656 94.777344 208.566406 C 95.535156 212.445312 94.476562 215.832031 92.859375 219.320312 C 92.957031 219.730469 92.792969 220.167969 92.253906 220.25 Z M 164.203125 225.976562 C 164.164062 225.824219 164.160156 225.648438 164.214844 225.457031 C 166.710938 216.390625 169.15625 207.074219 172.761719 198.296875 C 171.082031 198.488281 169.410156 198.492188 167.714844 198.355469 C 167.535156 198.34375 167.390625 198.285156 167.269531 198.199219 C 167.03125 198.347656 166.726562 198.394531 166.40625 198.238281 C 162.625 196.390625 158.984375 194.25 155.445312 191.976562 C 151.824219 189.648438 147.777344 188.4375 143.820312 186.839844 C 143.671875 186.785156 143.558594 186.695312 143.46875 186.597656 C 143.070312 186.707031 142.671875 186.8125 142.269531 186.90625 C 142.140625 186.992188 141.984375 187.046875 141.789062 187.046875 C 141.75 187.046875 141.714844 187.039062 141.679688 187.039062 C 137.445312 187.9375 132.84375 188.234375 128.527344 188.097656 C 125.21875 187.992188 121.273438 187.699219 119.074219 184.878906 C 118.898438 184.65625 118.851562 184.410156 118.886719 184.179688 C 112.472656 183.507812 106.105469 183.207031 99.71875 182.203125 C 93.058594 181.15625 86.304688 180.554688 79.691406 179.226562 C 67.394531 176.75 55.773438 172.183594 44.429688 166.917969 C 44.363281 166.886719 44.308594 166.855469 44.257812 166.816406 C 43.003906 167.679688 41.613281 168.292969 39.996094 168.429688 C 39.917969 168.4375 39.847656 168.433594 39.777344 168.421875 C 39.738281 168.425781 39.695312 168.433594 39.648438 168.429688 C 35.984375 168.296875 31.683594 165.316406 31.160156 161.714844 C 30.503906 162.597656 29.871094 163.492188 29.273438 164.414062 C 28.359375 165.828125 27.484375 167.296875 26.679688 168.808594 C 26.859375 168.816406 27.046875 168.882812 27.210938 169.035156 C 32.042969 173.300781 34.257812 178.613281 33.007812 185.015625 C 32.917969 185.476562 32.570312 185.660156 32.214844 185.640625 C 32.03125 185.835938 31.753906 185.929688 31.414062 185.800781 C 28.046875 184.523438 25.652344 181.964844 22.746094 179.964844 C 22.660156 180.511719 22.585938 181.0625 22.539062 181.617188 C 22.398438 183.175781 22.363281 184.722656 22.398438 186.261719 C 22.589844 186.199219 22.808594 186.199219 23.035156 186.296875 C 26.921875 187.976562 31.832031 189.898438 34.484375 193.394531 C 37.242188 197.03125 38.148438 201.585938 39.097656 205.957031 C 39.25 206.660156 38.609375 207.101562 38.070312 207.035156 C 37.824219 207.234375 37.480469 207.3125 37.121094 207.113281 C 35.730469 206.339844 34.265625 205.714844 32.800781 205.101562 C 32.644531 205.148438 32.460938 205.125 32.28125 204.992188 C 32.175781 204.914062 32.082031 204.832031 31.980469 204.757812 C 29.050781 203.53125 26.195312 202.277344 24.085938 200.003906 C 24.015625 200.410156 23.90625 200.796875 23.78125 201.167969 C 26.21875 202.488281 28.023438 204.707031 30.527344 205.921875 C 30.703125 205.84375 30.910156 205.828125 31.125 205.933594 C 43.632812 212.113281 56.011719 218.539062 69.664062 221.824219 C 76.375 223.441406 83.1875 224.539062 89.996094 225.632812 C 97.023438 226.765625 104.015625 228.53125 111.164062 228.460938 C 111.488281 228.457031 111.691406 228.640625 111.78125 228.871094 C 115.53125 229.285156 119.277344 229.753906 123.046875 229.96875 C 126.03125 230.140625 129.078125 229.90625 132.042969 230.257812 C 132.425781 230.304688 132.632812 230.59375 132.683594 230.894531 C 132.773438 231 132.84375 231.128906 132.855469 231.300781 C 132.957031 232.910156 132.589844 234.476562 131.949219 235.945312 C 131.839844 236.195312 131.652344 236.292969 131.453125 236.300781 C 131.359375 236.355469 131.25 236.402344 131.117188 236.40625 C 124.28125 236.734375 117.960938 235.976562 111.210938 234.875 C 111.191406 234.871094 111.183594 234.859375 111.164062 234.855469 C 110.964844 234.902344 110.75 234.871094 110.554688 234.695312 C 109.132812 233.410156 109.828125 231.285156 110.644531 229.851562 C 103.960938 229.832031 97.476562 228.242188 90.910156 227.183594 C 83.679688 226.019531 76.402344 224.960938 69.292969 223.167969 C 55.691406 219.738281 43.386719 213.542969 30.878906 207.363281 C 30.882812 207.433594 30.886719 207.507812 30.867188 207.589844 C 30.59375 208.625 30.15625 209.609375 29.636719 210.542969 C 29.40625 210.953125 28.96875 210.949219 28.664062 210.746094 C 28.59375 210.730469 28.523438 210.714844 28.449219 210.675781 C 26.050781 209.320312 23.9375 207.570312 21.929688 205.695312 C 21.867188 205.636719 21.832031 205.574219 21.800781 205.507812 C 21.792969 205.511719 21.789062 205.519531 21.785156 205.523438 C 21.640625 205.894531 21.519531 206.277344 21.425781 206.683594 C 20.597656 210.296875 23.089844 212.492188 26.082031 213.8125 C 26.125 213.832031 26.160156 213.855469 26.199219 213.878906 C 37.671875 218.675781 49.261719 222.808594 60.949219 227.027344 C 66.414062 229.003906 71.824219 231.234375 77.433594 232.796875 C 82.980469 234.34375 88.703125 235.148438 94.351562 236.269531 C 106.015625 238.585938 117.988281 241.289062 129.957031 240.597656 C 136.269531 240.230469 142.554688 239.019531 148.816406 238.164062 C 154.328125 237.414062 159.824219 236.605469 165.28125 235.511719 C 164.351562 232.363281 163.433594 229.28125 164.203125 225.976562 " fill-opacity="1" fill-rule="nonzero"/><path fill="#201600" d="M 203.964844 187.570312 C 208.625 187.960938 212.308594 191.273438 213.746094 195.636719 C 215.183594 200 214.859375 204.074219 214.253906 208.382812 C 214.289062 208.46875 214.300781 208.570312 214.289062 208.679688 C 213.621094 214.972656 212.203125 221.503906 208.734375 226.898438 C 205.644531 231.714844 200.578125 236.941406 194.648438 237.914062 C 180.644531 240.210938 180.730469 222.132812 182.613281 213.019531 C 184.761719 202.628906 190.699219 186.449219 203.964844 187.570312 Z M 176.882812 210.097656 C 175.28125 217.316406 174.164062 225.535156 176.28125 232.773438 C 178.285156 239.601562 183.511719 245.984375 191.285156 245.734375 C 207.691406 245.210938 213.089844 228.417969 216.414062 215.25 C 216.476562 215.011719 216.589844 214.839844 216.738281 214.71875 C 218.832031 207.824219 219.949219 200.425781 217.851562 193.367188 C 215.792969 186.4375 210.664062 178.960938 202.4375 179.722656 C 188.527344 181.003906 179.566406 198.015625 176.882812 210.097656 " fill-opacity="1" fill-rule="nonzero"/><path fill="#201600" d="M 328.652344 108.511719 C 324.59375 108.140625 320.582031 107.390625 316.582031 106.535156 C 316.871094 107.027344 317.097656 107.550781 317.230469 108.121094 C 320.90625 109.015625 324.589844 109.007812 328.652344 108.511719 " fill-opacity="1" fill-rule="nonzero"/><path fill="#201600" d="M 335.757812 102.644531 C 334.203125 103.859375 332.523438 104.894531 330.625 105.445312 C 328.898438 105.945312 327.113281 106.21875 325.304688 106.363281 C 327.636719 106.6875 329.984375 106.921875 332.355469 106.984375 C 333.800781 105.808594 334.832031 104.269531 335.757812 102.644531 " fill-opacity="1" fill-rule="nonzero"/><path fill="#201600" d="M 314.074219 93.667969 C 321.828125 94.667969 329.984375 96.183594 337.300781 99 C 337.582031 98.738281 337.863281 98.480469 338.140625 98.214844 C 338.199219 98.160156 338.257812 98.117188 338.320312 98.082031 C 338.4375 97.898438 338.558594 97.71875 338.683594 97.539062 C 334.878906 96.9375 331.191406 95.804688 327.394531 95.144531 C 322.523438 94.296875 317.652344 93.464844 312.777344 92.683594 C 304.503906 91.355469 296.222656 90.140625 287.914062 89.09375 C 289.160156 89.742188 290.390625 90.457031 291.597656 91.230469 C 298.84375 93.128906 306.6875 92.714844 314.074219 93.667969 " fill-opacity="1" fill-rule="nonzero"/><path fill="#201600" d="M 28.132812 172.449219 C 26.992188 175.128906 26.730469 177.925781 26.714844 180.84375 C 28.1875 182.027344 29.683594 183.171875 31.429688 183.921875 C 32.128906 179.453125 30.859375 175.683594 28.132812 172.449219 " fill-opacity="1" fill-rule="nonzero"/><path fill="#201600" d="M 333.847656 108.027344 C 333.835938 108.085938 333.824219 108.148438 333.804688 108.203125 C 337.585938 107.589844 341.878906 106.785156 344.34375 104.023438 C 344.34375 103.886719 344.375 103.75 344.445312 103.609375 C 345.238281 102.066406 347.273438 95.832031 344.917969 94.898438 C 344.863281 94.925781 344.796875 94.953125 344.734375 94.96875 C 343.304688 95.355469 342.214844 96.046875 341.324219 96.925781 C 341.359375 97.375 341.105469 97.816406 340.550781 97.785156 C 339.304688 99.347656 338.457031 101.296875 337.46875 103.1875 C 336.488281 105.0625 335.359375 106.722656 333.847656 108.027344 " fill-opacity="1" fill-rule="nonzero"/><path fill="#201600" d="M 307.675781 102.09375 C 305.460938 100.984375 303.3125 99.796875 301.113281 98.6875 C 304.1875 101.25 307.339844 103.726562 310.832031 105.625 C 312.320312 106.433594 313.773438 107.058594 315.214844 107.539062 C 313.933594 104.972656 309.898438 103.210938 307.675781 102.09375 " fill-opacity="1" fill-rule="nonzero"/><path fill="#201600" d="M 315.847656 104.601562 C 316.074219 104.652344 316.300781 104.699219 316.527344 104.746094 C 320.609375 104.761719 325.304688 105.175781 329.242188 104.035156 C 331.945312 103.25 334.085938 101.800781 336.117188 100.054688 C 327.996094 97.046875 318.921875 95.488281 310.363281 94.644531 C 305.140625 94.132812 299.746094 94.152344 294.535156 93.273438 C 294.949219 93.585938 295.363281 93.886719 295.769531 94.21875 C 296.003906 94.410156 296.238281 94.609375 296.476562 94.800781 C 296.597656 94.785156 296.730469 94.800781 296.882812 94.855469 C 301.804688 96.816406 306.679688 99.300781 311.226562 102.03125 C 312.503906 102.796875 313.949219 103.675781 315.117188 104.765625 C 315.300781 104.617188 315.550781 104.539062 315.847656 104.601562 " fill-opacity="1" fill-rule="nonzero"/><path fill="#201600" d="M 131.347656 114.433594 C 131.90625 113.859375 132.464844 113.277344 133.035156 112.707031 C 132.996094 112.59375 132.972656 112.472656 132.996094 112.332031 C 133.605469 108.828125 134.128906 105.007812 131.328125 102.445312 C 131.371094 102.640625 131.332031 102.851562 131.144531 103.03125 C 128.078125 106.003906 130.464844 110.730469 131.347656 114.433594 " fill-opacity="1" fill-rule="nonzero"/><path fill="#201600" d="M 136.96875 169.773438 C 130.804688 173.238281 126.15625 178.558594 121.191406 183.480469 C 121.121094 183.738281 120.941406 183.957031 120.652344 184.042969 C 122.964844 186.488281 127.117188 186.441406 130.253906 186.355469 C 133.957031 186.257812 137.925781 186.234375 141.515625 185.300781 C 146.398438 184.023438 150.90625 181.808594 155.148438 179.101562 C 158.820312 176.757812 162.039062 174.792969 162.136719 170.144531 C 158.238281 168.6875 154.171875 168.585938 150.058594 168.125 C 145.523438 167.617188 141.101562 167.453125 136.96875 169.773438 " fill-opacity="1" fill-rule="nonzero"/><path fill="#201600" d="M 39.648438 166.6875 C 39.722656 166.691406 39.785156 166.699219 39.847656 166.714844 C 39.894531 166.707031 39.945312 166.695312 39.996094 166.6875 C 41.277344 166.582031 42.402344 166.09375 43.433594 165.390625 C 43.542969 165.175781 43.738281 165.007812 44.019531 164.964844 C 46.5625 162.972656 48.546875 159.75 50.839844 157.851562 C 54.15625 155.105469 57.757812 153.058594 61.726562 151.4375 C 61.140625 147.28125 49.957031 147.261719 46.957031 147.375 C 46.785156 147.382812 46.640625 147.34375 46.519531 147.277344 C 41.8125 150.449219 37.445312 154.207031 33.742188 158.492188 C 33.714844 158.585938 33.679688 158.679688 33.617188 158.777344 C 30.972656 162.664062 35.988281 166.554688 39.648438 166.6875 " fill-opacity="1" fill-rule="nonzero"/><path fill="#201600" d="M 25.34375 179.742188 C 25.433594 176.816406 25.847656 174.042969 27.105469 171.332031 C 26.75 170.96875 26.378906 170.609375 25.984375 170.265625 C 25.972656 170.253906 25.964844 170.242188 25.957031 170.230469 C 24.710938 172.769531 23.691406 175.421875 23.082031 178.164062 C 23.179688 178.183594 23.28125 178.222656 23.382812 178.292969 C 24.058594 178.742188 24.707031 179.234375 25.34375 179.742188 " fill-opacity="1" fill-rule="nonzero"/><path fill="#201600" d="M 63.484375 151.550781 C 63.511719 151.847656 63.410156 152.066406 63.242188 152.203125 C 63.195312 152.496094 63.019531 152.777344 62.671875 152.914062 C 57.382812 155.011719 52.765625 157.953125 48.980469 162.230469 C 47.960938 163.378906 46.910156 164.578125 45.753906 165.621094 C 57.183594 170.90625 69.03125 175.617188 81.492188 177.800781 C 87.695312 178.886719 93.96875 179.488281 100.183594 180.527344 C 106.671875 181.609375 113.15625 181.800781 119.679688 182.523438 C 125.175781 177.089844 130.765625 169.945312 138.25 167.242188 C 142.570312 165.683594 146.746094 166.019531 151.230469 166.523438 C 154.261719 166.859375 157.167969 167 160.046875 167.683594 C 160.050781 167.488281 160.125 167.292969 160.3125 167.121094 C 168.171875 159.824219 179.765625 157.675781 189.605469 154.222656 C 200.464844 150.414062 211.382812 146.691406 222.363281 143.207031 C 219.558594 142.917969 216.761719 142.527344 213.941406 142.386719 C 209.539062 142.167969 205.136719 141.863281 200.75 141.429688 C 192.269531 140.589844 183.816406 139.4375 175.425781 137.96875 C 158.351562 134.980469 142.210938 128.8125 125.347656 125.015625 C 124.824219 125.027344 124.28125 124.96875 123.8125 124.777344 C 123.617188 124.75 123.441406 124.644531 123.300781 124.488281 C 123.089844 124.335938 122.914062 124.148438 122.773438 123.90625 C 110.878906 125.917969 99.199219 129.339844 87.519531 132.304688 C 76.210938 135.175781 64.371094 137.546875 53.910156 142.898438 C 52.289062 143.730469 50.695312 144.636719 49.125 145.597656 C 54.269531 145.617188 63.019531 146.40625 63.484375 151.550781 " fill-opacity="1" fill-rule="nonzero"/><path fill="#201600" d="M 137.152344 126.222656 C 140.886719 126.515625 144.664062 126.324219 148.390625 125.914062 C 144.40625 125.566406 140.421875 125.390625 136.523438 125.363281 C 135.628906 125.355469 135.628906 123.964844 136.523438 123.972656 C 148.429688 124.050781 160.964844 125.449219 172.292969 129.132812 C 173.144531 129.40625 172.777344 130.75 171.921875 130.472656 C 165.179688 128.277344 157.96875 126.90625 150.730469 126.144531 C 150.824219 126.527344 150.613281 127.039062 150.097656 127.105469 C 147.582031 127.425781 145.039062 127.660156 142.488281 127.734375 C 151.742188 130.40625 160.945312 133.222656 170.386719 135.222656 C 170.480469 135.175781 170.582031 135.144531 170.71875 135.152344 C 179.726562 135.585938 189.242188 135.917969 198.015625 133.550781 C 192.160156 132.609375 186.300781 132.320312 180.328125 131.886719 C 179.441406 131.824219 179.433594 130.433594 180.328125 130.496094 C 188.449219 131.085938 196.1875 131.617188 204.164062 133.34375 C 210.796875 134.78125 217.4375 137.007812 223.484375 140.117188 C 224.285156 140.53125 223.578125 141.730469 222.78125 141.320312 C 216.4375 138.054688 209.554688 136.023438 202.636719 134.429688 C 202.003906 134.285156 201.371094 134.164062 200.742188 134.039062 C 200.660156 134.148438 200.554688 134.246094 200.394531 134.300781 C 193.597656 136.5 186.34375 136.9375 179.144531 136.835938 C 187.191406 138.15625 195.277344 139.242188 203.398438 139.933594 C 211.148438 140.59375 219.078125 141.609375 226.851562 141.789062 C 227.511719 141.585938 228.171875 141.371094 228.835938 141.164062 C 228.8125 140.984375 228.839844 140.785156 228.929688 140.585938 C 232.644531 132.582031 236.699219 124.71875 240.0625 116.554688 C 241.472656 113.128906 242.601562 109.613281 243.953125 106.167969 C 244.636719 104.445312 247.113281 99.609375 244.617188 98.511719 C 244.445312 98.433594 244.324219 98.332031 244.230469 98.214844 C 238.386719 97.09375 232.429688 96.507812 226.546875 95.589844 C 220.035156 94.574219 213.511719 93.558594 206.964844 92.816406 C 194.851562 91.441406 183.074219 89.152344 171.089844 86.960938 C 170.972656 86.9375 170.878906 86.898438 170.789062 86.851562 C 169.941406 87.191406 169.09375 87.539062 168.253906 87.894531 C 168.109375 87.980469 167.929688 88.039062 167.714844 88.039062 C 167.589844 88.039062 167.480469 88.019531 167.378906 87.984375 C 158.796875 92.429688 151.148438 98.328125 143.992188 104.796875 C 137.492188 110.671875 131.265625 116.664062 125.539062 123.277344 C 125.542969 123.277344 125.546875 123.277344 125.546875 123.28125 C 129.449219 124.148438 133.3125 125.160156 137.152344 126.222656 " fill-opacity="1" fill-rule="nonzero"/><path fill="#201600" d="M 130.160156 102.050781 C 130.304688 101.910156 130.464844 101.859375 130.621094 101.859375 C 128.902344 100.589844 124.917969 98.171875 123.261719 100.148438 C 120.429688 103.511719 125.835938 107.402344 127.789062 109.703125 C 128.464844 110.5 128.96875 111.363281 129.347656 112.269531 C 128.328125 108.683594 127.246094 104.871094 130.160156 102.050781 " fill-opacity="1" fill-rule="nonzero"/><path fill="#201600" d="M 233.546875 182.46875 C 233.476562 177.820312 228.699219 182.503906 228.417969 184.101562 C 228.1875 185.402344 228.199219 186.617188 228.09375 187.917969 C 227.972656 189.359375 227.839844 190.808594 227.855469 192.253906 C 227.875 193.992188 227.910156 195.828125 228.507812 197.484375 C 229.023438 198.917969 229.832031 200.589844 231.304688 201.300781 C 233.683594 201.335938 234.992188 200.53125 235.253906 198.90625 C 234.710938 199.070312 234.167969 199.234375 233.613281 199.378906 C 233.566406 199.390625 233.527344 199.382812 233.484375 199.386719 C 233.195312 199.667969 232.652344 199.730469 232.363281 199.289062 C 232.164062 198.984375 231.984375 198.664062 231.785156 198.363281 C 231.707031 198.242188 231.675781 198.128906 231.671875 198.019531 C 231.671875 198.015625 231.667969 198.015625 231.667969 198.011719 C 229.601562 194.222656 227.253906 188.722656 230.683594 184.890625 C 231.519531 183.953125 232.507812 183.242188 233.589844 182.664062 C 233.570312 182.601562 233.546875 182.539062 233.546875 182.46875 " fill-opacity="1" fill-rule="nonzero"/><path fill="#201600" d="M 235.675781 183.28125 C 234.925781 183.5625 234.269531 183.890625 233.707031 184.253906 C 233.800781 184.359375 233.882812 184.492188 233.894531 184.671875 C 234.191406 188.261719 233.945312 191.867188 234.242188 195.457031 C 234.246094 195.503906 234.234375 195.539062 234.226562 195.582031 C 237.359375 195.292969 240.386719 194.496094 243.453125 193.742188 C 243.527344 193.722656 243.589844 193.730469 243.65625 193.734375 C 243.300781 189.207031 243.816406 184.789062 244.484375 180.351562 C 241.613281 181.601562 238.632812 182.179688 235.675781 183.28125 " fill-opacity="1" fill-rule="nonzero"/><path fill="#201600" d="M 232.089844 195.753906 C 232.175781 195.71875 232.273438 195.691406 232.386719 195.691406 C 232.5625 195.6875 232.734375 195.675781 232.910156 195.664062 C 232.882812 195.601562 232.855469 195.539062 232.851562 195.457031 C 232.566406 192.042969 232.769531 188.617188 232.535156 185.199219 C 229.808594 187.882812 230.34375 191.933594 232.089844 195.753906 " fill-opacity="1" fill-rule="nonzero"/><path fill="#201600" d="M 232.742188 197.066406 C 232.785156 197.148438 232.824219 197.230469 232.871094 197.3125 C 232.929688 197.417969 232.949219 197.523438 232.957031 197.621094 C 232.96875 197.632812 232.976562 197.644531 232.988281 197.660156 C 233.066406 197.785156 233.148438 197.914062 233.226562 198.042969 C 233.234375 198.042969 233.238281 198.039062 233.246094 198.035156 C 234.964844 197.585938 236.636719 197.011719 238.285156 196.378906 C 236.460938 196.742188 234.621094 197.003906 232.742188 197.066406 " fill-opacity="1" fill-rule="nonzero"/><path fill="#201600" d="M 296.808594 113.296875 C 297 111.832031 298.285156 110.195312 299.933594 111.269531 C 301.5625 112.332031 302.386719 114.925781 302.21875 116.808594 C 302.003906 119.179688 300.621094 119.902344 298.390625 120.054688 C 297.882812 120.089844 297.675781 119.660156 297.742188 119.269531 C 297.675781 119.191406 297.625 119.097656 297.605469 118.964844 C 297.289062 117.128906 296.554688 115.183594 296.808594 113.296875 Z M 278.554688 94.652344 C 278.441406 94.65625 278.339844 94.632812 278.25 94.601562 C 278.183594 94.625 278.113281 94.644531 278.03125 94.652344 C 272.507812 95.289062 266.609375 95.992188 261.546875 98.476562 C 256.078125 101.15625 252.214844 105.398438 249.515625 110.835938 C 246.859375 116.179688 245.167969 121.863281 243.105469 127.445312 C 241.558594 131.632812 239.757812 135.746094 237.910156 139.816406 C 238.40625 139.242188 238.902344 138.664062 239.433594 138.125 C 239.539062 138.015625 239.65625 137.96875 239.773438 137.945312 C 242.644531 132.113281 245.226562 126.140625 247.371094 120.007812 C 249.023438 115.269531 250.691406 110.535156 253.671875 106.449219 C 259.914062 97.890625 271.601562 97.339844 281.238281 96.917969 C 281.332031 96.875 281.4375 96.847656 281.570312 96.855469 C 294.515625 97.871094 295.796875 112.03125 297.300781 122.179688 C 299.414062 121.574219 301.515625 120.9375 303.574219 120.144531 C 302.546875 107.621094 291.867188 94.59375 278.554688 94.652344 " fill-opacity="1" fill-rule="nonzero"/><path fill="#201600" d="M 325.195312 141.15625 C 326.203125 140.433594 327.273438 139.792969 328.367188 139.371094 C 327.640625 139.382812 326.953125 139.566406 326.410156 139.980469 C 326.253906 140.101562 326.101562 140.160156 325.953125 140.179688 C 325.695312 140.496094 325.441406 140.820312 325.195312 141.15625 " fill-opacity="1" fill-rule="nonzero"/><path fill="#201600" d="M 247.386719 124.046875 C 245.695312 128.394531 243.835938 132.675781 241.820312 136.882812 C 244.367188 136.144531 247.058594 136.210938 249.613281 135.402344 C 249.90625 135.308594 250.148438 135.367188 250.328125 135.507812 C 250.753906 135.265625 251.183594 135.011719 251.605469 134.753906 C 251.589844 134.710938 251.5625 134.679688 251.546875 134.625 C 250.988281 131.996094 250.085938 129.476562 249.457031 126.867188 C 249.050781 125.183594 248.78125 123.480469 248.210938 121.84375 C 247.945312 122.585938 247.671875 123.316406 247.386719 124.046875 " fill-opacity="1" fill-rule="nonzero"/><path fill="#201600" d="M 298.945312 118.597656 C 298.945312 118.605469 298.941406 118.613281 298.941406 118.625 C 299.652344 118.5625 300.472656 118.402344 300.667969 117.679688 C 300.847656 117.03125 300.886719 116.355469 300.765625 115.691406 C 300.648438 115.054688 299.808594 111.609375 298.578125 112.4375 C 297.78125 112.976562 298.21875 114.960938 298.355469 115.714844 C 298.527344 116.679688 298.777344 117.628906 298.945312 118.597656 " fill-opacity="1" fill-rule="nonzero"/><path fill="#201600" d="M 329.101562 147.539062 C 321.789062 147.617188 319.164062 157.140625 318.066406 162.972656 C 317.140625 167.898438 316.058594 174.207031 317.675781 179.128906 C 319.148438 183.617188 323.511719 188.367188 328.53125 185.042969 C 334.84375 180.859375 335.339844 172.632812 336.582031 165.742188 C 336.488281 165.601562 336.433594 165.433594 336.460938 165.226562 C 337.210938 160 337.003906 147.460938 329.101562 147.539062 " fill-opacity="1" fill-rule="nonzero"/><path fill="#201600" d="M 346.585938 148.328125 C 346.867188 148.113281 347.152344 147.894531 347.414062 147.648438 C 348.210938 146.902344 348.988281 145.992188 349.148438 144.929688 C 348.195312 145.65625 347.433594 146.648438 346.558594 147.460938 C 346.503906 147.511719 346.441406 147.539062 346.378906 147.570312 C 346.097656 147.9375 345.714844 148.511719 345.863281 148.878906 C 345.773438 148.660156 346.382812 148.480469 346.585938 148.328125 " fill-opacity="1" fill-rule="nonzero"/><path fill="#201600" d="M 310.945312 184.722656 C 310.828125 184.835938 310.691406 184.929688 310.5 184.980469 C 307.402344 185.773438 304.324219 186.582031 301.253906 187.398438 C 304.042969 190.492188 306.878906 192.800781 311.089844 193.902344 C 313.542969 194.539062 316.195312 195.171875 318.824219 195.304688 C 314.65625 193.152344 312.113281 189.167969 310.945312 184.722656 " fill-opacity="1" fill-rule="nonzero"/><path fill="#201600" d="M 350.914062 131.976562 C 349.558594 135.851562 347.019531 139.058594 344.246094 142.074219 C 344.238281 142.082031 344.230469 142.085938 344.226562 142.09375 C 344.671875 143.941406 344.753906 145.941406 344.589844 147.992188 C 344.789062 147.386719 345.195312 146.824219 345.574219 146.359375 C 345.683594 146.230469 345.804688 146.160156 345.925781 146.132812 C 347.019531 145.046875 348.003906 143.78125 349.425781 143.121094 C 349.820312 142.941406 350.335938 143.066406 350.449219 143.535156 C 350.785156 144.945312 350.375 146.21875 349.542969 147.371094 C 348.8125 148.386719 347.59375 149.621094 346.378906 150.023438 C 345.554688 150.296875 344.671875 150.046875 344.492188 149.105469 C 344.484375 149.082031 344.488281 149.058594 344.484375 149.035156 C 344.210938 151.359375 343.660156 153.71875 343.015625 155.949219 C 342.832031 156.570312 342.269531 156.761719 341.777344 156.648438 C 341.957031 158.574219 341.988281 160.5 341.898438 162.417969 C 348.871094 154.441406 354.8125 142.386719 350.914062 131.976562 " fill-opacity="1" fill-rule="nonzero"/><path fill="#201600" d="M 280.851562 125.671875 C 280.914062 126.015625 280.953125 126.335938 280.976562 126.648438 C 285.214844 126.261719 289.007812 124.5625 293.050781 123.386719 C 294.023438 123.105469 294.992188 122.832031 295.960938 122.558594 C 294.585938 113.246094 293.691406 99.199219 281.570312 98.25 C 281.5 98.277344 281.425781 98.304688 281.335938 98.304688 C 270.535156 98.777344 258.414062 99.6875 252.777344 110.421875 C 251.097656 113.609375 249.941406 116.984375 248.75 120.351562 C 248.972656 120.398438 249.1875 120.535156 249.296875 120.800781 C 249.328125 120.878906 249.351562 120.953125 249.378906 121.03125 C 252.320312 113.054688 256.480469 103.542969 266.75 105.621094 C 276.175781 107.53125 279.558594 114.890625 280.035156 123.695312 C 280.429688 124.285156 280.714844 124.941406 280.851562 125.671875 " fill-opacity="1" fill-rule="nonzero"/><path fill="#201600" d="M 341.664062 165.425781 C 341.601562 165.992188 341.519531 166.558594 341.433594 167.121094 C 343.546875 165.289062 345.433594 163.226562 346.070312 160.554688 C 344.867188 162.183594 343.589844 163.707031 342.28125 165.109375 C 342.089844 165.3125 341.875 165.40625 341.664062 165.425781 " fill-opacity="1" fill-rule="nonzero"/><path fill="#201600" d="M 341.339844 139.945312 C 339.574219 137.515625 336.371094 135.304688 333.210938 135.628906 C 331.648438 135.785156 330.246094 136.398438 328.972656 137.292969 C 330.734375 137.445312 332.515625 138.246094 333.578125 139.386719 C 333.625 139.4375 333.660156 139.484375 333.695312 139.535156 C 337.21875 141.285156 339.089844 145.128906 340.230469 148.796875 C 340.761719 150.503906 341.148438 152.214844 341.429688 153.925781 C 342.71875 149.492188 344.164062 143.828125 341.339844 139.945312 " fill-opacity="1" fill-rule="nonzero"/><path fill="#201600" d="M 338.152344 164.902344 C 336.582031 172.710938 335.59375 187.628906 324.472656 187.488281 C 320.710938 187.441406 317.695312 183.644531 316.625 180.386719 C 314.792969 174.800781 315.542969 168.261719 316.722656 162.601562 C 317.992188 156.535156 321.898438 143.582031 330.734375 146.382812 C 337.839844 148.640625 338.652344 157.792969 337.96875 164.277344 C 338.113281 164.429688 338.203125 164.640625 338.152344 164.902344 Z M 334.832031 142.863281 C 330.550781 138.65625 325.878906 143.203125 322.445312 146.085938 C 322.324219 146.183594 322.199219 146.25 322.074219 146.292969 C 321.984375 146.464844 321.890625 146.640625 321.800781 146.808594 C 317.375 155.445312 314.128906 165.371094 312.328125 175.175781 C 312.410156 175.324219 312.453125 175.511719 312.425781 175.738281 C 311.6875 182 313.5 191.667969 320.574219 193.847656 C 327.855469 196.089844 332.359375 188.101562 334.746094 182.472656 C 338.308594 174.058594 341.222656 164.386719 339.621094 155.175781 C 338.917969 151.152344 337.878906 145.859375 334.832031 142.863281 " fill-opacity="1" fill-rule="nonzero"/><path fill="#201600" d="M 251.105469 155.578125 C 260.691406 152.0625 270.261719 148.503906 279.902344 145.15625 C 289.300781 141.894531 298.867188 139.210938 308.296875 136.089844 C 309.152344 135.808594 309.515625 137.152344 308.667969 137.433594 C 299.234375 140.554688 289.664062 143.21875 280.269531 146.496094 C 270.636719 149.863281 261.0625 153.40625 251.476562 156.921875 C 250.636719 157.230469 250.273438 155.886719 251.105469 155.578125 Z M 245.929688 197.503906 C 263.769531 190.699219 282.96875 183.308594 295.761719 168.488281 C 302.058594 161.1875 307.410156 152.652344 310.375 143.425781 C 311.707031 139.285156 312.941406 134.734375 311.324219 130.46875 C 309.933594 126.828125 307.324219 124.097656 304.378906 121.65625 C 304.320312 121.695312 304.261719 121.738281 304.1875 121.765625 C 299.976562 123.402344 295.550781 124.304688 291.292969 125.792969 C 287.890625 126.984375 284.503906 128.089844 280.894531 128.402344 C 279.726562 134.632812 268.839844 133.226562 264.105469 133.902344 C 264.101562 133.945312 264.09375 133.988281 264.078125 134.035156 C 262.75 138.304688 259.960938 141.390625 256.371094 143.949219 C 256.144531 144.113281 255.921875 144.140625 255.722656 144.082031 C 255.539062 144.222656 255.296875 144.289062 255.007812 144.210938 C 253 143.679688 250.796875 143.167969 249.128906 141.871094 C 247.503906 140.613281 247.492188 138.953125 248.441406 137.46875 C 246.191406 137.882812 243.851562 137.894531 241.710938 138.714844 C 245.660156 148.425781 248.761719 157.457031 247.835938 168.132812 C 246.976562 177.992188 243.84375 187.570312 245.929688 197.503906 " fill-opacity="1" fill-rule="nonzero"/><path fill="#201600" d="M 278.519531 122.074219 C 278.078125 117.660156 276.769531 113.449219 273.878906 110.566406 C 275.503906 113.375 275.753906 116.765625 275.320312 120.265625 C 276.417969 120.710938 277.550781 121.300781 278.519531 122.074219 " fill-opacity="1" fill-rule="nonzero"/><path fill="#201600" d="M 211.109375 168.636719 C 210.261719 168.941406 209.902344 167.597656 210.742188 167.292969 C 220.613281 163.71875 230.636719 160.601562 240.785156 157.898438 C 241.652344 157.664062 242.019531 159.011719 241.152344 159.242188 C 231.007812 161.941406 220.984375 165.058594 211.109375 168.636719 Z M 239.199219 168.730469 C 238.515625 170.789062 235.640625 171.160156 233.84375 171.539062 C 233.609375 171.585938 233.410156 171.519531 233.265625 171.394531 C 231.597656 171.179688 229.996094 170.210938 230.816406 168.25 C 231.535156 166.527344 233.441406 165.234375 235.28125 165.089844 C 237.378906 164.925781 240.03125 166.207031 239.199219 168.730469 Z M 315.605469 132.957031 C 320.976562 130.921875 326.164062 128.519531 331.566406 126.546875 C 336.835938 124.621094 342.238281 122.078125 345.808594 117.59375 C 346.363281 116.890625 347.34375 117.882812 346.789062 118.578125 C 343.605469 122.578125 338.867188 125.238281 334.152344 127.054688 C 328.0625 129.402344 322.074219 131.988281 315.976562 134.300781 C 315.136719 134.617188 314.773438 133.273438 315.605469 132.957031 Z M 347.199219 124.011719 C 349.042969 126.695312 349.3125 133.441406 345.441406 134.417969 C 345.046875 134.515625 344.765625 134.292969 344.644531 134 C 344.558594 133.945312 344.480469 133.867188 344.421875 133.75 C 343.132812 131.148438 342.53125 127.835938 343.957031 125.160156 C 344.582031 123.988281 346.042969 122.34375 347.199219 124.011719 Z M 309.101562 183.09375 C 309.039062 182.839844 309.074219 182.578125 309.179688 182.359375 C 309.179688 182.355469 309.175781 182.351562 309.179688 182.351562 C 309.890625 175.933594 311.449219 169.542969 313.257812 163.359375 C 315.5 155.6875 318.179688 147.566406 322.847656 140.984375 C 325.882812 136.707031 330.765625 131.957031 336.523438 133.949219 C 340.257812 135.246094 342.449219 137.46875 343.597656 140.183594 C 348.855469 134.207031 351.851562 127.089844 349.503906 118.984375 C 347.371094 111.601562 340.652344 109.875 333.714844 110.3125 C 333.425781 110.332031 333.21875 110.230469 333.074219 110.074219 C 332.660156 110.140625 332.253906 110.210938 331.855469 110.28125 C 331.636719 110.320312 331.4375 110.28125 331.277344 110.199219 C 331.203125 110.226562 331.128906 110.261719 331.03125 110.273438 C 325.316406 111.140625 319.949219 111.761719 314.394531 109.578125 C 309.289062 107.570312 304.882812 104.410156 300.660156 100.953125 C 295.417969 96.652344 290.363281 92.140625 284.101562 89.347656 C 277.871094 86.570312 271.222656 85.089844 264.535156 83.882812 C 248.40625 80.980469 232.09375 77.808594 215.625 78.0625 C 201.738281 78.28125 187.589844 80.75 174.433594 85.480469 C 179.660156 86.484375 184.871094 87.59375 190.109375 88.523438 C 196.578125 89.667969 203.085938 90.21875 209.59375 91.042969 C 221.390625 92.546875 233.40625 93.976562 245.074219 96.253906 C 245.417969 96.324219 245.632812 96.511719 245.742188 96.742188 C 247.800781 97.699219 248.011719 99.96875 247.535156 102.007812 C 246.714844 105.515625 245.226562 109.054688 243.941406 112.410156 C 240.121094 122.414062 235.234375 131.9375 230.734375 141.640625 C 230.726562 141.65625 230.714844 141.667969 230.707031 141.683594 C 232.03125 142.230469 233.441406 142.316406 234.863281 142.328125 C 237.964844 135.554688 240.835938 128.71875 243.285156 121.683594 C 245.253906 116.03125 247.277344 110.0625 250.871094 105.195312 C 257.3125 96.484375 267.089844 94.226562 277.292969 93 C 277.34375 92.976562 277.402344 92.953125 277.464844 92.941406 C 277.472656 92.9375 277.472656 92.9375 277.476562 92.933594 C 277.542969 92.921875 277.609375 92.914062 277.683594 92.914062 C 277.75 92.914062 277.8125 92.921875 277.871094 92.929688 C 277.925781 92.925781 277.976562 92.921875 278.03125 92.914062 C 278.152344 92.898438 278.257812 92.910156 278.351562 92.933594 C 278.410156 92.921875 278.480469 92.914062 278.554688 92.914062 C 292.871094 92.847656 304.246094 106.695312 305.316406 120.175781 C 311.890625 125.558594 315.363281 132.289062 312.976562 140.820312 C 310.300781 150.378906 305.445312 159.382812 299.195312 167.082031 C 285.621094 183.804688 265.5 191.894531 245.898438 199.367188 C 245.378906 199.566406 245.007812 199.257812 244.890625 198.84375 C 244.621094 198.789062 244.386719 198.601562 244.304688 198.238281 C 244.105469 197.332031 243.957031 196.433594 243.835938 195.53125 C 241.453125 196.597656 239.0625 197.628906 236.601562 198.46875 C 236.652344 198.589844 236.683594 198.726562 236.652344 198.890625 C 235.871094 202.800781 233.070312 204.292969 229.714844 201.859375 C 226.640625 199.628906 226.339844 194.757812 226.484375 191.339844 C 226.640625 187.613281 226.035156 181.382812 230.25 179.484375 C 232.859375 178.3125 234.699219 179.339844 234.914062 182.035156 C 238.0625 180.707031 241.742188 180.15625 244.734375 178.699219 C 245.214844 175.605469 245.714844 172.492188 245.992188 169.316406 C 246.453125 163.976562 246.539062 158.488281 245.160156 153.257812 C 243.90625 148.488281 242.003906 143.964844 240.132812 139.410156 C 238.824219 140.796875 237.671875 142.332031 236.183594 143.519531 C 236.082031 143.816406 235.835938 144.046875 235.445312 144.0625 C 235.429688 144.074219 235.417969 144.082031 235.40625 144.089844 C 235.128906 144.269531 234.855469 144.222656 234.664062 144.0625 C 232.898438 144.027344 231.207031 143.84375 229.570312 143.078125 C 229.4375 143.019531 229.335938 142.941406 229.265625 142.851562 C 228.867188 142.976562 228.46875 143.105469 228.070312 143.230469 C 227.929688 143.421875 227.710938 143.554688 227.394531 143.546875 C 227.296875 143.546875 227.195312 143.539062 227.09375 143.535156 C 215.542969 147.128906 204.050781 151.011719 192.632812 155 C 187.136719 156.921875 181.621094 158.746094 176.101562 160.605469 C 170.890625 162.363281 165.867188 164.429688 161.753906 168.160156 C 162.191406 168.304688 162.632812 168.457031 163.074219 168.632812 C 163.238281 168.703125 163.363281 168.804688 163.457031 168.921875 C 163.695312 169.050781 163.878906 169.292969 163.886719 169.648438 C 164.007812 174.277344 161.660156 177.101562 157.855469 179.453125 C 154.035156 181.808594 150.128906 184.222656 145.898438 185.800781 C 149.476562 187.175781 153.039062 188.410156 156.320312 190.472656 C 159.878906 192.707031 163.472656 194.871094 167.246094 196.714844 C 167.371094 196.644531 167.523438 196.601562 167.714844 196.617188 C 169.617188 196.765625 171.511719 196.792969 173.402344 196.476562 C 173.445312 196.46875 173.488281 196.46875 173.53125 196.464844 C 174.90625 193.296875 176.445312 190.203125 178.214844 187.230469 C 182.917969 179.308594 189.632812 170.664062 199.378906 169.289062 C 208.914062 167.953125 218.460938 175.425781 221.875 183.941406 C 225.582031 193.179688 224.460938 203.550781 221.785156 212.953125 C 236.15625 206.609375 250.925781 201.523438 265.6875 196.171875 C 280.015625 190.972656 294.386719 186.964844 309.121094 183.183594 C 309.113281 183.152344 309.105469 183.121094 309.101562 183.09375 " fill-opacity="1" fill-rule="nonzero"/><path fill="#201600" d="M 235.488281 166.464844 C 234.261719 166.5625 232.972656 167.292969 232.320312 168.359375 C 231.496094 169.707031 232.640625 170.03125 233.894531 170.054688 C 233.949219 170.054688 233.992188 170.078125 234.042969 170.085938 C 235.226562 169.871094 236.65625 169.648438 237.484375 168.828125 C 238.957031 167.371094 236.785156 166.363281 235.488281 166.464844 " fill-opacity="1" fill-rule="nonzero"/><path fill="#201600" d="M 250.515625 137.390625 C 250.5 137.5625 250.429688 137.738281 250.285156 137.898438 C 249.875 138.347656 249.171875 139.148438 249.570312 139.8125 C 249.921875 140.410156 250.535156 140.792969 251.148438 141.089844 C 252.496094 141.761719 253.964844 142.136719 255.414062 142.519531 C 255.441406 142.496094 255.464844 142.472656 255.496094 142.449219 C 258.703125 140.160156 261.214844 137.390625 262.402344 133.570312 C 262.46875 133.359375 262.589844 133.207031 262.738281 133.109375 C 262.6875 132.730469 262.867188 132.351562 263.359375 132.265625 C 267.191406 131.613281 271.382812 132.710938 275.09375 131.453125 C 277.496094 130.636719 280.226562 128.519531 279.019531 125.621094 C 275.917969 118.175781 263.515625 121.265625 257.730469 122.460938 C 257.695312 122.46875 257.660156 122.46875 257.625 122.472656 C 257.582031 122.574219 257.515625 122.667969 257.417969 122.761719 C 254.84375 125.183594 258.507812 129.183594 256.730469 132.160156 C 255.296875 134.550781 253 135.976562 250.628906 137.339844 C 250.589844 137.359375 250.554688 137.375 250.515625 137.390625 " fill-opacity="1" fill-rule="nonzero"/><path fill="#201600" d="M 270.082031 108.363281 C 269.910156 108.234375 269.820312 108.070312 269.789062 107.894531 C 269.019531 107.585938 268.195312 107.332031 267.292969 107.148438 C 256.851562 105.035156 253.300781 114.3125 250.339844 122.449219 C 250.265625 122.652344 250.125 122.785156 249.964844 122.855469 C 250.347656 124.328125 250.601562 125.832031 251.035156 127.296875 C 251.691406 129.492188 252.324219 131.691406 252.816406 133.933594 C 253.242188 133.613281 253.648438 133.28125 254.003906 132.898438 C 255.769531 131.003906 255.605469 129.367188 255.050781 127.003906 C 254.546875 124.859375 254.507812 123.109375 256.1875 121.53125 C 256.34375 121.382812 256.511719 121.3125 256.679688 121.292969 C 256.75 121.054688 256.941406 120.851562 257.269531 120.785156 C 262.488281 119.707031 268.683594 118.1875 273.984375 119.792969 C 274.453125 115.453125 273.875 111.132812 270.082031 108.363281 " fill-opacity="1" fill-rule="nonzero"/><path fill="#ffffff" d="M 128.644531 203.660156 C 125.9375 204.5 122.921875 204.304688 120.136719 204.046875 C 119.996094 204.035156 119.855469 204.011719 119.714844 204 C 122.070312 200.894531 123.414062 197.15625 127.355469 195.664062 C 127.40625 195.648438 127.433594 195.613281 127.476562 195.589844 C 130.367188 195.746094 133.214844 196.136719 135.882812 196.664062 C 134.386719 200.117188 132.425781 202.492188 128.644531 203.660156 Z M 118.132812 203.808594 C 113.972656 203.230469 109.886719 202.148438 105.710938 201.617188 C 110.789062 197.109375 117.695312 195.542969 124.613281 195.515625 C 123.6875 196.121094 122.863281 196.863281 122.167969 197.796875 C 120.753906 199.695312 119.742188 201.847656 118.210938 203.667969 C 118.171875 203.710938 118.160156 203.761719 118.132812 203.808594 Z M 137.378906 195.199219 C 126.207031 192.8125 111.894531 192.609375 103.355469 201.453125 C 102.714844 202.121094 103.433594 203.070312 104.140625 202.9375 C 104.28125 203.089844 104.472656 203.203125 104.726562 203.230469 C 111.582031 203.941406 118.1875 206.203125 125.144531 205.953125 C 131.535156 205.71875 135.398438 202.40625 137.753906 196.675781 C 137.769531 196.640625 137.777344 196.605469 137.785156 196.566406 C 138.144531 196.117188 138.09375 195.351562 137.378906 195.199219 " fill-opacity="1" fill-rule="nonzero"/><path fill="#ffffff" d="M 105.238281 222.195312 C 105.316406 222.066406 105.367188 221.90625 105.339844 221.722656 C 104.871094 218.546875 106 215.386719 107.238281 212.511719 C 107.28125 212.421875 107.292969 212.332031 107.300781 212.246094 C 115.671875 212.871094 124.125 212.980469 132.429688 213.984375 C 133.894531 229.410156 115.953125 224.679688 105.238281 222.195312 Z M 101.648438 221.421875 C 102.054688 218.171875 102.992188 215.066406 104.058594 211.976562 C 104.671875 212.035156 105.289062 212.078125 105.902344 212.128906 C 104.578125 215.246094 103.527344 218.5 103.976562 221.910156 C 103.140625 221.722656 102.355469 221.554688 101.648438 221.421875 Z M 133.40625 212.699219 C 133.269531 212.484375 133.050781 212.316406 132.738281 212.277344 C 123.082031 211.085938 113.21875 211.136719 103.507812 210.1875 C 103.003906 210.140625 102.730469 210.46875 102.683594 210.855469 C 102.605469 210.941406 102.542969 211.046875 102.496094 211.175781 C 101.28125 214.667969 100.257812 218.164062 99.851562 221.847656 C 99.8125 222.242188 100.003906 222.492188 100.269531 222.609375 C 100.355469 222.816406 100.535156 222.980469 100.839844 223.035156 C 108.347656 224.351562 115.65625 227.347656 123.398438 226.722656 C 130.835938 226.121094 134.992188 220.742188 134.132812 213.496094 C 134.078125 213.050781 133.757812 212.78125 133.40625 212.699219 " fill-opacity="1" fill-rule="nonzero"/><path fill="#ffffff" d="M 91.273438 218.625 C 91.269531 218.632812 91.269531 218.636719 91.265625 218.644531 C 91.261719 218.644531 91.261719 218.644531 91.257812 218.644531 C 79.398438 220.386719 68.035156 218.292969 56.910156 213.910156 C 54.253906 212.863281 51.871094 211.601562 49.746094 210.132812 C 47.90625 207.742188 46.695312 204.96875 45.171875 202.375 C 43.71875 199.902344 42.667969 197.550781 41.910156 194.847656 C 50.25 196.902344 58.605469 198.890625 66.898438 201.101562 C 71.621094 202.367188 76.308594 203.738281 80.964844 205.222656 C 84.972656 206.503906 89.136719 207.246094 93.125 208.574219 C 93.082031 208.710938 93.066406 208.859375 93.097656 209.03125 C 93.773438 212.480469 92.722656 215.527344 91.273438 218.625 Z M 38.53125 194.015625 C 39.144531 194.167969 39.757812 194.316406 40.371094 194.46875 C 41.160156 197.617188 42.203125 200.332031 43.96875 203.078125 C 44.898438 204.515625 45.664062 206.03125 46.480469 207.515625 C 42.734375 204.007812 40.085938 199.558594 38.53125 194.015625 Z M 94.777344 208.566406 C 94.757812 208.472656 94.726562 208.394531 94.6875 208.320312 C 94.867188 207.886719 94.746094 207.289062 94.167969 207.089844 C 90.003906 205.628906 85.625 204.914062 81.425781 203.546875 C 76.78125 202.03125 72.074219 200.703125 67.363281 199.425781 C 57.902344 196.867188 48.347656 194.667969 38.835938 192.296875 C 38.492188 192.214844 38.207031 192.324219 38.019531 192.523438 C 37.496094 191.972656 36.316406 192.441406 36.546875 193.371094 C 39.015625 203.324219 44.683594 210.304688 54.035156 214.5625 C 66.085938 220.050781 79.183594 222.292969 92.253906 220.25 C 92.792969 220.167969 92.957031 219.730469 92.859375 219.320312 C 94.476562 215.832031 95.535156 212.445312 94.777344 208.566406 " fill-opacity="1" fill-rule="nonzero"/><path fill="#ffffff" d="M 298.578125 112.4375 C 299.808594 111.609375 300.648438 115.054688 300.765625 115.691406 C 300.886719 116.355469 300.847656 117.03125 300.667969 117.679688 C 300.472656 118.402344 299.652344 118.5625 298.941406 118.625 C 298.941406 118.613281 298.945312 118.605469 298.945312 118.597656 C 298.777344 117.628906 298.527344 116.679688 298.355469 115.714844 C 298.21875 114.960938 297.78125 112.976562 298.578125 112.4375 Z M 297.742188 119.269531 C 297.675781 119.660156 297.882812 120.089844 298.390625 120.054688 C 300.621094 119.902344 302.003906 119.179688 302.21875 116.808594 C 302.386719 114.925781 301.5625 112.332031 299.933594 111.269531 C 298.285156 110.195312 297 111.832031 296.808594 113.296875 C 296.554688 115.183594 297.289062 117.128906 297.605469 118.964844 C 297.625 119.097656 297.675781 119.191406 297.742188 119.269531 " fill-opacity="1" fill-rule="nonzero"/><path fill="#ffffff" d="M 237.484375 168.828125 C 236.65625 169.648438 235.226562 169.871094 234.042969 170.085938 C 233.992188 170.078125 233.949219 170.054688 233.894531 170.054688 C 232.640625 170.03125 231.496094 169.707031 232.320312 168.359375 C 232.972656 167.292969 234.261719 166.5625 235.488281 166.464844 C 236.785156 166.363281 238.957031 167.371094 237.484375 168.828125 Z M 235.28125 165.089844 C 233.441406 165.234375 231.535156 166.527344 230.816406 168.25 C 229.996094 170.210938 231.597656 171.179688 233.265625 171.394531 C 233.410156 171.519531 233.609375 171.585938 233.84375 171.539062 C 235.640625 171.160156 238.515625 170.789062 239.199219 168.730469 C 240.03125 166.207031 237.378906 164.925781 235.28125 165.089844 " fill-opacity="1" fill-rule="nonzero"/><path fill="#ffffff" d="M 346.46875 125.6875 C 347.113281 127.558594 347.691406 131.792969 345.554688 132.890625 C 344.75 131.207031 344.355469 129.339844 344.621094 127.476562 C 344.742188 126.628906 345.128906 125.859375 345.574219 125.140625 C 346.074219 124.320312 346.277344 125.144531 346.46875 125.6875 Z M 343.957031 125.160156 C 342.53125 127.835938 343.132812 131.148438 344.421875 133.75 C 344.480469 133.867188 344.558594 133.945312 344.644531 134 C 344.765625 134.292969 345.046875 134.515625 345.441406 134.417969 C 349.3125 133.441406 349.042969 126.695312 347.199219 124.011719 C 346.042969 122.34375 344.582031 123.988281 343.957031 125.160156 " fill-opacity="1" fill-rule="nonzero"/><path fill="#ffffff" d="M 240.785156 157.898438 C 230.636719 160.601562 220.613281 163.71875 210.742188 167.292969 C 209.902344 167.597656 210.261719 168.941406 211.109375 168.636719 C 220.984375 165.058594 231.007812 161.941406 241.152344 159.242188 C 242.019531 159.011719 241.652344 157.664062 240.785156 157.898438 " fill-opacity="1" fill-rule="nonzero"/><path fill="#ffffff" d="M 251.476562 156.921875 C 261.0625 153.40625 270.636719 149.863281 280.269531 146.496094 C 289.664062 143.21875 299.234375 140.554688 308.667969 137.433594 C 309.515625 137.152344 309.152344 135.808594 308.296875 136.089844 C 298.867188 139.210938 289.300781 141.894531 279.902344 145.15625 C 270.261719 148.503906 260.691406 152.0625 251.105469 155.578125 C 250.273438 155.886719 250.636719 157.230469 251.476562 156.921875 " fill-opacity="1" fill-rule="nonzero"/><path fill="#ffffff" d="M 315.976562 134.300781 C 322.074219 131.988281 328.0625 129.402344 334.152344 127.054688 C 338.867188 125.238281 343.605469 122.578125 346.789062 118.578125 C 347.34375 117.882812 346.363281 116.890625 345.808594 117.59375 C 342.238281 122.078125 336.835938 124.621094 331.566406 126.546875 C 326.164062 128.519531 320.976562 130.921875 315.605469 132.957031 C 314.773438 133.273438 315.136719 134.617188 315.976562 134.300781 " fill-opacity="1" fill-rule="nonzero"/><g clip-path="url(#1bbcbfde14)"><path fill="#ffffff" d="M 345.863281 148.878906 C 345.714844 148.511719 346.097656 147.9375 346.378906 147.570312 C 346.441406 147.539062 346.503906 147.511719 346.558594 147.460938 C 347.433594 146.648438 348.195312 145.65625 349.148438 144.929688 C 348.988281 145.992188 348.210938 146.902344 347.414062 147.648438 C 347.152344 147.894531 346.867188 148.113281 346.585938 148.328125 C 346.382812 148.480469 345.773438 148.660156 345.863281 148.878906 Z M 341.898438 162.417969 C 341.988281 160.5 341.957031 158.574219 341.777344 156.648438 C 342.269531 156.761719 342.832031 156.570312 343.015625 155.949219 C 343.660156 153.71875 344.210938 151.359375 344.484375 149.035156 C 344.488281 149.058594 344.484375 149.082031 344.492188 149.105469 C 344.671875 150.046875 345.554688 150.296875 346.378906 150.023438 C 347.59375 149.621094 348.8125 148.386719 349.542969 147.371094 C 350.375 146.21875 350.785156 144.945312 350.449219 143.535156 C 350.335938 143.066406 349.820312 142.941406 349.425781 143.121094 C 348.003906 143.78125 347.019531 145.046875 345.925781 146.132812 C 345.804688 146.160156 345.683594 146.230469 345.574219 146.359375 C 345.195312 146.824219 344.789062 147.386719 344.589844 147.992188 C 344.753906 145.941406 344.671875 143.941406 344.226562 142.09375 C 344.230469 142.085938 344.238281 142.082031 344.246094 142.074219 C 347.019531 139.058594 349.558594 135.851562 350.914062 131.976562 C 354.8125 142.386719 348.871094 154.441406 341.898438 162.417969 Z M 341.433594 167.121094 C 341.519531 166.558594 341.601562 165.992188 341.664062 165.425781 C 341.875 165.40625 342.089844 165.3125 342.28125 165.109375 C 343.589844 163.707031 344.867188 162.183594 346.070312 160.554688 C 345.433594 163.226562 343.546875 165.289062 341.433594 167.121094 Z M 340.230469 148.796875 C 339.089844 145.128906 337.21875 141.285156 333.695312 139.535156 C 333.660156 139.484375 333.625 139.4375 333.578125 139.386719 C 332.515625 138.246094 330.734375 137.445312 328.972656 137.292969 C 330.246094 136.398438 331.648438 135.785156 333.210938 135.628906 C 336.371094 135.304688 339.574219 137.515625 341.339844 139.945312 C 344.164062 143.828125 342.71875 149.492188 341.429688 153.925781 C 341.148438 152.214844 340.761719 150.503906 340.230469 148.796875 Z M 334.746094 182.472656 C 332.359375 188.101562 327.855469 196.089844 320.574219 193.847656 C 313.5 191.667969 311.6875 182 312.425781 175.738281 C 312.453125 175.511719 312.410156 175.324219 312.328125 175.175781 C 314.128906 165.371094 317.375 155.445312 321.800781 146.808594 C 321.890625 146.640625 321.984375 146.464844 322.074219 146.292969 C 322.199219 146.25 322.324219 146.183594 322.445312 146.085938 C 325.878906 143.203125 330.550781 138.65625 334.832031 142.863281 C 337.878906 145.859375 338.917969 151.152344 339.621094 155.175781 C 341.222656 164.386719 338.308594 174.058594 334.746094 182.472656 Z M 311.089844 193.902344 C 306.878906 192.800781 304.042969 190.492188 301.253906 187.398438 C 304.324219 186.582031 307.402344 185.773438 310.5 184.980469 C 310.691406 184.929688 310.828125 184.835938 310.945312 184.722656 C 312.113281 189.167969 314.65625 193.152344 318.824219 195.304688 C 316.195312 195.171875 313.542969 194.539062 311.089844 193.902344 Z M 328.367188 139.371094 C 327.273438 139.792969 326.203125 140.433594 325.195312 141.15625 C 325.441406 140.820312 325.695312 140.496094 325.953125 140.179688 C 326.101562 140.160156 326.253906 140.101562 326.410156 139.980469 C 326.953125 139.566406 327.640625 139.382812 328.367188 139.371094 Z M 233.246094 198.035156 C 233.238281 198.039062 233.234375 198.042969 233.226562 198.042969 C 233.148438 197.914062 233.066406 197.785156 232.988281 197.660156 C 232.976562 197.644531 232.96875 197.632812 232.957031 197.621094 C 232.949219 197.523438 232.929688 197.417969 232.871094 197.3125 C 232.824219 197.230469 232.785156 197.148438 232.742188 197.066406 C 234.621094 197.003906 236.460938 196.742188 238.285156 196.378906 C 236.636719 197.011719 234.964844 197.585938 233.246094 198.035156 Z M 232.910156 195.664062 C 232.734375 195.675781 232.5625 195.6875 232.386719 195.691406 C 232.273438 195.691406 232.175781 195.71875 232.089844 195.753906 C 230.34375 191.933594 229.808594 187.882812 232.535156 185.199219 C 232.769531 188.617188 232.566406 192.042969 232.851562 195.457031 C 232.855469 195.539062 232.882812 195.601562 232.910156 195.664062 Z M 230.683594 184.890625 C 227.253906 188.722656 229.601562 194.222656 231.667969 198.011719 C 231.667969 198.015625 231.671875 198.015625 231.671875 198.019531 C 231.675781 198.128906 231.707031 198.242188 231.785156 198.363281 C 231.984375 198.664062 232.164062 198.984375 232.363281 199.289062 C 232.652344 199.730469 233.195312 199.667969 233.484375 199.386719 C 233.527344 199.382812 233.566406 199.390625 233.613281 199.378906 C 234.167969 199.234375 234.710938 199.070312 235.253906 198.90625 C 234.992188 200.53125 233.683594 201.335938 231.304688 201.300781 C 229.832031 200.589844 229.023438 198.917969 228.507812 197.484375 C 227.910156 195.828125 227.875 193.992188 227.855469 192.253906 C 227.839844 190.808594 227.972656 189.359375 228.09375 187.917969 C 228.199219 186.617188 228.1875 185.402344 228.417969 184.101562 C 228.699219 182.503906 233.476562 177.820312 233.546875 182.46875 C 233.546875 182.539062 233.570312 182.601562 233.589844 182.664062 C 232.507812 183.242188 231.519531 183.953125 230.683594 184.890625 Z M 243.65625 193.734375 C 243.589844 193.730469 243.527344 193.722656 243.453125 193.742188 C 240.386719 194.496094 237.359375 195.292969 234.226562 195.582031 C 234.234375 195.539062 234.246094 195.503906 234.242188 195.457031 C 233.945312 191.867188 234.191406 188.261719 233.894531 184.671875 C 233.882812 184.492188 233.800781 184.359375 233.707031 184.253906 C 234.269531 183.890625 234.925781 183.5625 235.675781 183.28125 C 238.632812 182.179688 241.613281 181.601562 244.484375 180.351562 C 243.816406 184.789062 243.300781 189.207031 243.65625 193.734375 Z M 297.300781 122.179688 C 295.796875 112.03125 294.515625 97.871094 281.570312 96.855469 C 281.4375 96.847656 281.332031 96.875 281.238281 96.917969 C 271.601562 97.339844 259.914062 97.890625 253.671875 106.449219 C 250.691406 110.535156 249.023438 115.269531 247.371094 120.007812 C 245.226562 126.140625 242.644531 132.113281 239.773438 137.945312 C 239.65625 137.96875 239.539062 138.015625 239.433594 138.125 C 238.902344 138.664062 238.40625 139.242188 237.910156 139.816406 C 239.757812 135.746094 241.558594 131.632812 243.105469 127.445312 C 245.167969 121.863281 246.859375 116.179688 249.515625 110.835938 C 252.214844 105.398438 256.078125 101.15625 261.546875 98.476562 C 266.609375 95.992188 272.507812 95.289062 278.03125 94.652344 C 278.113281 94.644531 278.183594 94.625 278.25 94.601562 C 278.339844 94.632812 278.441406 94.65625 278.554688 94.652344 C 291.867188 94.59375 302.546875 107.621094 303.574219 120.144531 C 301.515625 120.9375 299.414062 121.574219 297.300781 122.179688 Z M 249.457031 126.867188 C 250.085938 129.476562 250.988281 131.996094 251.546875 134.625 C 251.5625 134.679688 251.589844 134.710938 251.605469 134.753906 C 251.183594 135.011719 250.753906 135.265625 250.328125 135.507812 C 250.148438 135.367188 249.90625 135.308594 249.613281 135.402344 C 247.058594 136.210938 244.367188 136.144531 241.820312 136.882812 C 243.835938 132.675781 245.695312 128.394531 247.386719 124.046875 C 247.671875 123.316406 247.945312 122.585938 248.210938 121.84375 C 248.78125 123.480469 249.050781 125.183594 249.457031 126.867188 Z M 266.75 105.621094 C 256.480469 103.542969 252.320312 113.054688 249.378906 121.03125 C 249.351562 120.953125 249.328125 120.878906 249.296875 120.800781 C 249.1875 120.535156 248.972656 120.398438 248.75 120.351562 C 249.941406 116.984375 251.097656 113.609375 252.777344 110.421875 C 258.414062 99.6875 270.535156 98.777344 281.335938 98.304688 C 281.425781 98.304688 281.5 98.277344 281.570312 98.25 C 293.691406 99.199219 294.585938 113.246094 295.960938 122.558594 C 294.992188 122.832031 294.023438 123.105469 293.050781 123.386719 C 289.007812 124.5625 285.214844 126.261719 280.976562 126.648438 C 280.953125 126.335938 280.914062 126.015625 280.851562 125.671875 C 280.714844 124.941406 280.429688 124.285156 280.035156 123.695312 C 279.558594 114.890625 276.175781 107.53125 266.75 105.621094 Z M 256.730469 132.160156 C 258.507812 129.183594 254.84375 125.183594 257.417969 122.761719 C 257.515625 122.667969 257.582031 122.574219 257.625 122.472656 C 257.660156 122.46875 257.695312 122.46875 257.730469 122.460938 C 263.515625 121.265625 275.917969 118.175781 279.019531 125.621094 C 280.226562 128.519531 277.496094 130.636719 275.09375 131.453125 C 271.382812 132.710938 267.191406 131.613281 263.359375 132.265625 C 262.867188 132.351562 262.6875 132.730469 262.738281 133.109375 C 262.589844 133.207031 262.46875 133.359375 262.402344 133.570312 C 261.214844 137.390625 258.703125 140.160156 255.496094 142.449219 C 255.464844 142.472656 255.441406 142.496094 255.414062 142.519531 C 253.964844 142.136719 252.496094 141.761719 251.148438 141.089844 C 250.535156 140.792969 249.921875 140.410156 249.570312 139.8125 C 249.171875 139.148438 249.875 138.347656 250.285156 137.898438 C 250.429688 137.738281 250.5 137.5625 250.515625 137.390625 C 250.554688 137.375 250.589844 137.359375 250.628906 137.339844 C 253 135.976562 255.296875 134.550781 256.730469 132.160156 Z M 273.984375 119.792969 C 268.683594 118.1875 262.488281 119.707031 257.269531 120.785156 C 256.941406 120.851562 256.75 121.054688 256.679688 121.292969 C 256.511719 121.3125 256.34375 121.382812 256.1875 121.53125 C 254.507812 123.109375 254.546875 124.859375 255.050781 127.003906 C 255.605469 129.367188 255.769531 131.003906 254.003906 132.898438 C 253.648438 133.28125 253.242188 133.613281 252.816406 133.933594 C 252.324219 131.691406 251.691406 129.492188 251.035156 127.296875 C 250.601562 125.832031 250.347656 124.328125 249.964844 122.855469 C 250.125 122.785156 250.265625 122.652344 250.339844 122.449219 C 253.300781 114.3125 256.851562 105.035156 267.292969 107.148438 C 268.195312 107.332031 269.019531 107.585938 269.789062 107.894531 C 269.820312 108.070312 269.910156 108.234375 270.082031 108.363281 C 273.875 111.132812 274.453125 115.453125 273.984375 119.792969 Z M 273.878906 110.566406 C 276.769531 113.449219 278.078125 117.660156 278.519531 122.074219 C 277.550781 121.300781 276.417969 120.710938 275.320312 120.265625 C 275.753906 116.765625 275.503906 113.375 273.878906 110.566406 Z M 241.710938 138.714844 C 243.851562 137.894531 246.191406 137.882812 248.441406 137.46875 C 247.492188 138.953125 247.503906 140.613281 249.128906 141.871094 C 250.796875 143.167969 253 143.679688 255.007812 144.210938 C 255.296875 144.289062 255.539062 144.222656 255.722656 144.082031 C 255.921875 144.140625 256.144531 144.113281 256.371094 143.949219 C 259.960938 141.390625 262.75 138.304688 264.078125 134.035156 C 264.09375 133.988281 264.101562 133.945312 264.105469 133.902344 C 268.839844 133.226562 279.726562 134.632812 280.894531 128.402344 C 284.503906 128.089844 287.890625 126.984375 291.292969 125.792969 C 295.550781 124.304688 299.976562 123.402344 304.1875 121.765625 C 304.261719 121.738281 304.320312 121.695312 304.378906 121.65625 C 307.324219 124.097656 309.933594 126.828125 311.324219 130.46875 C 312.941406 134.734375 311.707031 139.285156 310.375 143.425781 C 307.410156 152.652344 302.058594 161.1875 295.761719 168.488281 C 282.96875 183.308594 263.769531 190.699219 245.929688 197.503906 C 243.84375 187.570312 246.976562 177.992188 247.835938 168.132812 C 248.761719 157.457031 245.660156 148.425781 241.710938 138.714844 Z M 265.6875 196.171875 C 250.925781 201.523438 236.15625 206.609375 221.785156 212.953125 C 224.460938 203.550781 225.582031 193.179688 221.875 183.941406 C 218.460938 175.425781 208.914062 167.953125 199.378906 169.289062 C 189.632812 170.664062 182.917969 179.308594 178.214844 187.230469 C 176.445312 190.203125 174.90625 193.296875 173.53125 196.464844 C 173.488281 196.46875 173.445312 196.46875 173.402344 196.476562 C 171.511719 196.792969 169.617188 196.765625 167.714844 196.617188 C 167.523438 196.601562 167.371094 196.644531 167.246094 196.714844 C 163.472656 194.871094 159.878906 192.707031 156.320312 190.472656 C 153.039062 188.410156 149.476562 187.175781 145.898438 185.800781 C 150.128906 184.222656 154.035156 181.808594 157.855469 179.453125 C 161.660156 177.101562 164.007812 174.277344 163.886719 169.648438 C 163.878906 169.292969 163.695312 169.050781 163.457031 168.921875 C 163.363281 168.804688 163.238281 168.703125 163.074219 168.632812 C 162.632812 168.457031 162.191406 168.304688 161.753906 168.160156 C 165.867188 164.429688 170.890625 162.363281 176.101562 160.605469 C 181.621094 158.746094 187.136719 156.921875 192.632812 155 C 204.050781 151.011719 215.542969 147.128906 227.09375 143.535156 C 227.195312 143.539062 227.296875 143.546875 227.394531 143.546875 C 227.710938 143.554688 227.929688 143.421875 228.070312 143.230469 C 228.46875 143.105469 228.867188 142.976562 229.265625 142.851562 C 229.335938 142.941406 229.4375 143.019531 229.570312 143.078125 C 231.207031 143.84375 232.898438 144.027344 234.664062 144.0625 C 234.855469 144.222656 235.128906 144.269531 235.40625 144.089844 C 235.417969 144.082031 235.429688 144.074219 235.445312 144.0625 C 235.835938 144.046875 236.082031 143.816406 236.183594 143.519531 C 237.671875 142.332031 238.824219 140.796875 240.132812 139.410156 C 242.003906 143.964844 243.90625 148.488281 245.160156 153.257812 C 246.539062 158.488281 246.453125 163.976562 245.992188 169.316406 C 245.714844 172.492188 245.214844 175.605469 244.734375 178.699219 C 241.742188 180.15625 238.0625 180.707031 234.914062 182.035156 C 234.699219 179.339844 232.859375 178.3125 230.25 179.484375 C 226.035156 181.382812 226.640625 187.613281 226.484375 191.339844 C 226.339844 194.757812 226.640625 199.628906 229.714844 201.859375 C 233.070312 204.292969 235.871094 202.800781 236.652344 198.890625 C 236.683594 198.726562 236.652344 198.589844 236.601562 198.46875 C 239.0625 197.628906 241.453125 196.597656 243.835938 195.53125 C 243.957031 196.433594 244.105469 197.332031 244.304688 198.238281 C 244.386719 198.601562 244.621094 198.789062 244.890625 198.84375 C 245.007812 199.257812 245.378906 199.566406 245.898438 199.367188 C 265.5 191.894531 285.621094 183.804688 299.195312 167.082031 C 305.445312 159.382812 310.300781 150.378906 312.976562 140.820312 C 315.363281 132.289062 311.890625 125.558594 305.316406 120.175781 C 304.246094 106.695312 292.871094 92.847656 278.554688 92.914062 C 278.480469 92.914062 278.410156 92.921875 278.351562 92.933594 C 278.257812 92.910156 278.152344 92.898438 278.03125 92.914062 C 277.976562 92.921875 277.925781 92.925781 277.871094 92.929688 C 277.8125 92.921875 277.75 92.914062 277.683594 92.914062 C 277.609375 92.914062 277.542969 92.921875 277.476562 92.933594 C 277.472656 92.9375 277.472656 92.9375 277.464844 92.941406 C 277.402344 92.953125 277.34375 92.976562 277.292969 93 C 267.089844 94.226562 257.3125 96.484375 250.871094 105.195312 C 247.277344 110.0625 245.253906 116.03125 243.285156 121.683594 C 240.835938 128.71875 237.964844 135.554688 234.863281 142.328125 C 233.441406 142.316406 232.03125 142.230469 230.707031 141.683594 C 230.714844 141.667969 230.726562 141.65625 230.734375 141.640625 C 235.234375 131.9375 240.121094 122.414062 243.941406 112.410156 C 245.226562 109.054688 246.714844 105.515625 247.535156 102.007812 C 248.011719 99.96875 247.800781 97.699219 245.742188 96.742188 C 245.632812 96.511719 245.417969 96.324219 245.074219 96.253906 C 233.40625 93.976562 221.390625 92.546875 209.59375 91.042969 C 203.085938 90.21875 196.578125 89.667969 190.109375 88.523438 C 184.871094 87.59375 179.660156 86.484375 174.433594 85.480469 C 187.589844 80.75 201.738281 78.28125 215.625 78.0625 C 232.09375 77.808594 248.40625 80.980469 264.535156 83.882812 C 271.222656 85.089844 277.871094 86.570312 284.101562 89.347656 C 290.363281 92.140625 295.417969 96.652344 300.660156 100.953125 C 304.882812 104.410156 309.289062 107.570312 314.394531 109.578125 C 319.949219 111.761719 325.316406 111.140625 331.03125 110.273438 C 331.128906 110.261719 331.203125 110.226562 331.277344 110.199219 C 331.4375 110.28125 331.636719 110.320312 331.855469 110.28125 C 332.253906 110.210938 332.660156 110.140625 333.074219 110.074219 C 333.21875 110.230469 333.425781 110.332031 333.714844 110.3125 C 340.652344 109.875 347.371094 111.601562 349.503906 118.984375 C 351.851562 127.089844 348.855469 134.207031 343.597656 140.183594 C 342.449219 137.46875 340.257812 135.246094 336.523438 133.949219 C 330.765625 131.957031 325.882812 136.707031 322.847656 140.984375 C 318.179688 147.566406 315.5 155.6875 313.257812 163.359375 C 311.449219 169.542969 309.890625 175.933594 309.179688 182.351562 C 309.175781 182.351562 309.179688 182.355469 309.179688 182.359375 C 309.074219 182.578125 309.039062 182.839844 309.101562 183.09375 C 309.105469 183.121094 309.113281 183.152344 309.121094 183.183594 C 294.386719 186.964844 280.015625 190.972656 265.6875 196.171875 Z M 199.324219 178.066406 C 186.261719 180.914062 177.636719 197.960938 174.867188 209.542969 C 172.011719 221.496094 171.523438 240.566406 184.304688 246.292969 C 182.257812 245.867188 180.21875 245.199219 178.160156 244.394531 C 173.617188 242.636719 169.160156 241.089844 165.785156 237.539062 C 166 237.496094 166.210938 237.457031 166.425781 237.414062 C 166.855469 237.324219 167.082031 237.050781 167.152344 236.734375 C 167.457031 236.511719 167.640625 236.140625 167.503906 235.667969 C 166.625 232.660156 165.472656 229.636719 166.226562 226.476562 C 166.269531 226.296875 166.265625 226.136719 166.234375 225.988281 C 169.410156 214.460938 172.523438 202.710938 177.96875 192.011719 C 180.097656 187.824219 182.722656 183.40625 186 179.6875 C 186.117188 179.695312 186.246094 179.6875 186.378906 179.644531 C 190.371094 178.433594 194.910156 177.769531 199.324219 178.066406 Z M 217.851562 193.367188 C 219.949219 200.425781 218.832031 207.824219 216.738281 214.71875 C 216.589844 214.839844 216.476562 215.011719 216.414062 215.25 C 213.089844 228.417969 207.691406 245.210938 191.285156 245.734375 C 183.511719 245.984375 178.285156 239.601562 176.28125 232.773438 C 174.164062 225.535156 175.28125 217.316406 176.882812 210.097656 C 179.566406 198.015625 188.527344 181.003906 202.4375 179.722656 C 210.664062 178.960938 215.792969 186.4375 217.851562 193.367188 Z M 111.882812 230.492188 C 111.921875 230.421875 111.9375 230.351562 111.953125 230.28125 C 115.222656 230.640625 118.496094 231.007812 121.777344 231.269531 C 124.992188 231.53125 128.265625 231.289062 131.464844 231.59375 C 131.492188 232.769531 131.269531 233.933594 130.828125 235.023438 C 124.246094 235.308594 118.113281 234.601562 111.582031 233.53125 C 111.515625 233.519531 111.460938 233.535156 111.402344 233.539062 C 110.738281 232.6875 111.410156 231.300781 111.882812 230.492188 Z M 148.816406 238.164062 C 142.554688 239.019531 136.269531 240.230469 129.957031 240.597656 C 117.988281 241.289062 106.015625 238.585938 94.351562 236.269531 C 88.703125 235.148438 82.980469 234.34375 77.433594 232.796875 C 71.824219 231.234375 66.414062 229.003906 60.949219 227.027344 C 49.261719 222.808594 37.671875 218.675781 26.199219 213.878906 C 26.160156 213.855469 26.125 213.832031 26.082031 213.8125 C 23.089844 212.492188 20.597656 210.296875 21.425781 206.683594 C 21.519531 206.277344 21.640625 205.894531 21.785156 205.523438 C 21.789062 205.519531 21.792969 205.511719 21.800781 205.507812 C 21.832031 205.574219 21.867188 205.636719 21.929688 205.695312 C 23.9375 207.570312 26.050781 209.320312 28.449219 210.675781 C 28.523438 210.714844 28.59375 210.730469 28.664062 210.746094 C 28.96875 210.949219 29.40625 210.953125 29.636719 210.542969 C 30.15625 209.609375 30.59375 208.625 30.867188 207.589844 C 30.886719 207.507812 30.882812 207.433594 30.878906 207.363281 C 43.386719 213.542969 55.691406 219.738281 69.292969 223.167969 C 76.402344 224.960938 83.679688 226.019531 90.910156 227.183594 C 97.476562 228.242188 103.960938 229.832031 110.644531 229.851562 C 109.828125 231.285156 109.132812 233.410156 110.554688 234.695312 C 110.75 234.871094 110.964844 234.902344 111.164062 234.855469 C 111.183594 234.859375 111.191406 234.871094 111.210938 234.875 C 117.960938 235.976562 124.28125 236.734375 131.117188 236.40625 C 131.25 236.402344 131.359375 236.355469 131.453125 236.300781 C 131.652344 236.292969 131.839844 236.195312 131.949219 235.945312 C 132.589844 234.476562 132.957031 232.910156 132.855469 231.300781 C 132.84375 231.128906 132.773438 231 132.683594 230.894531 C 132.632812 230.59375 132.425781 230.304688 132.042969 230.257812 C 129.078125 229.90625 126.03125 230.140625 123.046875 229.96875 C 119.277344 229.753906 115.53125 229.285156 111.78125 228.871094 C 111.691406 228.640625 111.488281 228.457031 111.164062 228.460938 C 104.015625 228.53125 97.023438 226.765625 89.996094 225.632812 C 83.1875 224.539062 76.375 223.441406 69.664062 221.824219 C 56.011719 218.539062 43.632812 212.113281 31.125 205.933594 C 30.910156 205.828125 30.703125 205.84375 30.527344 205.921875 C 28.023438 204.707031 26.21875 202.488281 23.78125 201.167969 C 23.90625 200.796875 24.015625 200.410156 24.085938 200.003906 C 26.195312 202.277344 29.050781 203.53125 31.980469 204.757812 C 32.082031 204.832031 32.175781 204.914062 32.28125 204.992188 C 32.460938 205.125 32.644531 205.148438 32.800781 205.101562 C 34.265625 205.714844 35.730469 206.339844 37.121094 207.113281 C 37.480469 207.3125 37.824219 207.234375 38.070312 207.035156 C 38.609375 207.101562 39.25 206.660156 39.097656 205.957031 C 38.148438 201.585938 37.242188 197.03125 34.484375 193.394531 C 31.832031 189.898438 26.921875 187.976562 23.035156 186.296875 C 22.808594 186.199219 22.589844 186.199219 22.398438 186.261719 C 22.363281 184.722656 22.398438 183.175781 22.539062 181.617188 C 22.585938 181.0625 22.660156 180.511719 22.746094 179.964844 C 25.652344 181.964844 28.046875 184.523438 31.414062 185.800781 C 31.753906 185.929688 32.03125 185.835938 32.214844 185.640625 C 32.570312 185.660156 32.917969 185.476562 33.007812 185.015625 C 34.257812 178.613281 32.042969 173.300781 27.210938 169.035156 C 27.046875 168.882812 26.859375 168.816406 26.679688 168.808594 C 27.484375 167.296875 28.359375 165.828125 29.273438 164.414062 C 29.871094 163.492188 30.503906 162.597656 31.160156 161.714844 C 31.683594 165.316406 35.984375 168.296875 39.648438 168.429688 C 39.695312 168.433594 39.738281 168.425781 39.777344 168.421875 C 39.847656 168.433594 39.917969 168.4375 39.996094 168.429688 C 41.613281 168.292969 43.003906 167.679688 44.257812 166.816406 C 44.308594 166.855469 44.363281 166.886719 44.429688 166.917969 C 55.773438 172.183594 67.394531 176.75 79.691406 179.226562 C 86.304688 180.554688 93.058594 181.15625 99.71875 182.203125 C 106.105469 183.207031 112.472656 183.507812 118.886719 184.179688 C 118.851562 184.410156 118.898438 184.65625 119.074219 184.878906 C 121.273438 187.699219 125.21875 187.992188 128.527344 188.097656 C 132.84375 188.234375 137.445312 187.9375 141.679688 187.039062 C 141.714844 187.039062 141.75 187.046875 141.789062 187.046875 C 141.984375 187.046875 142.140625 186.992188 142.269531 186.90625 C 142.671875 186.8125 143.070312 186.707031 143.46875 186.597656 C 143.558594 186.695312 143.671875 186.785156 143.820312 186.839844 C 147.777344 188.4375 151.824219 189.648438 155.445312 191.976562 C 158.984375 194.25 162.625 196.390625 166.40625 198.238281 C 166.726562 198.394531 167.03125 198.347656 167.269531 198.199219 C 167.390625 198.285156 167.535156 198.34375 167.714844 198.355469 C 169.410156 198.492188 171.082031 198.488281 172.761719 198.296875 C 169.15625 207.074219 166.710938 216.390625 164.214844 225.457031 C 164.160156 225.648438 164.164062 225.824219 164.203125 225.976562 C 163.433594 229.28125 164.351562 232.363281 165.28125 235.511719 C 159.824219 236.605469 154.328125 237.414062 148.816406 238.164062 Z M 23.25 202.472656 C 25.535156 203.765625 27.28125 205.8125 29.625 207.019531 C 29.585938 207.078125 29.546875 207.140625 29.523438 207.21875 C 29.339844 207.917969 29.078125 208.582031 28.757812 209.226562 C 26.625 207.96875 24.726562 206.402344 22.914062 204.710938 C 22.6875 204.5 22.429688 204.484375 22.207031 204.570312 C 22.542969 203.863281 22.914062 203.175781 23.25 202.472656 Z M 25.695312 189.410156 C 28.125 190.589844 30.460938 191.953125 32.476562 193.777344 C 35.457031 196.484375 36.351562 201.226562 37.15625 205.171875 C 35.453125 204.316406 33.636719 203.632812 31.875 202.890625 C 27.90625 199.417969 26.285156 194.65625 25.695312 189.410156 Z M 28.507812 201.269531 C 26.4375 200.066406 24.65625 198.496094 23.542969 196.042969 C 23.011719 193.351562 22.625 190.652344 22.460938 187.933594 C 23.101562 188.210938 23.742188 188.496094 24.382812 188.789062 C 24.308594 188.894531 24.257812 189.023438 24.277344 189.195312 C 24.765625 193.734375 25.949219 197.859375 28.507812 201.269531 Z M 28.132812 172.449219 C 30.859375 175.683594 32.128906 179.453125 31.429688 183.921875 C 29.683594 183.171875 28.1875 182.027344 26.714844 180.84375 C 26.730469 177.925781 26.992188 175.128906 28.132812 172.449219 Z M 25.957031 170.230469 C 25.964844 170.242188 25.972656 170.253906 25.984375 170.265625 C 26.378906 170.609375 26.75 170.96875 27.105469 171.332031 C 25.847656 174.042969 25.433594 176.816406 25.34375 179.742188 C 24.707031 179.234375 24.058594 178.742188 23.382812 178.292969 C 23.28125 178.222656 23.179688 178.183594 23.082031 178.164062 C 23.691406 175.421875 24.710938 172.769531 25.957031 170.230469 Z M 33.617188 158.777344 C 33.679688 158.679688 33.714844 158.585938 33.742188 158.492188 C 37.445312 154.207031 41.8125 150.449219 46.519531 147.277344 C 46.640625 147.34375 46.785156 147.382812 46.957031 147.375 C 49.957031 147.261719 61.140625 147.28125 61.726562 151.4375 C 57.757812 153.058594 54.15625 155.105469 50.839844 157.851562 C 48.546875 159.75 46.5625 162.972656 44.019531 164.964844 C 43.738281 165.007812 43.542969 165.175781 43.433594 165.390625 C 42.402344 166.09375 41.277344 166.582031 39.996094 166.6875 C 39.945312 166.695312 39.894531 166.707031 39.847656 166.714844 C 39.785156 166.699219 39.722656 166.691406 39.648438 166.6875 C 35.988281 166.554688 30.972656 162.664062 33.617188 158.777344 Z M 162.136719 170.144531 C 162.039062 174.792969 158.820312 176.757812 155.148438 179.101562 C 150.90625 181.808594 146.398438 184.023438 141.515625 185.300781 C 137.925781 186.234375 133.957031 186.257812 130.253906 186.355469 C 127.117188 186.441406 122.964844 186.488281 120.652344 184.042969 C 120.941406 183.957031 121.121094 183.738281 121.191406 183.480469 C 126.15625 178.558594 130.804688 173.238281 136.96875 169.773438 C 141.101562 167.453125 145.523438 167.617188 150.058594 168.125 C 154.171875 168.585938 158.238281 168.6875 162.136719 170.144531 Z M 53.910156 142.898438 C 64.371094 137.546875 76.210938 135.175781 87.519531 132.304688 C 99.199219 129.339844 110.878906 125.917969 122.773438 123.90625 C 122.914062 124.148438 123.089844 124.335938 123.300781 124.488281 C 123.441406 124.644531 123.617188 124.75 123.8125 124.777344 C 124.28125 124.96875 124.824219 125.027344 125.347656 125.015625 C 142.210938 128.8125 158.351562 134.980469 175.425781 137.96875 C 183.816406 139.4375 192.269531 140.589844 200.75 141.429688 C 205.136719 141.863281 209.539062 142.167969 213.941406 142.386719 C 216.761719 142.527344 219.558594 142.917969 222.363281 143.207031 C 211.382812 146.691406 200.464844 150.414062 189.605469 154.222656 C 179.765625 157.675781 168.171875 159.824219 160.3125 167.121094 C 160.125 167.292969 160.050781 167.488281 160.046875 167.683594 C 157.167969 167 154.261719 166.859375 151.230469 166.523438 C 146.746094 166.019531 142.570312 165.683594 138.25 167.242188 C 130.765625 169.945312 125.175781 177.089844 119.679688 182.523438 C 113.15625 181.800781 106.671875 181.609375 100.183594 180.527344 C 93.96875 179.488281 87.695312 178.886719 81.492188 177.800781 C 69.03125 175.617188 57.183594 170.90625 45.753906 165.621094 C 46.910156 164.578125 47.960938 163.378906 48.980469 162.230469 C 52.765625 157.953125 57.382812 155.011719 62.671875 152.914062 C 63.019531 152.777344 63.195312 152.496094 63.242188 152.203125 C 63.410156 152.066406 63.511719 151.847656 63.484375 151.550781 C 63.019531 146.40625 54.269531 145.617188 49.125 145.597656 C 50.695312 144.636719 52.289062 143.730469 53.910156 142.898438 Z M 143.992188 104.796875 C 151.148438 98.328125 158.796875 92.429688 167.378906 87.984375 C 167.480469 88.019531 167.589844 88.039062 167.714844 88.039062 C 167.929688 88.039062 168.109375 87.980469 168.253906 87.894531 C 169.09375 87.539062 169.941406 87.191406 170.789062 86.851562 C 170.878906 86.898438 170.972656 86.9375 171.089844 86.960938 C 183.074219 89.152344 194.851562 91.441406 206.964844 92.816406 C 213.511719 93.558594 220.035156 94.574219 226.546875 95.589844 C 232.429688 96.507812 238.386719 97.09375 244.230469 98.214844 C 244.324219 98.332031 244.445312 98.433594 244.617188 98.511719 C 247.113281 99.609375 244.636719 104.445312 243.953125 106.167969 C 242.601562 109.613281 241.472656 113.128906 240.0625 116.554688 C 236.699219 124.71875 232.644531 132.582031 228.929688 140.585938 C 228.839844 140.785156 228.8125 140.984375 228.835938 141.164062 C 228.171875 141.371094 227.511719 141.585938 226.851562 141.789062 C 219.078125 141.609375 211.148438 140.59375 203.398438 139.933594 C 195.277344 139.242188 187.191406 138.15625 179.144531 136.835938 C 186.34375 136.9375 193.597656 136.5 200.394531 134.300781 C 200.554688 134.246094 200.660156 134.148438 200.742188 134.039062 C 201.371094 134.164062 202.003906 134.285156 202.636719 134.429688 C 209.554688 136.023438 216.4375 138.054688 222.78125 141.320312 C 223.578125 141.730469 224.285156 140.53125 223.484375 140.117188 C 217.4375 137.007812 210.796875 134.78125 204.164062 133.34375 C 196.1875 131.617188 188.449219 131.085938 180.328125 130.496094 C 179.433594 130.433594 179.441406 131.824219 180.328125 131.886719 C 186.300781 132.320312 192.160156 132.609375 198.015625 133.550781 C 189.242188 135.917969 179.726562 135.585938 170.71875 135.152344 C 170.582031 135.144531 170.480469 135.175781 170.386719 135.222656 C 160.945312 133.222656 151.742188 130.40625 142.488281 127.734375 C 145.039062 127.660156 147.582031 127.425781 150.097656 127.105469 C 150.613281 127.039062 150.824219 126.527344 150.730469 126.144531 C 157.96875 126.90625 165.179688 128.277344 171.921875 130.472656 C 172.777344 130.75 173.144531 129.40625 172.292969 129.132812 C 160.964844 125.449219 148.429688 124.050781 136.523438 123.972656 C 135.628906 123.964844 135.628906 125.355469 136.523438 125.363281 C 140.421875 125.390625 144.40625 125.566406 148.390625 125.914062 C 144.664062 126.324219 140.886719 126.515625 137.152344 126.222656 C 133.3125 125.160156 129.449219 124.148438 125.546875 123.28125 C 125.546875 123.277344 125.542969 123.277344 125.539062 123.277344 C 131.265625 116.664062 137.492188 110.671875 143.992188 104.796875 Z M 127.789062 109.703125 C 125.835938 107.402344 120.429688 103.511719 123.261719 100.148438 C 124.917969 98.171875 128.902344 100.589844 130.621094 101.859375 C 130.464844 101.859375 130.304688 101.910156 130.160156 102.050781 C 127.246094 104.871094 128.328125 108.683594 129.347656 112.269531 C 128.96875 111.363281 128.464844 110.5 127.789062 109.703125 Z M 131.328125 102.445312 C 134.128906 105.007812 133.605469 108.828125 132.996094 112.332031 C 132.972656 112.472656 132.996094 112.59375 133.035156 112.707031 C 132.464844 113.277344 131.90625 113.859375 131.347656 114.433594 C 130.464844 110.730469 128.078125 106.003906 131.144531 103.03125 C 131.332031 102.851562 131.371094 102.640625 131.328125 102.445312 Z M 312.777344 92.683594 C 317.652344 93.464844 322.523438 94.296875 327.394531 95.144531 C 331.191406 95.804688 334.878906 96.9375 338.683594 97.539062 C 338.558594 97.71875 338.4375 97.898438 338.320312 98.082031 C 338.257812 98.117188 338.199219 98.160156 338.140625 98.214844 C 337.863281 98.480469 337.582031 98.738281 337.300781 99 C 329.984375 96.183594 321.828125 94.667969 314.074219 93.667969 C 306.6875 92.714844 298.84375 93.128906 291.597656 91.230469 C 290.390625 90.457031 289.160156 89.742188 287.914062 89.09375 C 296.222656 90.140625 304.503906 91.355469 312.777344 92.683594 Z M 325.304688 106.363281 C 327.113281 106.21875 328.898438 105.945312 330.625 105.445312 C 332.523438 104.894531 334.203125 103.859375 335.757812 102.644531 C 334.832031 104.269531 333.800781 105.808594 332.355469 106.984375 C 329.984375 106.921875 327.636719 106.6875 325.304688 106.363281 Z M 328.652344 108.511719 C 324.589844 109.007812 320.90625 109.015625 317.230469 108.121094 C 317.097656 107.550781 316.871094 107.027344 316.582031 106.535156 C 320.582031 107.390625 324.59375 108.140625 328.652344 108.511719 Z M 315.214844 107.539062 C 313.773438 107.058594 312.320312 106.433594 310.832031 105.625 C 307.339844 103.726562 304.1875 101.25 301.113281 98.6875 C 303.3125 99.796875 305.460938 100.984375 307.675781 102.09375 C 309.898438 103.210938 313.933594 104.972656 315.214844 107.539062 Z M 315.117188 104.765625 C 313.949219 103.675781 312.503906 102.796875 311.226562 102.03125 C 306.679688 99.300781 301.804688 96.816406 296.882812 94.855469 C 296.730469 94.800781 296.597656 94.785156 296.476562 94.800781 C 296.238281 94.609375 296.003906 94.410156 295.769531 94.21875 C 295.363281 93.886719 294.949219 93.585938 294.535156 93.273438 C 299.746094 94.152344 305.140625 94.132812 310.363281 94.644531 C 318.921875 95.488281 327.996094 97.046875 336.117188 100.054688 C 334.085938 101.800781 331.945312 103.25 329.242188 104.035156 C 325.304688 105.175781 320.609375 104.761719 316.527344 104.746094 C 316.300781 104.699219 316.074219 104.652344 315.847656 104.601562 C 315.550781 104.539062 315.300781 104.617188 315.117188 104.765625 Z M 340.550781 97.785156 C 341.105469 97.816406 341.359375 97.375 341.324219 96.925781 C 342.214844 96.046875 343.304688 95.355469 344.734375 94.96875 C 344.796875 94.953125 344.863281 94.925781 344.917969 94.898438 C 347.273438 95.832031 345.238281 102.066406 344.445312 103.609375 C 344.375 103.75 344.34375 103.886719 344.34375 104.023438 C 341.878906 106.785156 337.585938 107.589844 333.804688 108.203125 C 333.824219 108.148438 333.835938 108.085938 333.847656 108.027344 C 335.359375 106.722656 336.488281 105.0625 337.46875 103.1875 C 338.457031 101.296875 339.304688 99.347656 340.550781 97.785156 Z M 352.070312 129.390625 C 351.976562 129.1875 351.84375 129.050781 351.695312 128.96875 C 352.339844 125.207031 351.949219 121.164062 350.90625 117.5625 C 349.296875 112 344.539062 109.53125 339.375 108.78125 C 341.792969 108.074219 344.046875 107.011719 345.636719 105.1875 C 345.792969 105.007812 345.855469 104.816406 345.859375 104.625 C 345.890625 104.582031 345.921875 104.539062 345.945312 104.488281 C 347.261719 101.925781 349.625 93.914062 345.078125 93.117188 C 344.804688 93.070312 344.574219 93.140625 344.390625 93.273438 C 344.347656 93.277344 344.3125 93.28125 344.269531 93.292969 C 342.402344 93.796875 341.03125 94.761719 339.917969 95.96875 C 334.964844 95.363281 330.128906 93.855469 325.210938 93.007812 C 320.332031 92.164062 315.453125 91.355469 310.566406 90.578125 C 301.308594 89.101562 292.023438 87.800781 282.710938 86.710938 C 275.148438 83.714844 267.015625 82.246094 258.746094 80.675781 C 243.316406 77.746094 227.460938 75.503906 211.726562 76.078125 C 196.695312 76.628906 181.316406 80.128906 167.472656 85.976562 C 167.34375 86.003906 167.230469 86.058594 167.136719 86.121094 C 167.058594 86.160156 166.996094 86.203125 166.9375 86.253906 C 158.75 90.425781 151.457031 95.9375 144.554688 101.972656 C 141.144531 104.953125 137.8125 108.007812 134.589844 111.160156 C 135.089844 107.84375 135.195312 104.449219 132.726562 101.84375 C 130.703125 99.707031 127.308594 97.890625 124.308594 98.207031 C 121.582031 98.492188 120.851562 101.394531 121.324219 103.679688 C 121.707031 105.523438 123.441406 107.140625 124.6875 108.410156 C 127.210938 110.988281 128.75 113.308594 128.898438 116.980469 C 127.625 118.339844 126.363281 119.714844 125.132812 121.121094 C 125.03125 121.121094 124.925781 121.144531 124.820312 121.195312 C 124.699219 121.257812 124.578125 121.300781 124.453125 121.347656 C 124.058594 121.414062 123.671875 121.527344 123.289062 121.652344 C 123.253906 121.664062 123.226562 121.691406 123.191406 121.707031 C 123.035156 121.746094 122.882812 121.78125 122.730469 121.820312 C 122.671875 121.820312 122.609375 121.824219 122.542969 121.835938 C 109.660156 123.984375 97.007812 127.742188 84.359375 130.953125 C 72.488281 133.96875 60.511719 136.765625 49.722656 142.769531 C 40.234375 148.046875 31.945312 156.058594 26.253906 165.289062 C 19.675781 175.949219 19.382812 187.355469 22.101562 199.269531 C 22.089844 199.3125 22.078125 199.355469 22.074219 199.402344 C 21.800781 202.894531 18.4375 205.515625 19.238281 209.21875 C 19.933594 212.421875 22.109375 214.328125 25.027344 215.617188 C 25.109375 215.652344 25.183594 215.671875 25.261719 215.691406 C 25.332031 215.746094 25.414062 215.796875 25.507812 215.835938 C 37.023438 220.65625 48.636719 224.875 60.394531 229.042969 C 65.882812 230.988281 71.28125 233.160156 76.875 234.8125 C 82.78125 236.554688 88.984375 237.328125 95.019531 238.523438 C 106.535156 240.808594 118.152344 243.144531 129.957031 242.6875 C 135.582031 242.464844 141.175781 241.289062 146.738281 240.53125 C 152.335938 239.773438 157.929688 239.011719 163.484375 237.980469 C 163.523438 238.09375 163.582031 238.199219 163.671875 238.304688 C 167.15625 242.425781 171.703125 244 176.5625 245.984375 C 182.558594 248.4375 188.5 249.929688 194.84375 247.96875 C 195.1875 247.863281 195.398438 247.640625 195.5 247.378906 C 200.613281 246.1875 205.320312 242.882812 208.703125 239.039062 C 214.351562 232.621094 216.339844 224.089844 218.367188 216.039062 C 218.492188 215.925781 218.597656 215.773438 218.660156 215.570312 C 221.089844 207.695312 221.921875 199.730469 219.546875 191.730469 C 218.375 187.796875 216.113281 183.890625 212.933594 181.195312 C 212.910156 180.90625 212.78125 180.617188 212.496094 180.402344 C 205.953125 175.503906 196.6875 175.105469 188.792969 176.859375 C 191.003906 174.875 193.46875 173.242188 196.242188 172.179688 C 206.164062 168.375 216.59375 176.351562 220.175781 185.285156 C 223.847656 194.4375 222.03125 205.214844 219.199219 214.320312 C 218.859375 215.417969 220.261719 215.96875 220.933594 215.328125 C 221.15625 215.386719 221.40625 215.382812 221.660156 215.265625 C 236.242188 208.753906 251.25 203.621094 266.242188 198.183594 C 277.101562 194.246094 287.980469 190.988281 299.023438 187.996094 C 299.058594 188.066406 299.105469 188.128906 299.160156 188.191406 C 302.066406 191.539062 304.972656 194.152344 309.25 195.539062 C 313.988281 197.074219 319.90625 198.285156 324.769531 196.695312 C 325.039062 196.609375 325.222656 196.445312 325.339844 196.25 C 330.878906 194.777344 334.816406 187.609375 336.839844 182.839844 C 338.738281 178.359375 340.234375 173.75 341.105469 169.070312 C 341.222656 169.050781 341.34375 169.011719 341.457031 168.921875 C 344.78125 166.183594 347.769531 163.023438 347.6875 158.453125 C 347.6875 158.390625 347.667969 158.34375 347.652344 158.289062 C 353.320312 149.679688 356.605469 138.863281 352.070312 129.390625 " fill-opacity="1" fill-rule="nonzero"/></g><path fill="#ffffff" d="M 336.582031 165.742188 C 335.339844 172.632812 334.84375 180.859375 328.53125 185.042969 C 323.511719 188.367188 319.148438 183.617188 317.675781 179.128906 C 316.058594 174.207031 317.140625 167.898438 318.066406 162.972656 C 319.164062 157.140625 321.789062 147.617188 329.101562 147.539062 C 337.003906 147.460938 337.210938 160 336.460938 165.226562 C 336.433594 165.433594 336.488281 165.601562 336.582031 165.742188 Z M 330.734375 146.382812 C 321.898438 143.582031 317.992188 156.535156 316.722656 162.601562 C 315.542969 168.261719 314.792969 174.800781 316.625 180.386719 C 317.695312 183.644531 320.710938 187.441406 324.472656 187.488281 C 335.59375 187.628906 336.582031 172.710938 338.152344 164.902344 C 338.203125 164.640625 338.113281 164.429688 337.96875 164.277344 C 338.652344 157.792969 337.839844 148.640625 330.734375 146.382812 " fill-opacity="1" fill-rule="nonzero"/><path fill="#ffffff" d="M 183.957031 213.386719 C 185.65625 204.171875 190.210938 191.402344 200.550781 189.046875 C 206.296875 187.738281 210.949219 191.582031 212.648438 196.75 C 214.15625 201.320312 213.253906 205.761719 212.574219 210.351562 C 212.550781 210.507812 212.585938 210.640625 212.636719 210.757812 C 211.210938 220.785156 207.058594 230.378906 197.6875 235.378906 C 192.816406 237.976562 187.589844 236.71875 184.816406 231.957031 C 181.75 226.691406 182.914062 219.023438 183.957031 213.386719 Z M 194.648438 237.914062 C 200.578125 236.941406 205.644531 231.714844 208.734375 226.898438 C 212.203125 221.503906 213.621094 214.972656 214.289062 208.679688 C 214.300781 208.570312 214.289062 208.46875 214.253906 208.382812 C 214.859375 204.074219 215.183594 200 213.746094 195.636719 C 212.308594 191.273438 208.625 187.960938 203.964844 187.570312 C 190.699219 186.449219 184.761719 202.628906 182.613281 213.019531 C 180.730469 222.132812 180.644531 240.210938 194.648438 237.914062 " fill-opacity="1" fill-rule="nonzero"/></svg>