<svg xmlns="http://www.w3.org/2000/svg" xmlns:xlink="http://www.w3.org/1999/xlink" width="500" zoomAndPan="magnify" viewBox="0 0 375 374.999991" height="500" preserveAspectRatio="xMidYMid meet" version="1.0"><defs><clipPath id="dbd0c833c8"><path d="M 19 75.457031 L 355 75.457031 L 355 250 L 19 250 Z M 19 75.457031 " clip-rule="nonzero"/></clipPath></defs><path fill="#ffffff" d="M 107.324219 212.382812 C 107.320312 212.46875 107.304688 212.5625 107.265625 212.652344 C 106.027344 215.527344 104.898438 218.691406 105.363281 221.867188 C 105.390625 222.054688 105.339844 222.210938 105.261719 222.34375 C 115.980469 224.832031 133.925781 229.566406 132.460938 214.125 C 124.152344 213.121094 115.699219 213.007812 107.324219 212.382812 " fill-opacity="1" fill-rule="nonzero"/><path fill="#ffffff" d="M 105.929688 212.265625 C 105.3125 212.214844 104.695312 212.171875 104.082031 212.117188 C 103.015625 215.207031 102.078125 218.316406 101.671875 221.570312 C 102.378906 221.703125 103.164062 221.867188 104 222.058594 C 103.550781 218.640625 104.601562 215.386719 105.929688 212.265625 " fill-opacity="1" fill-rule="nonzero"/><path fill="#ffffff" d="M 40.375 194.589844 C 39.761719 194.4375 39.148438 194.289062 38.539062 194.136719 C 40.09375 199.683594 42.742188 204.136719 46.488281 207.648438 C 45.671875 206.164062 44.902344 204.648438 43.976562 203.207031 C 42.210938 200.457031 41.167969 197.742188 40.375 194.589844 " fill-opacity="1" fill-rule="nonzero"/><path fill="#ffffff" d="M 93.144531 208.710938 C 89.15625 207.375 84.988281 206.636719 80.980469 205.355469 C 76.324219 203.867188 71.636719 202.492188 66.914062 201.230469 C 58.617188 199.011719 50.257812 197.023438 41.917969 194.96875 C 42.675781 197.675781 43.726562 200.027344 45.179688 202.503906 C 46.703125 205.097656 47.914062 207.875 49.757812 210.269531 C 51.882812 211.738281 54.261719 213 56.921875 214.046875 C 68.046875 218.4375 79.414062 220.53125 91.277344 218.789062 C 91.28125 218.789062 91.28125 218.785156 91.285156 218.785156 C 91.289062 218.78125 91.292969 218.777344 91.292969 218.769531 C 92.742188 215.667969 93.796875 212.617188 93.117188 209.164062 C 93.085938 208.996094 93.101562 208.84375 93.144531 208.710938 " fill-opacity="1" fill-rule="nonzero"/><path fill="#ffffff" d="M 22.917969 204.839844 C 24.726562 206.535156 26.625 208.101562 28.761719 209.363281 C 29.082031 208.71875 29.34375 208.050781 29.527344 207.351562 C 29.550781 207.273438 29.589844 207.210938 29.628906 207.148438 C 27.285156 205.945312 25.539062 203.894531 23.25 202.601562 C 22.914062 203.304688 22.542969 203.992188 22.207031 204.703125 C 22.429688 204.613281 22.691406 204.628906 22.917969 204.839844 " fill-opacity="1" fill-rule="nonzero"/><path fill="#ffffff" d="M 31.878906 203.019531 C 33.640625 203.761719 35.457031 204.445312 37.164062 205.300781 C 36.359375 201.351562 35.464844 196.605469 32.480469 193.898438 C 30.464844 192.070312 28.128906 190.707031 25.699219 189.523438 C 26.289062 194.777344 27.910156 199.542969 31.878906 203.019531 " fill-opacity="1" fill-rule="nonzero"/><path fill="#ffffff" d="M 186.046875 179.792969 C 182.765625 183.515625 180.144531 187.9375 178.011719 192.128906 C 172.566406 202.839844 169.449219 214.601562 166.273438 226.140625 C 166.308594 226.289062 166.308594 226.449219 166.265625 226.628906 C 165.515625 229.789062 166.664062 232.816406 167.542969 235.828125 C 167.683594 236.304688 167.5 236.675781 167.195312 236.894531 C 167.125 237.214844 166.898438 237.488281 166.464844 237.574219 C 166.253906 237.617188 166.039062 237.660156 165.824219 237.703125 C 169.203125 241.257812 173.660156 242.804688 178.203125 244.566406 C 180.265625 245.367188 182.304688 246.039062 184.351562 246.464844 C 171.566406 240.730469 172.054688 221.640625 174.910156 209.679688 C 177.683594 198.085938 186.308594 181.019531 199.375 178.167969 C 194.960938 177.871094 190.417969 178.539062 186.425781 179.75 C 186.289062 179.789062 186.164062 179.800781 186.046875 179.792969 " fill-opacity="1" fill-rule="nonzero"/><path fill="#ffffff" d="M 124.640625 195.636719 C 117.722656 195.664062 110.8125 197.234375 105.738281 201.742188 C 109.910156 202.273438 114 203.359375 118.160156 203.9375 C 118.1875 203.890625 118.199219 203.84375 118.238281 203.796875 C 119.769531 201.976562 120.78125 199.820312 122.199219 197.921875 C 122.894531 196.984375 123.71875 196.242188 124.640625 195.636719 " fill-opacity="1" fill-rule="nonzero"/><path fill="#ffffff" d="M 345.664062 125.1875 C 345.21875 125.910156 344.832031 126.683594 344.710938 127.527344 C 344.445312 129.394531 344.839844 131.261719 345.644531 132.949219 C 347.78125 131.851562 347.203125 127.609375 346.558594 125.738281 C 346.367188 125.195312 346.164062 124.367188 345.664062 125.1875 " fill-opacity="1" fill-rule="nonzero"/><path fill="#ffffff" d="M 22.464844 188.046875 C 22.625 190.769531 23.015625 193.46875 23.542969 196.167969 C 24.660156 198.621094 26.441406 200.191406 28.511719 201.394531 C 25.949219 197.984375 24.765625 193.855469 24.28125 189.308594 C 24.261719 189.136719 24.308594 189.007812 24.382812 188.902344 C 23.746094 188.609375 23.105469 188.324219 22.464844 188.046875 " fill-opacity="1" fill-rule="nonzero"/><path fill="#ffffff" d="M 197.734375 235.539062 C 207.109375 230.535156 211.261719 220.929688 212.691406 210.894531 C 212.640625 210.773438 212.605469 210.644531 212.628906 210.488281 C 213.308594 205.894531 214.207031 201.449219 212.703125 196.875 C 211 191.699219 206.347656 187.851562 200.601562 189.160156 C 190.257812 191.515625 185.703125 204.304688 184.003906 213.527344 C 182.960938 219.167969 181.796875 226.84375 184.863281 232.113281 C 187.636719 236.878906 192.863281 238.140625 197.734375 235.539062 " fill-opacity="1" fill-rule="nonzero"/><path fill="#ffffff" d="M 111.605469 233.691406 C 118.140625 234.765625 124.273438 235.472656 130.859375 235.183594 C 131.300781 234.09375 131.523438 232.929688 131.496094 231.753906 C 128.292969 231.445312 125.023438 231.691406 121.804688 231.429688 C 118.523438 231.164062 115.25 230.796875 111.976562 230.4375 C 111.964844 230.507812 111.949219 230.578125 111.90625 230.648438 C 111.4375 231.457031 110.765625 232.84375 111.429688 233.695312 C 111.488281 233.695312 111.542969 233.679688 111.605469 233.691406 " fill-opacity="1" fill-rule="nonzero"/><path fill="#ffffff" d="M 127.386719 195.785156 C 123.441406 197.28125 122.101562 201.019531 119.742188 204.128906 C 119.886719 204.140625 120.023438 204.164062 120.167969 204.175781 C 122.953125 204.433594 125.964844 204.628906 128.675781 203.789062 C 132.457031 202.617188 134.417969 200.246094 135.914062 196.785156 C 133.246094 196.257812 130.398438 195.867188 127.507812 195.710938 C 127.464844 195.734375 127.4375 195.769531 127.386719 195.785156 " fill-opacity="1" fill-rule="nonzero"/><path fill="#ffffff" d="M 137.820312 196.691406 C 137.808594 196.726562 137.804688 196.761719 137.789062 196.796875 C 135.429688 202.535156 131.566406 205.851562 125.175781 206.082031 C 118.214844 206.335938 111.605469 204.070312 104.75 203.359375 C 104.496094 203.332031 104.304688 203.21875 104.164062 203.0625 C 103.457031 203.199219 102.738281 202.246094 103.378906 201.582031 C 111.921875 192.726562 126.234375 192.929688 137.414062 195.320312 C 138.128906 195.472656 138.175781 196.238281 137.820312 196.691406 Z M 123.425781 226.875 C 115.683594 227.5 108.371094 224.503906 100.863281 223.183594 C 100.558594 223.128906 100.378906 222.964844 100.292969 222.757812 C 100.023438 222.640625 99.835938 222.390625 99.875 221.996094 C 100.277344 218.304688 101.304688 214.808594 102.519531 211.3125 C 102.566406 211.183594 102.628906 211.078125 102.707031 210.992188 C 102.753906 210.605469 103.027344 210.277344 103.53125 210.324219 C 113.242188 211.273438 123.113281 211.222656 132.769531 212.414062 C 133.082031 212.453125 133.304688 212.625 133.4375 212.839844 C 133.792969 212.921875 134.109375 213.1875 134.164062 213.636719 C 135.023438 220.890625 130.867188 226.273438 123.425781 226.875 Z M 92.277344 220.394531 C 79.203125 222.4375 66.097656 220.199219 54.042969 214.703125 C 44.691406 210.441406 39.023438 203.453125 36.550781 193.488281 C 36.324219 192.558594 37.5 192.089844 38.023438 192.640625 C 38.214844 192.441406 38.496094 192.332031 38.84375 192.414062 C 48.355469 194.789062 57.914062 196.988281 67.378906 199.550781 C 72.089844 200.828125 76.796875 202.160156 81.441406 203.675781 C 85.640625 205.046875 90.027344 205.757812 94.191406 207.222656 C 94.765625 207.421875 94.890625 208.019531 94.707031 208.457031 C 94.746094 208.527344 94.78125 208.609375 94.800781 208.699219 C 95.558594 212.585938 94.496094 215.972656 92.878906 219.464844 C 92.976562 219.875 92.8125 220.3125 92.277344 220.394531 Z M 164.242188 226.128906 C 164.203125 225.972656 164.203125 225.800781 164.253906 225.609375 C 166.753906 216.53125 169.199219 207.207031 172.804688 198.421875 C 171.125 198.613281 169.453125 198.613281 167.757812 198.480469 C 167.578125 198.46875 167.429688 198.40625 167.308594 198.324219 C 167.070312 198.472656 166.765625 198.519531 166.445312 198.363281 C 162.664062 196.511719 159.023438 194.371094 155.480469 192.09375 C 151.863281 189.765625 147.8125 188.550781 143.855469 186.953125 C 143.707031 186.894531 143.59375 186.808594 143.503906 186.707031 C 143.105469 186.820312 142.707031 186.921875 142.304688 187.019531 C 142.175781 187.105469 142.019531 187.160156 141.820312 187.160156 C 141.785156 187.160156 141.746094 187.152344 141.710938 187.148438 C 137.480469 188.050781 132.878906 188.347656 128.558594 188.210938 C 125.246094 188.105469 121.300781 187.8125 119.101562 184.988281 C 118.929688 184.765625 118.878906 184.519531 118.914062 184.289062 C 112.5 183.613281 106.128906 183.316406 99.742188 182.308594 C 93.078125 181.261719 86.324219 180.660156 79.707031 179.328125 C 67.40625 176.855469 55.785156 172.28125 44.4375 167.011719 C 44.371094 166.980469 44.316406 166.949219 44.265625 166.910156 C 43.011719 167.773438 41.621094 168.386719 40.003906 168.523438 C 39.921875 168.53125 39.851562 168.527344 39.785156 168.515625 C 39.742188 168.519531 39.699219 168.527344 39.652344 168.523438 C 35.988281 168.390625 31.6875 165.410156 31.160156 161.800781 C 30.507812 162.683594 29.875 163.582031 29.277344 164.503906 C 28.359375 165.917969 27.488281 167.390625 26.683594 168.902344 C 26.863281 168.910156 27.046875 168.980469 27.214844 169.128906 C 32.046875 173.402344 34.261719 178.71875 33.011719 185.128906 C 32.921875 185.585938 32.574219 185.773438 32.21875 185.753906 C 32.035156 185.945312 31.757812 186.039062 31.414062 185.910156 C 28.050781 184.632812 25.65625 182.070312 22.746094 180.070312 C 22.664062 180.617188 22.589844 181.167969 22.539062 181.722656 C 22.402344 183.285156 22.363281 184.832031 22.398438 186.375 C 22.589844 186.3125 22.808594 186.308594 23.035156 186.40625 C 26.921875 188.09375 31.835938 190.011719 34.488281 193.511719 C 37.246094 197.15625 38.152344 201.710938 39.101562 206.089844 C 39.253906 206.792969 38.613281 207.234375 38.074219 207.167969 C 37.828125 207.367188 37.484375 207.445312 37.128906 207.246094 C 35.738281 206.472656 34.269531 205.84375 32.804688 205.230469 C 32.648438 205.28125 32.464844 205.257812 32.28125 205.121094 C 32.179688 205.046875 32.085938 204.964844 31.984375 204.886719 C 29.054688 203.660156 26.199219 202.40625 24.085938 200.128906 C 24.019531 200.535156 23.90625 200.921875 23.78125 201.296875 C 26.222656 202.617188 28.027344 204.835938 30.53125 206.054688 C 30.707031 205.972656 30.914062 205.957031 31.128906 206.066406 C 43.640625 212.25 56.023438 218.683594 69.675781 221.972656 C 76.390625 223.589844 83.203125 224.6875 90.015625 225.785156 C 97.042969 226.917969 104.039062 228.683594 111.191406 228.613281 C 111.515625 228.609375 111.714844 228.792969 111.804688 229.027344 C 115.554688 229.4375 119.308594 229.90625 123.074219 230.125 C 126.0625 230.296875 129.109375 230.0625 132.074219 230.414062 C 132.457031 230.460938 132.664062 230.75 132.714844 231.050781 C 132.804688 231.15625 132.878906 231.285156 132.886719 231.457031 C 132.988281 233.070312 132.621094 234.636719 131.980469 236.105469 C 131.871094 236.359375 131.683594 236.453125 131.484375 236.460938 C 131.390625 236.519531 131.28125 236.5625 131.148438 236.566406 C 124.3125 236.898438 117.988281 236.140625 111.234375 235.035156 C 111.21875 235.03125 111.207031 235.019531 111.191406 235.015625 C 110.992188 235.0625 110.773438 235.03125 110.582031 234.855469 C 109.15625 233.566406 109.851562 231.441406 110.671875 230.007812 C 103.984375 229.988281 97.5 228.394531 90.929688 227.335938 C 83.695312 226.171875 76.417969 225.113281 69.304688 223.316406 C 55.699219 219.882812 43.394531 213.683594 30.882812 207.496094 C 30.886719 207.566406 30.890625 207.640625 30.871094 207.722656 C 30.597656 208.757812 30.160156 209.746094 29.640625 210.679688 C 29.410156 211.089844 28.972656 211.085938 28.667969 210.882812 C 28.597656 210.867188 28.527344 210.851562 28.453125 210.8125 C 26.054688 209.457031 23.9375 207.703125 21.929688 205.828125 C 21.867188 205.765625 21.832031 205.703125 21.800781 205.636719 C 21.796875 205.644531 21.789062 205.648438 21.785156 205.65625 C 21.640625 206.027344 21.519531 206.410156 21.425781 206.816406 C 20.597656 210.433594 23.089844 212.632812 26.082031 213.953125 C 26.125 213.972656 26.164062 213.992188 26.199219 214.019531 C 37.675781 218.820312 49.269531 222.957031 60.960938 227.179688 C 66.429688 229.15625 71.839844 231.390625 77.449219 232.957031 C 83 234.503906 88.722656 235.308594 94.375 236.429688 C 106.039062 238.75 118.015625 241.453125 129.988281 240.761719 C 136.300781 240.398438 142.589844 239.183594 148.851562 238.328125 C 154.367188 237.574219 159.863281 236.765625 165.324219 235.671875 C 164.390625 232.523438 163.472656 229.433594 164.242188 226.128906 " fill-opacity="1" fill-rule="nonzero"/><path fill="#ffffff" d="M 204.019531 187.683594 C 208.675781 188.074219 212.363281 191.390625 213.800781 195.757812 C 215.238281 200.125 214.914062 204.203125 214.308594 208.519531 C 214.34375 208.601562 214.355469 208.703125 214.34375 208.816406 C 213.675781 215.113281 212.253906 221.648438 208.785156 227.050781 C 205.699219 231.871094 200.628906 237.101562 194.699219 238.078125 C 180.691406 240.375 180.777344 222.28125 182.65625 213.160156 C 184.808594 202.753906 190.746094 186.558594 204.019531 187.683594 Z M 176.925781 210.234375 C 175.324219 217.457031 174.207031 225.683594 176.328125 232.933594 C 178.328125 239.765625 183.558594 246.15625 191.335938 245.90625 C 207.742188 245.382812 213.140625 228.570312 216.46875 215.390625 C 216.53125 215.152344 216.644531 214.980469 216.792969 214.859375 C 218.886719 207.957031 220.003906 200.550781 217.90625 193.484375 C 215.847656 186.550781 210.71875 179.066406 202.488281 179.828125 C 188.574219 181.113281 179.609375 198.140625 176.925781 210.234375 " fill-opacity="1" fill-rule="nonzero"/><path fill="#ffffff" d="M 328.738281 108.542969 C 324.675781 108.175781 320.667969 107.421875 316.664062 106.566406 C 316.953125 107.058594 317.179688 107.582031 317.3125 108.152344 C 320.992188 109.046875 324.675781 109.042969 328.738281 108.542969 " fill-opacity="1" fill-rule="nonzero"/><path fill="#ffffff" d="M 335.84375 102.671875 C 334.292969 103.886719 332.613281 104.925781 330.710938 105.476562 C 328.984375 105.976562 327.199219 106.25 325.390625 106.394531 C 327.722656 106.71875 330.074219 106.953125 332.441406 107.015625 C 333.886719 105.839844 334.917969 104.300781 335.84375 102.671875 " fill-opacity="1" fill-rule="nonzero"/><path fill="#ffffff" d="M 314.15625 93.6875 C 321.910156 94.6875 330.074219 96.207031 337.386719 99.023438 C 337.667969 98.761719 337.949219 98.503906 338.230469 98.238281 C 338.289062 98.183594 338.347656 98.140625 338.40625 98.105469 C 338.527344 97.917969 338.648438 97.742188 338.769531 97.5625 C 334.964844 96.960938 331.277344 95.828125 327.476562 95.164062 C 322.605469 94.316406 317.734375 93.484375 312.859375 92.699219 C 304.585938 91.371094 296.296875 90.15625 287.988281 89.105469 C 289.234375 89.757812 290.464844 90.472656 291.675781 91.246094 C 298.921875 93.148438 306.765625 92.730469 314.15625 93.6875 " fill-opacity="1" fill-rule="nonzero"/><path fill="#ffffff" d="M 28.132812 172.546875 C 26.996094 175.230469 26.730469 178.03125 26.714844 180.949219 C 28.191406 182.132812 29.6875 183.28125 31.433594 184.03125 C 32.132812 179.558594 30.863281 175.785156 28.132812 172.546875 " fill-opacity="1" fill-rule="nonzero"/><path fill="#ffffff" d="M 333.933594 108.0625 C 333.925781 108.121094 333.914062 108.179688 333.894531 108.238281 C 337.675781 107.625 341.96875 106.820312 344.433594 104.050781 C 344.433594 103.917969 344.464844 103.78125 344.535156 103.636719 C 345.328125 102.09375 347.367188 95.851562 345.007812 94.917969 C 344.953125 94.945312 344.890625 94.972656 344.824219 94.988281 C 343.394531 95.375 342.304688 96.070312 341.414062 96.949219 C 341.449219 97.394531 341.191406 97.839844 340.640625 97.808594 C 339.394531 99.371094 338.546875 101.324219 337.558594 103.214844 C 336.574219 105.089844 335.449219 106.753906 333.933594 108.0625 " fill-opacity="1" fill-rule="nonzero"/><path fill="#ffffff" d="M 307.757812 102.121094 C 305.542969 101.011719 303.390625 99.820312 301.191406 98.710938 C 304.265625 101.273438 307.417969 103.753906 310.914062 105.65625 C 312.402344 106.464844 313.855469 107.089844 315.296875 107.570312 C 314.015625 105.003906 309.976562 103.238281 307.757812 102.121094 " fill-opacity="1" fill-rule="nonzero"/><path fill="#ffffff" d="M 315.929688 104.632812 C 316.160156 104.679688 316.386719 104.726562 316.609375 104.777344 C 320.695312 104.789062 325.390625 105.207031 329.328125 104.0625 C 332.035156 103.277344 334.175781 101.824219 336.207031 100.078125 C 328.082031 97.066406 319.007812 95.507812 310.445312 94.664062 C 305.21875 94.148438 299.824219 94.171875 294.613281 93.292969 C 295.023438 93.605469 295.4375 93.90625 295.84375 94.238281 C 296.078125 94.429688 296.316406 94.628906 296.550781 94.820312 C 296.675781 94.804688 296.808594 94.820312 296.957031 94.875 C 301.882812 96.835938 306.757812 99.324219 311.304688 102.058594 C 312.585938 102.824219 314.03125 103.703125 315.199219 104.796875 C 315.382812 104.644531 315.632812 104.566406 315.929688 104.632812 " fill-opacity="1" fill-rule="nonzero"/><path fill="#ffffff" d="M 131.378906 114.472656 C 131.9375 113.898438 132.5 113.316406 133.066406 112.746094 C 133.027344 112.632812 133.003906 112.511719 133.027344 112.367188 C 133.636719 108.859375 134.160156 105.039062 131.359375 102.472656 C 131.402344 102.667969 131.363281 102.878906 131.175781 103.058594 C 128.109375 106.035156 130.496094 110.765625 131.378906 114.472656 " fill-opacity="1" fill-rule="nonzero"/><path fill="#ffffff" d="M 137 169.867188 C 130.835938 173.335938 126.1875 178.660156 121.21875 183.585938 C 121.148438 183.847656 120.96875 184.066406 120.679688 184.152344 C 122.992188 186.601562 127.148438 186.550781 130.285156 186.46875 C 133.988281 186.371094 137.960938 186.347656 141.546875 185.410156 C 146.433594 184.132812 150.941406 181.914062 155.1875 179.203125 C 158.859375 176.859375 162.078125 174.890625 162.179688 170.238281 C 158.277344 168.78125 154.210938 168.679688 150.09375 168.21875 C 145.558594 167.710938 141.132812 167.546875 137 169.867188 " fill-opacity="1" fill-rule="nonzero"/><path fill="#ffffff" d="M 39.652344 166.78125 C 39.726562 166.785156 39.792969 166.792969 39.851562 166.808594 C 39.902344 166.796875 39.949219 166.785156 40.003906 166.78125 C 41.28125 166.675781 42.410156 166.183594 43.4375 165.480469 C 43.546875 165.265625 43.746094 165.101562 44.027344 165.054688 C 46.570312 163.0625 48.554688 159.835938 50.847656 157.933594 C 54.164062 155.1875 57.769531 153.136719 61.738281 151.515625 C 61.152344 147.355469 49.964844 147.335938 46.964844 147.445312 C 46.792969 147.457031 46.648438 147.414062 46.527344 147.347656 C 41.820312 150.523438 37.449219 154.285156 33.746094 158.574219 C 33.71875 158.667969 33.683594 158.765625 33.621094 158.859375 C 30.976562 162.753906 35.992188 166.648438 39.652344 166.78125 " fill-opacity="1" fill-rule="nonzero"/><path fill="#ffffff" d="M 25.347656 179.847656 C 25.433594 176.917969 25.851562 174.140625 27.109375 171.429688 C 26.75 171.066406 26.378906 170.707031 25.984375 170.359375 C 25.972656 170.347656 25.96875 170.339844 25.957031 170.328125 C 24.710938 172.867188 23.695312 175.523438 23.082031 178.269531 C 23.179688 178.285156 23.28125 178.328125 23.386719 178.394531 C 24.058594 178.847656 24.707031 179.339844 25.347656 179.847656 " fill-opacity="1" fill-rule="nonzero"/><path fill="#ffffff" d="M 63.5 151.625 C 63.527344 151.925781 63.421875 152.140625 63.253906 152.277344 C 63.207031 152.574219 63.03125 152.855469 62.6875 152.992188 C 57.394531 155.089844 52.777344 158.035156 48.988281 162.316406 C 47.96875 163.46875 46.917969 164.667969 45.761719 165.710938 C 57.195312 171.003906 69.042969 175.71875 81.507812 177.902344 C 87.714844 178.992188 93.992188 179.59375 100.207031 180.632812 C 106.695312 181.714844 113.179688 181.910156 119.707031 182.628906 C 125.203125 177.191406 130.796875 170.039062 138.285156 167.335938 C 142.605469 165.773438 146.78125 166.109375 151.265625 166.613281 C 154.300781 166.953125 157.207031 167.09375 160.085938 167.773438 C 160.089844 167.582031 160.164062 167.382812 160.351562 167.210938 C 168.210938 159.910156 179.808594 157.757812 189.652344 154.300781 C 200.515625 150.488281 211.4375 146.761719 222.417969 143.273438 C 219.613281 142.984375 216.816406 142.597656 213.996094 142.453125 C 209.589844 142.234375 205.1875 141.929688 200.800781 141.496094 C 192.316406 140.65625 183.863281 139.503906 175.46875 138.03125 C 158.390625 135.039062 142.246094 128.867188 125.378906 125.066406 C 124.855469 125.078125 124.3125 125.015625 123.839844 124.828125 C 123.648438 124.800781 123.46875 124.691406 123.332031 124.539062 C 123.121094 124.386719 122.941406 124.195312 122.800781 123.957031 C 110.90625 125.96875 99.21875 129.394531 87.539062 132.363281 C 76.230469 135.238281 64.382812 137.609375 53.921875 142.96875 C 52.300781 143.796875 50.703125 144.707031 49.132812 145.671875 C 54.277344 145.6875 63.03125 146.476562 63.5 151.625 " fill-opacity="1" fill-rule="nonzero"/><path fill="#ffffff" d="M 137.1875 126.273438 C 140.921875 126.566406 144.699219 126.375 148.425781 125.964844 C 144.441406 125.613281 140.457031 125.441406 136.558594 125.414062 C 135.660156 125.40625 135.660156 124.015625 136.558594 124.019531 C 148.464844 124.101562 161.003906 125.496094 172.335938 129.183594 C 173.1875 129.460938 172.820312 130.808594 171.964844 130.527344 C 165.21875 128.332031 158.007812 126.957031 150.765625 126.195312 C 150.859375 126.578125 150.652344 127.09375 150.132812 127.15625 C 147.617188 127.476562 145.074219 127.710938 142.523438 127.785156 C 151.78125 130.460938 160.984375 133.28125 170.429688 135.285156 C 170.523438 135.238281 170.625 135.203125 170.757812 135.210938 C 179.773438 135.648438 189.292969 135.976562 198.066406 133.609375 C 192.210938 132.664062 186.347656 132.378906 180.375 131.945312 C 179.484375 131.882812 179.476562 130.488281 180.375 130.554688 C 188.496094 131.144531 196.238281 131.671875 204.214844 133.402344 C 210.851562 134.839844 217.492188 137.070312 223.542969 140.183594 C 224.34375 140.59375 223.636719 141.796875 222.839844 141.386719 C 216.492188 138.117188 209.605469 136.082031 202.6875 134.488281 C 202.054688 134.34375 201.421875 134.222656 200.792969 134.097656 C 200.710938 134.207031 200.605469 134.304688 200.445312 134.359375 C 193.648438 136.5625 186.390625 137 179.191406 136.898438 C 187.238281 138.21875 195.324219 139.308594 203.449219 139.996094 C 211.199219 140.660156 219.132812 141.675781 226.910156 141.855469 C 227.570312 141.652344 228.230469 141.4375 228.894531 141.230469 C 228.871094 141.046875 228.898438 140.851562 228.988281 140.648438 C 232.703125 132.636719 236.761719 124.769531 240.125 116.597656 C 241.535156 113.167969 242.664062 109.648438 244.015625 106.199219 C 244.699219 104.472656 247.175781 99.632812 244.679688 98.535156 C 244.507812 98.457031 244.386719 98.355469 244.296875 98.238281 C 238.445312 97.113281 232.488281 96.53125 226.601562 95.609375 C 220.089844 94.59375 213.566406 93.578125 207.015625 92.835938 C 194.902344 91.457031 183.117188 89.164062 171.132812 86.972656 C 171.015625 86.949219 170.921875 86.910156 170.832031 86.863281 C 169.980469 87.203125 169.136719 87.550781 168.296875 87.90625 C 168.148438 87.996094 167.972656 88.050781 167.757812 88.050781 C 167.628906 88.050781 167.523438 88.03125 167.421875 87.996094 C 158.835938 92.445312 151.183594 98.351562 144.027344 104.824219 C 137.523438 110.707031 131.296875 116.707031 125.570312 123.324219 C 125.574219 123.324219 125.574219 123.324219 125.578125 123.328125 C 129.480469 124.199219 133.34375 125.207031 137.1875 126.273438 " fill-opacity="1" fill-rule="nonzero"/><path fill="#ffffff" d="M 130.191406 102.078125 C 130.335938 101.9375 130.496094 101.886719 130.652344 101.886719 C 128.933594 100.613281 124.949219 98.195312 123.289062 100.171875 C 120.457031 103.539062 125.863281 107.433594 127.820312 109.738281 C 128.496094 110.535156 129 111.398438 129.378906 112.308594 C 128.359375 108.714844 127.273438 104.902344 130.191406 102.078125 " fill-opacity="1" fill-rule="nonzero"/><path fill="#ffffff" d="M 233.605469 182.574219 C 233.535156 177.921875 228.757812 182.613281 228.472656 184.210938 C 228.246094 185.511719 228.257812 186.730469 228.152344 188.03125 C 228.03125 189.472656 227.898438 190.925781 227.914062 192.371094 C 227.933594 194.109375 227.96875 195.949219 228.5625 197.609375 C 229.082031 199.042969 229.890625 200.714844 231.363281 201.425781 C 233.746094 201.464844 235.054688 200.65625 235.316406 199.03125 C 234.773438 199.195312 234.226562 199.355469 233.671875 199.5 C 233.628906 199.515625 233.585938 199.507812 233.542969 199.511719 C 233.253906 199.792969 232.714844 199.855469 232.425781 199.414062 C 232.226562 199.109375 232.046875 198.789062 231.84375 198.488281 C 231.765625 198.367188 231.734375 198.25 231.730469 198.140625 C 231.730469 198.140625 231.730469 198.140625 231.730469 198.136719 C 229.660156 194.34375 227.3125 188.835938 230.742188 185 C 231.578125 184.0625 232.570312 183.351562 233.648438 182.773438 C 233.628906 182.707031 233.609375 182.648438 233.605469 182.574219 " fill-opacity="1" fill-rule="nonzero"/><path fill="#ffffff" d="M 235.734375 183.390625 C 234.984375 183.671875 234.332031 184 233.765625 184.363281 C 233.863281 184.46875 233.941406 184.601562 233.953125 184.78125 C 234.25 188.375 234.003906 191.984375 234.300781 195.578125 C 234.304688 195.625 234.292969 195.660156 234.285156 195.703125 C 237.421875 195.414062 240.449219 194.617188 243.515625 193.863281 C 243.589844 193.84375 243.652344 193.851562 243.71875 193.855469 C 243.363281 189.324219 243.878906 184.902344 244.546875 180.457031 C 241.671875 181.710938 238.691406 182.289062 235.734375 183.390625 " fill-opacity="1" fill-rule="nonzero"/><path fill="#ffffff" d="M 232.148438 195.875 C 232.234375 195.839844 232.332031 195.8125 232.445312 195.8125 C 232.625 195.808594 232.796875 195.796875 232.96875 195.785156 C 232.941406 195.722656 232.914062 195.660156 232.910156 195.578125 C 232.625 192.160156 232.832031 188.730469 232.597656 185.308594 C 229.867188 187.996094 230.402344 192.050781 232.148438 195.875 " fill-opacity="1" fill-rule="nonzero"/><path fill="#ffffff" d="M 232.800781 197.191406 C 232.84375 197.273438 232.886719 197.355469 232.929688 197.433594 C 232.988281 197.539062 233.011719 197.644531 233.015625 197.742188 C 233.027344 197.757812 233.039062 197.769531 233.046875 197.78125 C 233.128906 197.90625 233.207031 198.039062 233.285156 198.167969 C 233.292969 198.167969 233.296875 198.160156 233.304688 198.160156 C 235.027344 197.707031 236.699219 197.136719 238.347656 196.5 C 236.519531 196.863281 234.679688 197.128906 232.800781 197.191406 " fill-opacity="1" fill-rule="nonzero"/><path fill="#ffffff" d="M 296.882812 113.335938 C 297.078125 111.867188 298.363281 110.230469 300.011719 111.304688 C 301.640625 112.367188 302.464844 114.964844 302.296875 116.851562 C 302.082031 119.226562 300.699219 119.945312 298.46875 120.101562 C 297.960938 120.136719 297.753906 119.707031 297.820312 119.3125 C 297.753906 119.234375 297.703125 119.140625 297.679688 119.007812 C 297.367188 117.171875 296.632812 115.222656 296.882812 113.335938 Z M 278.625 94.671875 C 278.515625 94.675781 278.414062 94.652344 278.324219 94.621094 C 278.253906 94.644531 278.183594 94.664062 278.105469 94.671875 C 272.578125 95.308594 266.679688 96.015625 261.617188 98.5 C 256.144531 101.183594 252.277344 105.429688 249.578125 110.871094 C 246.925781 116.21875 245.230469 121.910156 243.167969 127.496094 C 241.621094 131.6875 239.820312 135.804688 237.96875 139.882812 C 238.46875 139.308594 238.964844 138.726562 239.496094 138.1875 C 239.601562 138.078125 239.71875 138.03125 239.835938 138.007812 C 242.707031 132.171875 245.289062 126.191406 247.433594 120.050781 C 249.085938 115.3125 250.753906 110.570312 253.734375 106.480469 C 259.980469 97.914062 271.671875 97.363281 281.308594 96.941406 C 281.40625 96.894531 281.511719 96.867188 281.640625 96.878906 C 294.589844 97.890625 295.875 112.066406 297.378906 122.226562 C 299.492188 121.621094 301.59375 120.984375 303.652344 120.191406 C 302.625 107.652344 291.945312 94.613281 278.625 94.671875 " fill-opacity="1" fill-rule="nonzero"/><path fill="#ffffff" d="M 325.28125 141.21875 C 326.289062 140.5 327.359375 139.859375 328.453125 139.433594 C 327.726562 139.449219 327.039062 139.632812 326.492188 140.046875 C 326.339844 140.167969 326.183594 140.222656 326.039062 140.242188 C 325.777344 140.558594 325.523438 140.886719 325.28125 141.21875 " fill-opacity="1" fill-rule="nonzero"/><path fill="#ffffff" d="M 247.449219 124.097656 C 245.757812 128.449219 243.898438 132.734375 241.882812 136.941406 C 244.429688 136.207031 247.121094 136.273438 249.675781 135.460938 C 249.96875 135.367188 250.214844 135.429688 250.394531 135.566406 C 250.820312 135.328125 251.246094 135.074219 251.671875 134.8125 C 251.652344 134.769531 251.628906 134.738281 251.613281 134.6875 C 251.054688 132.054688 250.152344 129.53125 249.519531 126.917969 C 249.113281 125.234375 248.84375 123.527344 248.273438 121.890625 C 248.007812 122.632812 247.734375 123.367188 247.449219 124.097656 " fill-opacity="1" fill-rule="nonzero"/><path fill="#ffffff" d="M 299.023438 118.640625 C 299.023438 118.648438 299.019531 118.65625 299.019531 118.667969 C 299.730469 118.605469 300.550781 118.445312 300.746094 117.722656 C 300.925781 117.074219 300.964844 116.398438 300.84375 115.730469 C 300.726562 115.09375 299.886719 111.644531 298.65625 112.472656 C 297.859375 113.015625 298.296875 115 298.433594 115.753906 C 298.605469 116.722656 298.855469 117.671875 299.023438 118.640625 " fill-opacity="1" fill-rule="nonzero"/><path fill="#ffffff" d="M 329.1875 147.613281 C 321.871094 147.691406 319.246094 157.222656 318.148438 163.0625 C 317.222656 167.992188 316.140625 174.308594 317.757812 179.234375 C 319.234375 183.722656 323.597656 188.480469 328.617188 185.152344 C 334.929688 180.964844 335.429688 172.730469 336.671875 165.835938 C 336.578125 165.691406 336.523438 165.523438 336.550781 165.316406 C 337.296875 160.085938 337.089844 147.53125 329.1875 147.613281 " fill-opacity="1" fill-rule="nonzero"/><path fill="#ffffff" d="M 346.675781 148.402344 C 346.960938 148.1875 347.242188 147.96875 347.503906 147.722656 C 348.300781 146.976562 349.078125 146.0625 349.238281 145 C 348.289062 145.726562 347.523438 146.722656 346.652344 147.535156 C 346.59375 147.585938 346.53125 147.613281 346.472656 147.644531 C 346.1875 148.011719 345.804688 148.585938 345.953125 148.953125 C 345.867188 148.734375 346.472656 148.554688 346.675781 148.402344 " fill-opacity="1" fill-rule="nonzero"/><path fill="#ffffff" d="M 311.023438 184.832031 C 310.910156 184.945312 310.773438 185.039062 310.582031 185.09375 C 307.480469 185.886719 304.402344 186.695312 301.332031 187.511719 C 304.121094 190.609375 306.960938 192.917969 311.167969 194.019531 C 313.625 194.660156 316.277344 195.292969 318.90625 195.425781 C 314.738281 193.269531 312.195312 189.28125 311.023438 184.832031 " fill-opacity="1" fill-rule="nonzero"/><path fill="#ffffff" d="M 351.003906 132.035156 C 349.652344 135.910156 347.113281 139.121094 344.335938 142.144531 C 344.328125 142.148438 344.320312 142.152344 344.316406 142.160156 C 344.761719 144.011719 344.84375 146.015625 344.679688 148.066406 C 344.882812 147.460938 345.289062 146.894531 345.667969 146.429688 C 345.773438 146.304688 345.894531 146.230469 346.019531 146.203125 C 347.113281 145.117188 348.09375 143.847656 349.519531 143.1875 C 349.910156 143.007812 350.429688 143.132812 350.539062 143.605469 C 350.878906 145.015625 350.46875 146.289062 349.636719 147.445312 C 348.902344 148.460938 347.683594 149.695312 346.472656 150.097656 C 345.644531 150.371094 344.761719 150.121094 344.582031 149.179688 C 344.574219 149.15625 344.578125 149.132812 344.574219 149.109375 C 344.300781 151.433594 343.75 153.796875 343.105469 156.027344 C 342.921875 156.652344 342.359375 156.84375 341.867188 156.730469 C 342.046875 158.65625 342.078125 160.585938 341.988281 162.503906 C 348.960938 154.523438 354.90625 142.453125 351.003906 132.035156 " fill-opacity="1" fill-rule="nonzero"/><path fill="#ffffff" d="M 280.925781 125.722656 C 280.988281 126.066406 281.027344 126.386719 281.050781 126.703125 C 285.289062 126.3125 289.082031 124.609375 293.128906 123.433594 C 294.101562 123.152344 295.066406 122.878906 296.039062 122.605469 C 294.664062 113.28125 293.769531 99.226562 281.644531 98.273438 C 281.574219 98.300781 281.5 98.328125 281.410156 98.328125 C 270.605469 98.800781 258.480469 99.710938 252.839844 110.457031 C 251.164062 113.648438 250.007812 117.023438 248.8125 120.398438 C 249.039062 120.441406 249.25 120.582031 249.359375 120.847656 C 249.390625 120.921875 249.414062 121 249.445312 121.074219 C 252.386719 113.09375 256.546875 103.570312 266.820312 105.652344 C 276.246094 107.5625 279.628906 114.929688 280.105469 123.742188 C 280.503906 124.335938 280.789062 124.988281 280.925781 125.722656 " fill-opacity="1" fill-rule="nonzero"/><path fill="#ffffff" d="M 341.753906 165.515625 C 341.691406 166.082031 341.609375 166.648438 341.523438 167.214844 C 343.636719 165.378906 345.523438 163.316406 346.160156 160.640625 C 344.957031 162.273438 343.679688 163.796875 342.371094 165.199219 C 342.179688 165.402344 341.964844 165.496094 341.753906 165.515625 " fill-opacity="1" fill-rule="nonzero"/><path fill="#ffffff" d="M 341.429688 140.007812 C 339.664062 137.578125 336.457031 135.367188 333.296875 135.6875 C 331.734375 135.847656 330.332031 136.460938 329.058594 137.355469 C 330.824219 137.507812 332.601562 138.3125 333.667969 139.453125 C 333.714844 139.5 333.746094 139.550781 333.78125 139.597656 C 337.304688 141.351562 339.179688 145.199219 340.320312 148.871094 C 340.847656 150.582031 341.238281 152.292969 341.519531 154.003906 C 342.808594 149.566406 344.253906 143.898438 341.429688 140.007812 " fill-opacity="1" fill-rule="nonzero"/><path fill="#ffffff" d="M 338.242188 164.992188 C 336.671875 172.808594 335.679688 187.742188 324.558594 187.601562 C 320.796875 187.554688 317.777344 183.753906 316.707031 180.492188 C 314.875 174.898438 315.625 168.355469 316.804688 162.691406 C 318.074219 156.617188 321.980469 143.648438 330.820312 146.457031 C 337.929688 148.714844 338.742188 157.875 338.054688 164.367188 C 338.203125 164.519531 338.292969 164.730469 338.242188 164.992188 Z M 334.917969 142.933594 C 330.636719 138.71875 325.964844 143.269531 322.53125 146.15625 C 322.410156 146.253906 322.285156 146.320312 322.15625 146.363281 C 322.066406 146.535156 321.972656 146.710938 321.886719 146.882812 C 317.457031 155.527344 314.210938 165.460938 312.410156 175.277344 C 312.492188 175.425781 312.535156 175.613281 312.507812 175.839844 C 311.769531 182.105469 313.582031 191.785156 320.65625 193.964844 C 327.9375 196.210938 332.449219 188.214844 334.835938 182.582031 C 338.398438 174.160156 341.308594 164.476562 339.710938 155.257812 C 339.007812 151.226562 337.96875 145.933594 334.917969 142.933594 " fill-opacity="1" fill-rule="nonzero"/><path fill="#ffffff" d="M 251.171875 155.660156 C 260.757812 152.140625 270.332031 148.578125 279.976562 145.226562 C 289.375 141.960938 298.945312 139.277344 308.375 136.152344 C 309.234375 135.867188 309.59375 137.214844 308.746094 137.496094 C 299.3125 140.621094 289.742188 143.285156 280.34375 146.566406 C 270.707031 149.9375 261.128906 153.484375 251.542969 157.003906 C 250.699219 157.316406 250.335938 155.964844 251.171875 155.660156 Z M 245.996094 197.625 C 263.839844 190.816406 283.042969 183.417969 295.835938 168.582031 C 302.136719 161.277344 307.488281 152.730469 310.453125 143.496094 C 311.789062 139.347656 313.023438 134.792969 311.402344 130.527344 C 310.015625 126.878906 307.40625 124.148438 304.460938 121.703125 C 304.398438 121.742188 304.34375 121.785156 304.269531 121.8125 C 300.054688 123.449219 295.628906 124.355469 291.371094 125.84375 C 287.964844 127.039062 284.578125 128.144531 280.96875 128.453125 C 279.796875 134.691406 268.910156 133.285156 264.175781 133.960938 C 264.167969 134.007812 264.164062 134.046875 264.148438 134.09375 C 262.820312 138.367188 260.027344 141.457031 256.4375 144.019531 C 256.210938 144.183594 255.984375 144.210938 255.789062 144.152344 C 255.605469 144.292969 255.363281 144.359375 255.070312 144.28125 C 253.0625 143.75 250.863281 143.238281 249.191406 141.9375 C 247.566406 140.675781 247.558594 139.019531 248.507812 137.53125 C 246.257812 137.945312 243.914062 137.957031 241.773438 138.78125 C 245.722656 148.5 248.824219 157.542969 247.898438 168.226562 C 247.042969 178.097656 243.90625 187.683594 245.996094 197.625 " fill-opacity="1" fill-rule="nonzero"/><path fill="#ffffff" d="M 278.589844 122.121094 C 278.148438 117.703125 276.839844 113.488281 273.949219 110.601562 C 275.574219 113.414062 275.828125 116.808594 275.394531 120.3125 C 276.488281 120.757812 277.625 121.347656 278.589844 122.121094 " fill-opacity="1" fill-rule="nonzero"/><path fill="#ffffff" d="M 211.160156 168.730469 C 210.316406 169.035156 209.957031 167.691406 210.792969 167.386719 C 220.671875 163.804688 230.695312 160.6875 240.847656 157.980469 C 241.714844 157.75 242.082031 159.09375 241.214844 159.328125 C 231.066406 162.027344 221.042969 165.148438 211.160156 168.730469 Z M 239.257812 168.824219 C 238.578125 170.886719 235.699219 171.253906 233.90625 171.632812 C 233.667969 171.683594 233.472656 171.617188 233.324219 171.492188 C 231.65625 171.273438 230.054688 170.304688 230.875 168.34375 C 231.59375 166.621094 233.5 165.324219 235.34375 165.179688 C 237.441406 165.015625 240.09375 166.296875 239.257812 168.824219 Z M 315.6875 133.015625 C 321.058594 130.980469 326.25 128.574219 331.652344 126.597656 C 336.925781 124.671875 342.328125 122.125 345.898438 117.636719 C 346.453125 116.933594 347.433594 117.925781 346.878906 118.621094 C 343.695312 122.625 338.957031 125.289062 334.242188 127.109375 C 328.148438 129.457031 322.15625 132.046875 316.058594 134.359375 C 315.21875 134.675781 314.855469 133.332031 315.6875 133.015625 Z M 347.289062 124.0625 C 349.136719 126.746094 349.402344 133.5 345.53125 134.476562 C 345.136719 134.578125 344.855469 134.351562 344.734375 134.0625 C 344.648438 134.003906 344.570312 133.925781 344.511719 133.808594 C 343.222656 131.203125 342.621094 127.890625 344.046875 125.207031 C 344.671875 124.039062 346.136719 122.390625 347.289062 124.0625 Z M 309.179688 183.199219 C 309.121094 182.945312 309.152344 182.6875 309.261719 182.464844 C 309.261719 182.464844 309.257812 182.460938 309.261719 182.457031 C 309.972656 176.035156 311.53125 169.636719 313.339844 163.449219 C 315.582031 155.769531 318.265625 147.640625 322.933594 141.050781 C 325.96875 136.769531 330.851562 132.011719 336.609375 134.007812 C 340.347656 135.304688 342.539062 137.53125 343.6875 140.25 C 348.949219 134.265625 351.941406 127.140625 349.597656 119.027344 C 347.460938 111.636719 340.742188 109.910156 333.800781 110.347656 C 333.515625 110.367188 333.304688 110.265625 333.164062 110.109375 C 332.75 110.175781 332.339844 110.246094 331.945312 110.316406 C 331.722656 110.355469 331.527344 110.316406 331.363281 110.234375 C 331.289062 110.261719 331.214844 110.296875 331.121094 110.308594 C 325.398438 111.179688 320.03125 111.796875 314.476562 109.609375 C 309.371094 107.601562 304.964844 104.4375 300.738281 100.976562 C 295.492188 96.671875 290.4375 92.15625 284.175781 89.363281 C 277.945312 86.582031 271.292969 85.097656 264.605469 83.890625 C 248.472656 80.984375 232.152344 77.808594 215.679688 78.066406 C 201.789062 78.285156 187.636719 80.753906 174.476562 85.488281 C 179.707031 86.496094 184.917969 87.605469 190.160156 88.539062 C 196.628906 89.683594 203.136719 90.234375 209.644531 91.058594 C 221.449219 92.5625 233.464844 93.996094 245.136719 96.277344 C 245.480469 96.34375 245.695312 96.53125 245.804688 96.765625 C 247.867188 97.722656 248.074219 99.996094 247.597656 102.035156 C 246.78125 105.546875 245.289062 109.089844 244.003906 112.445312 C 240.183594 122.460938 235.292969 131.996094 230.792969 141.707031 C 230.785156 141.722656 230.773438 141.734375 230.765625 141.75 C 232.089844 142.300781 233.5 142.382812 234.921875 142.394531 C 238.023438 135.613281 240.898438 128.773438 243.347656 121.730469 C 245.316406 116.070312 247.339844 110.097656 250.9375 105.226562 C 257.378906 96.507812 267.160156 94.246094 277.367188 93.015625 C 277.417969 92.992188 277.472656 92.972656 277.539062 92.957031 C 277.542969 92.953125 277.546875 92.953125 277.546875 92.953125 C 277.613281 92.941406 277.683594 92.929688 277.753906 92.929688 C 277.820312 92.929688 277.886719 92.9375 277.945312 92.949219 C 278 92.945312 278.050781 92.9375 278.105469 92.929688 C 278.222656 92.917969 278.328125 92.925781 278.421875 92.953125 C 278.484375 92.941406 278.550781 92.929688 278.625 92.929688 C 292.949219 92.863281 304.324219 106.726562 305.394531 120.222656 C 311.972656 125.609375 315.445312 132.347656 313.058594 140.886719 C 310.382812 150.457031 305.527344 159.46875 299.273438 167.175781 C 285.695312 183.914062 265.566406 192.011719 245.960938 199.492188 C 245.441406 199.691406 245.074219 199.382812 244.953125 198.96875 C 244.683594 198.914062 244.449219 198.726562 244.367188 198.363281 C 244.167969 197.453125 244.019531 196.554688 243.898438 195.652344 C 241.515625 196.71875 239.125 197.753906 236.660156 198.59375 C 236.714844 198.714844 236.746094 198.851562 236.710938 199.015625 C 235.933594 202.925781 233.128906 204.421875 229.773438 201.984375 C 226.699219 199.753906 226.394531 194.878906 226.539062 191.457031 C 226.699219 187.726562 226.09375 181.488281 230.308594 179.589844 C 232.921875 178.414062 234.757812 179.445312 234.972656 182.144531 C 238.125 180.8125 241.804688 180.261719 244.796875 178.800781 C 245.277344 175.703125 245.777344 172.589844 246.054688 169.414062 C 246.519531 164.066406 246.601562 158.574219 245.222656 153.335938 C 243.96875 148.5625 242.066406 144.03125 240.191406 139.472656 C 238.886719 140.863281 237.730469 142.398438 236.242188 143.589844 C 236.140625 143.886719 235.894531 144.117188 235.503906 144.132812 C 235.488281 144.140625 235.480469 144.148438 235.464844 144.160156 C 235.1875 144.339844 234.917969 144.292969 234.722656 144.128906 C 232.957031 144.09375 231.265625 143.910156 229.628906 143.148438 C 229.496094 143.085938 229.394531 143.007812 229.324219 142.921875 C 228.925781 143.042969 228.527344 143.171875 228.128906 143.296875 C 227.988281 143.488281 227.769531 143.621094 227.453125 143.613281 C 227.351562 143.613281 227.253906 143.605469 227.152344 143.605469 C 215.597656 147.203125 204.101562 151.089844 192.683594 155.082031 C 187.183594 157.003906 181.664062 158.828125 176.148438 160.691406 C 170.933594 162.449219 165.910156 164.519531 161.792969 168.253906 C 162.234375 168.398438 162.675781 168.550781 163.113281 168.726562 C 163.277344 168.796875 163.402344 168.898438 163.496094 169.015625 C 163.734375 169.144531 163.917969 169.386719 163.925781 169.742188 C 164.050781 174.378906 161.699219 177.203125 157.894531 179.554688 C 154.074219 181.917969 150.164062 184.332031 145.933594 185.910156 C 149.511719 187.285156 153.074219 188.523438 156.359375 190.589844 C 159.917969 192.824219 163.511719 194.988281 167.285156 196.835938 C 167.414062 196.765625 167.566406 196.722656 167.757812 196.738281 C 169.65625 196.890625 171.554688 196.917969 173.445312 196.597656 C 173.488281 196.589844 173.53125 196.589844 173.574219 196.585938 C 174.949219 193.414062 176.492188 190.320312 178.257812 187.339844 C 182.964844 179.410156 189.679688 170.757812 199.429688 169.386719 C 208.96875 168.046875 218.515625 175.527344 221.929688 184.050781 C 225.636719 193.296875 224.519531 203.679688 221.839844 213.09375 C 236.21875 206.742188 250.992188 201.648438 265.757812 196.292969 C 280.085938 191.089844 294.460938 187.078125 309.199219 183.289062 C 309.191406 183.261719 309.1875 183.230469 309.179688 183.199219 " fill-opacity="1" fill-rule="nonzero"/><path fill="#ffffff" d="M 235.546875 166.554688 C 234.320312 166.652344 233.03125 167.382812 232.378906 168.453125 C 231.558594 169.804688 232.699219 170.125 233.953125 170.148438 C 234.007812 170.148438 234.050781 170.171875 234.101562 170.183594 C 235.289062 169.964844 236.71875 169.742188 237.546875 168.921875 C 239.015625 167.464844 236.84375 166.453125 235.546875 166.554688 " fill-opacity="1" fill-rule="nonzero"/><path fill="#ffffff" d="M 250.578125 137.453125 C 250.5625 137.625 250.496094 137.800781 250.347656 137.960938 C 249.9375 138.410156 249.238281 139.210938 249.632812 139.878906 C 249.984375 140.476562 250.601562 140.859375 251.210938 141.15625 C 252.5625 141.828125 254.03125 142.203125 255.476562 142.589844 C 255.503906 142.5625 255.53125 142.539062 255.558594 142.515625 C 258.769531 140.226562 261.28125 137.453125 262.46875 133.628906 C 262.539062 133.417969 262.65625 133.265625 262.804688 133.167969 C 262.757812 132.789062 262.933594 132.410156 263.425781 132.324219 C 267.257812 131.667969 271.453125 132.765625 275.167969 131.507812 C 277.566406 130.691406 280.300781 128.570312 279.09375 125.667969 C 275.992188 118.21875 263.582031 121.3125 257.796875 122.507812 C 257.761719 122.515625 257.726562 122.515625 257.691406 122.519531 C 257.648438 122.621094 257.582031 122.714844 257.484375 122.808594 C 254.910156 125.234375 258.574219 129.238281 256.796875 132.214844 C 255.363281 134.613281 253.0625 136.035156 250.695312 137.402344 C 250.65625 137.421875 250.617188 137.4375 250.578125 137.453125 " fill-opacity="1" fill-rule="nonzero"/><path fill="#ffffff" d="M 270.152344 108.394531 C 269.980469 108.269531 269.890625 108.101562 269.859375 107.925781 C 269.089844 107.617188 268.261719 107.363281 267.363281 107.179688 C 256.917969 105.066406 253.363281 114.351562 250.40625 122.496094 C 250.328125 122.699219 250.191406 122.832031 250.027344 122.90625 C 250.410156 124.378906 250.664062 125.882812 251.101562 127.347656 C 251.757812 129.546875 252.390625 131.75 252.882812 133.992188 C 253.308594 133.671875 253.714844 133.339844 254.066406 132.957031 C 255.835938 131.058594 255.671875 129.421875 255.117188 127.054688 C 254.609375 124.910156 254.574219 123.15625 256.253906 121.578125 C 256.410156 121.429688 256.578125 121.355469 256.742188 121.335938 C 256.816406 121.101562 257.007812 120.898438 257.335938 120.828125 C 262.558594 119.75 268.75 118.230469 274.054688 119.839844 C 274.523438 115.492188 273.949219 111.167969 270.152344 108.394531 " fill-opacity="1" fill-rule="nonzero"/><path fill="#201600" d="M 128.675781 203.789062 C 125.964844 204.628906 122.953125 204.433594 120.167969 204.175781 C 120.023438 204.164062 119.886719 204.140625 119.742188 204.128906 C 122.101562 201.019531 123.441406 197.28125 127.386719 195.785156 C 127.4375 195.769531 127.464844 195.734375 127.507812 195.710938 C 130.398438 195.867188 133.246094 196.257812 135.914062 196.785156 C 134.417969 200.246094 132.457031 202.617188 128.675781 203.789062 Z M 118.160156 203.9375 C 114 203.359375 109.910156 202.273438 105.738281 201.742188 C 110.8125 197.234375 117.722656 195.664062 124.640625 195.636719 C 123.71875 196.242188 122.894531 196.984375 122.199219 197.921875 C 120.78125 199.820312 119.769531 201.976562 118.238281 203.796875 C 118.199219 203.84375 118.1875 203.890625 118.160156 203.9375 Z M 137.414062 195.320312 C 126.234375 192.929688 111.921875 192.726562 103.378906 201.582031 C 102.738281 202.246094 103.457031 203.199219 104.164062 203.0625 C 104.304688 203.21875 104.496094 203.332031 104.75 203.359375 C 111.605469 204.070312 118.214844 206.335938 125.175781 206.082031 C 131.566406 205.851562 135.429688 202.535156 137.789062 196.796875 C 137.804688 196.761719 137.808594 196.726562 137.820312 196.691406 C 138.175781 196.238281 138.128906 195.472656 137.414062 195.320312 " fill-opacity="1" fill-rule="nonzero"/><path fill="#201600" d="M 105.261719 222.34375 C 105.339844 222.210938 105.390625 222.054688 105.363281 221.867188 C 104.898438 218.691406 106.027344 215.527344 107.265625 212.652344 C 107.304688 212.5625 107.320312 212.46875 107.324219 212.382812 C 115.699219 213.007812 124.152344 213.121094 132.460938 214.125 C 133.925781 229.566406 115.980469 224.832031 105.261719 222.34375 Z M 101.671875 221.570312 C 102.078125 218.316406 103.015625 215.207031 104.082031 212.117188 C 104.695312 212.171875 105.3125 212.214844 105.929688 212.265625 C 104.601562 215.386719 103.550781 218.640625 104 222.058594 C 103.164062 221.867188 102.378906 221.703125 101.671875 221.570312 Z M 133.4375 212.839844 C 133.304688 212.625 133.082031 212.453125 132.769531 212.414062 C 123.113281 211.222656 113.242188 211.273438 103.53125 210.324219 C 103.027344 210.277344 102.753906 210.605469 102.707031 210.992188 C 102.628906 211.078125 102.566406 211.183594 102.519531 211.3125 C 101.304688 214.808594 100.277344 218.304688 99.875 221.996094 C 99.835938 222.390625 100.023438 222.640625 100.292969 222.757812 C 100.378906 222.964844 100.558594 223.128906 100.863281 223.183594 C 108.371094 224.503906 115.683594 227.5 123.425781 226.875 C 130.867188 226.273438 135.023438 220.890625 134.164062 213.636719 C 134.109375 213.1875 133.792969 212.921875 133.4375 212.839844 " fill-opacity="1" fill-rule="nonzero"/><path fill="#201600" d="M 91.292969 218.769531 C 91.292969 218.777344 91.289062 218.78125 91.285156 218.785156 C 91.28125 218.785156 91.28125 218.789062 91.277344 218.789062 C 79.414062 220.53125 68.046875 218.4375 56.921875 214.046875 C 54.261719 213 51.882812 211.738281 49.757812 210.269531 C 47.914062 207.875 46.703125 205.097656 45.179688 202.503906 C 43.726562 200.027344 42.675781 197.675781 41.917969 194.96875 C 50.257812 197.023438 58.617188 199.011719 66.914062 201.230469 C 71.636719 202.492188 76.324219 203.867188 80.980469 205.355469 C 84.988281 206.636719 89.15625 207.375 93.144531 208.710938 C 93.101562 208.84375 93.085938 208.996094 93.117188 209.164062 C 93.796875 212.617188 92.742188 215.667969 91.292969 218.769531 Z M 38.539062 194.136719 C 39.148438 194.289062 39.761719 194.4375 40.375 194.589844 C 41.167969 197.742188 42.210938 200.457031 43.976562 203.207031 C 44.902344 204.648438 45.671875 206.164062 46.488281 207.648438 C 42.742188 204.136719 40.09375 199.683594 38.539062 194.136719 Z M 94.800781 208.699219 C 94.78125 208.609375 94.746094 208.527344 94.707031 208.457031 C 94.890625 208.019531 94.765625 207.421875 94.191406 207.222656 C 90.027344 205.757812 85.640625 205.046875 81.441406 203.675781 C 76.796875 202.160156 72.089844 200.828125 67.378906 199.550781 C 57.914062 196.988281 48.355469 194.789062 38.84375 192.414062 C 38.496094 192.332031 38.214844 192.441406 38.023438 192.640625 C 37.5 192.089844 36.324219 192.558594 36.550781 193.488281 C 39.023438 203.453125 44.691406 210.441406 54.042969 214.703125 C 66.097656 220.199219 79.203125 222.4375 92.277344 220.394531 C 92.8125 220.3125 92.976562 219.875 92.878906 219.464844 C 94.496094 215.972656 95.558594 212.585938 94.800781 208.699219 " fill-opacity="1" fill-rule="nonzero"/><path fill="#201600" d="M 298.65625 112.472656 C 299.886719 111.644531 300.726562 115.09375 300.84375 115.730469 C 300.964844 116.398438 300.925781 117.074219 300.746094 117.722656 C 300.550781 118.445312 299.730469 118.605469 299.019531 118.667969 C 299.019531 118.65625 299.023438 118.648438 299.023438 118.640625 C 298.855469 117.671875 298.605469 116.722656 298.433594 115.753906 C 298.296875 115 297.859375 113.015625 298.65625 112.472656 Z M 297.820312 119.3125 C 297.753906 119.707031 297.960938 120.136719 298.46875 120.101562 C 300.699219 119.945312 302.082031 119.226562 302.296875 116.851562 C 302.464844 114.964844 301.640625 112.367188 300.011719 111.304688 C 298.363281 110.230469 297.078125 111.867188 296.882812 113.335938 C 296.632812 115.222656 297.367188 117.171875 297.679688 119.007812 C 297.703125 119.140625 297.753906 119.234375 297.820312 119.3125 " fill-opacity="1" fill-rule="nonzero"/><path fill="#201600" d="M 237.546875 168.921875 C 236.71875 169.742188 235.289062 169.964844 234.101562 170.183594 C 234.050781 170.171875 234.007812 170.148438 233.953125 170.148438 C 232.699219 170.125 231.558594 169.804688 232.378906 168.453125 C 233.03125 167.382812 234.320312 166.652344 235.546875 166.554688 C 236.84375 166.453125 239.015625 167.464844 237.546875 168.921875 Z M 235.34375 165.179688 C 233.5 165.324219 231.59375 166.621094 230.875 168.34375 C 230.054688 170.304688 231.65625 171.273438 233.324219 171.492188 C 233.472656 171.617188 233.667969 171.683594 233.90625 171.632812 C 235.699219 171.253906 238.578125 170.886719 239.257812 168.824219 C 240.09375 166.296875 237.441406 165.015625 235.34375 165.179688 " fill-opacity="1" fill-rule="nonzero"/><path fill="#201600" d="M 346.558594 125.738281 C 347.203125 127.609375 347.78125 131.851562 345.644531 132.949219 C 344.839844 131.261719 344.445312 129.394531 344.710938 127.527344 C 344.832031 126.683594 345.21875 125.910156 345.664062 125.1875 C 346.164062 124.367188 346.367188 125.195312 346.558594 125.738281 Z M 344.046875 125.207031 C 342.621094 127.890625 343.222656 131.203125 344.511719 133.808594 C 344.570312 133.925781 344.648438 134.003906 344.734375 134.0625 C 344.855469 134.351562 345.136719 134.578125 345.53125 134.476562 C 349.402344 133.5 349.136719 126.746094 347.289062 124.0625 C 346.136719 122.390625 344.671875 124.039062 344.046875 125.207031 " fill-opacity="1" fill-rule="nonzero"/><path fill="#201600" d="M 240.847656 157.980469 C 230.695312 160.6875 220.671875 163.804688 210.792969 167.386719 C 209.957031 167.691406 210.316406 169.035156 211.160156 168.730469 C 221.042969 165.148438 231.066406 162.027344 241.214844 159.328125 C 242.082031 159.09375 241.714844 157.75 240.847656 157.980469 " fill-opacity="1" fill-rule="nonzero"/><path fill="#201600" d="M 251.542969 157.003906 C 261.128906 153.484375 270.707031 149.9375 280.34375 146.566406 C 289.742188 143.285156 299.3125 140.621094 308.746094 137.496094 C 309.59375 137.214844 309.234375 135.867188 308.375 136.152344 C 298.945312 139.277344 289.375 141.960938 279.976562 145.226562 C 270.332031 148.578125 260.757812 152.140625 251.171875 155.660156 C 250.335938 155.964844 250.699219 157.316406 251.542969 157.003906 " fill-opacity="1" fill-rule="nonzero"/><path fill="#201600" d="M 316.058594 134.359375 C 322.15625 132.046875 328.148438 129.457031 334.242188 127.109375 C 338.957031 125.289062 343.695312 122.625 346.878906 118.621094 C 347.433594 117.925781 346.453125 116.933594 345.898438 117.636719 C 342.328125 122.125 336.925781 124.671875 331.652344 126.597656 C 326.25 128.574219 321.058594 130.980469 315.6875 133.015625 C 314.855469 133.332031 315.21875 134.675781 316.058594 134.359375 " fill-opacity="1" fill-rule="nonzero"/><g clip-path="url(#dbd0c833c8)"><path fill="#201600" d="M 345.953125 148.953125 C 345.804688 148.585938 346.1875 148.011719 346.472656 147.644531 C 346.53125 147.613281 346.59375 147.585938 346.652344 147.535156 C 347.523438 146.722656 348.289062 145.726562 349.238281 145 C 349.078125 146.0625 348.300781 146.976562 347.503906 147.722656 C 347.242188 147.96875 346.960938 148.1875 346.675781 148.402344 C 346.472656 148.554688 345.867188 148.734375 345.953125 148.953125 Z M 341.988281 162.503906 C 342.078125 160.585938 342.046875 158.65625 341.867188 156.730469 C 342.359375 156.84375 342.921875 156.652344 343.105469 156.027344 C 343.75 153.796875 344.300781 151.433594 344.574219 149.109375 C 344.578125 149.132812 344.574219 149.15625 344.582031 149.179688 C 344.761719 150.121094 345.644531 150.371094 346.472656 150.097656 C 347.683594 149.695312 348.902344 148.460938 349.636719 147.445312 C 350.46875 146.289062 350.878906 145.015625 350.539062 143.605469 C 350.429688 143.132812 349.910156 143.007812 349.519531 143.1875 C 348.09375 143.847656 347.113281 145.117188 346.019531 146.203125 C 345.894531 146.230469 345.773438 146.304688 345.667969 146.429688 C 345.289062 146.894531 344.882812 147.460938 344.679688 148.066406 C 344.84375 146.015625 344.761719 144.011719 344.316406 142.160156 C 344.320312 142.152344 344.328125 142.148438 344.335938 142.144531 C 347.113281 139.121094 349.652344 135.910156 351.003906 132.035156 C 354.90625 142.453125 348.960938 154.523438 341.988281 162.503906 Z M 341.523438 167.214844 C 341.609375 166.648438 341.691406 166.082031 341.753906 165.515625 C 341.964844 165.496094 342.179688 165.402344 342.371094 165.199219 C 343.679688 163.796875 344.957031 162.273438 346.160156 160.640625 C 345.523438 163.316406 343.636719 165.378906 341.523438 167.214844 Z M 340.320312 148.871094 C 339.179688 145.199219 337.304688 141.351562 333.78125 139.597656 C 333.746094 139.550781 333.714844 139.5 333.667969 139.453125 C 332.601562 138.3125 330.824219 137.507812 329.058594 137.355469 C 330.332031 136.460938 331.734375 135.847656 333.296875 135.6875 C 336.457031 135.367188 339.664062 137.578125 341.429688 140.007812 C 344.253906 143.898438 342.808594 149.566406 341.519531 154.003906 C 341.238281 152.292969 340.847656 150.582031 340.320312 148.871094 Z M 334.835938 182.582031 C 332.449219 188.214844 327.9375 196.210938 320.65625 193.964844 C 313.582031 191.785156 311.769531 182.105469 312.507812 175.839844 C 312.535156 175.613281 312.492188 175.425781 312.410156 175.277344 C 314.210938 165.460938 317.457031 155.527344 321.886719 146.882812 C 321.972656 146.710938 322.066406 146.535156 322.15625 146.363281 C 322.285156 146.320312 322.410156 146.253906 322.53125 146.15625 C 325.964844 143.269531 330.636719 138.71875 334.917969 142.933594 C 337.96875 145.933594 339.007812 151.226562 339.710938 155.257812 C 341.308594 164.476562 338.398438 174.160156 334.835938 182.582031 Z M 311.167969 194.019531 C 306.960938 192.917969 304.121094 190.609375 301.332031 187.511719 C 304.402344 186.695312 307.480469 185.886719 310.582031 185.09375 C 310.773438 185.039062 310.910156 184.945312 311.023438 184.832031 C 312.195312 189.28125 314.738281 193.269531 318.90625 195.425781 C 316.277344 195.292969 313.625 194.660156 311.167969 194.019531 Z M 328.453125 139.433594 C 327.359375 139.859375 326.289062 140.5 325.28125 141.21875 C 325.523438 140.886719 325.777344 140.558594 326.039062 140.242188 C 326.183594 140.222656 326.339844 140.167969 326.492188 140.046875 C 327.039062 139.632812 327.726562 139.449219 328.453125 139.433594 Z M 233.304688 198.160156 C 233.296875 198.160156 233.292969 198.167969 233.285156 198.167969 C 233.207031 198.039062 233.128906 197.90625 233.046875 197.78125 C 233.039062 197.769531 233.027344 197.757812 233.015625 197.742188 C 233.011719 197.644531 232.988281 197.539062 232.929688 197.433594 C 232.886719 197.355469 232.84375 197.273438 232.800781 197.191406 C 234.679688 197.128906 236.519531 196.863281 238.347656 196.5 C 236.699219 197.136719 235.027344 197.707031 233.304688 198.160156 Z M 232.96875 195.785156 C 232.796875 195.796875 232.625 195.808594 232.445312 195.8125 C 232.332031 195.8125 232.234375 195.839844 232.148438 195.875 C 230.402344 192.050781 229.867188 187.996094 232.597656 185.308594 C 232.832031 188.730469 232.625 192.160156 232.910156 195.578125 C 232.914062 195.660156 232.941406 195.722656 232.96875 195.785156 Z M 230.742188 185 C 227.3125 188.835938 229.660156 194.34375 231.730469 198.136719 C 231.730469 198.140625 231.730469 198.140625 231.730469 198.140625 C 231.734375 198.25 231.765625 198.367188 231.84375 198.488281 C 232.046875 198.789062 232.226562 199.109375 232.425781 199.414062 C 232.714844 199.855469 233.253906 199.792969 233.542969 199.511719 C 233.585938 199.507812 233.628906 199.515625 233.671875 199.5 C 234.226562 199.355469 234.773438 199.195312 235.316406 199.03125 C 235.054688 200.65625 233.746094 201.464844 231.363281 201.425781 C 229.890625 200.714844 229.082031 199.042969 228.5625 197.609375 C 227.96875 195.949219 227.933594 194.109375 227.914062 192.371094 C 227.898438 190.925781 228.03125 189.472656 228.152344 188.03125 C 228.257812 186.730469 228.246094 185.511719 228.472656 184.210938 C 228.757812 182.613281 233.535156 177.921875 233.605469 182.574219 C 233.609375 182.648438 233.628906 182.707031 233.648438 182.773438 C 232.570312 183.351562 231.578125 184.0625 230.742188 185 Z M 243.71875 193.855469 C 243.652344 193.851562 243.589844 193.84375 243.515625 193.863281 C 240.449219 194.617188 237.421875 195.414062 234.285156 195.703125 C 234.292969 195.660156 234.304688 195.625 234.300781 195.578125 C 234.003906 191.984375 234.25 188.375 233.953125 184.78125 C 233.941406 184.601562 233.863281 184.46875 233.765625 184.363281 C 234.332031 184 234.984375 183.671875 235.734375 183.390625 C 238.691406 182.289062 241.671875 181.710938 244.546875 180.457031 C 243.878906 184.902344 243.363281 189.324219 243.71875 193.855469 Z M 297.378906 122.226562 C 295.875 112.066406 294.589844 97.890625 281.640625 96.878906 C 281.511719 96.867188 281.40625 96.894531 281.308594 96.941406 C 271.671875 97.363281 259.980469 97.914062 253.734375 106.480469 C 250.753906 110.570312 249.085938 115.3125 247.433594 120.050781 C 245.289062 126.191406 242.707031 132.171875 239.835938 138.007812 C 239.71875 138.03125 239.601562 138.078125 239.496094 138.1875 C 238.964844 138.726562 238.46875 139.308594 237.96875 139.882812 C 239.820312 135.804688 241.621094 131.6875 243.167969 127.496094 C 245.230469 121.910156 246.925781 116.21875 249.578125 110.871094 C 252.277344 105.429688 256.144531 101.183594 261.617188 98.5 C 266.679688 96.015625 272.578125 95.308594 278.105469 94.671875 C 278.183594 94.664062 278.253906 94.644531 278.324219 94.621094 C 278.414062 94.652344 278.515625 94.675781 278.625 94.671875 C 291.945312 94.613281 302.625 107.652344 303.652344 120.191406 C 301.59375 120.984375 299.492188 121.621094 297.378906 122.226562 Z M 249.519531 126.917969 C 250.152344 129.53125 251.054688 132.054688 251.613281 134.6875 C 251.628906 134.738281 251.652344 134.769531 251.671875 134.8125 C 251.246094 135.074219 250.820312 135.328125 250.394531 135.566406 C 250.214844 135.429688 249.96875 135.367188 249.675781 135.460938 C 247.121094 136.273438 244.429688 136.207031 241.882812 136.941406 C 243.898438 132.734375 245.757812 128.449219 247.449219 124.097656 C 247.734375 123.367188 248.007812 122.632812 248.273438 121.890625 C 248.84375 123.527344 249.113281 125.234375 249.519531 126.917969 Z M 266.820312 105.652344 C 256.546875 103.570312 252.386719 113.09375 249.445312 121.074219 C 249.414062 121 249.390625 120.921875 249.359375 120.847656 C 249.25 120.582031 249.039062 120.441406 248.8125 120.398438 C 250.007812 117.023438 251.164062 113.648438 252.839844 110.457031 C 258.480469 99.710938 270.605469 98.800781 281.410156 98.328125 C 281.5 98.328125 281.574219 98.300781 281.644531 98.273438 C 293.769531 99.226562 294.664062 113.28125 296.039062 122.605469 C 295.066406 122.878906 294.101562 123.152344 293.128906 123.433594 C 289.082031 124.609375 285.289062 126.3125 281.050781 126.703125 C 281.027344 126.386719 280.988281 126.066406 280.925781 125.722656 C 280.789062 124.988281 280.503906 124.335938 280.105469 123.742188 C 279.628906 114.929688 276.246094 107.5625 266.820312 105.652344 Z M 256.796875 132.214844 C 258.574219 129.238281 254.910156 125.234375 257.484375 122.808594 C 257.582031 122.714844 257.648438 122.621094 257.691406 122.519531 C 257.726562 122.515625 257.761719 122.515625 257.796875 122.507812 C 263.582031 121.3125 275.992188 118.21875 279.09375 125.667969 C 280.300781 128.570312 277.566406 130.691406 275.167969 131.507812 C 271.453125 132.765625 267.257812 131.667969 263.425781 132.324219 C 262.933594 132.410156 262.757812 132.789062 262.804688 133.167969 C 262.65625 133.265625 262.539062 133.417969 262.46875 133.628906 C 261.28125 137.453125 258.769531 140.226562 255.558594 142.515625 C 255.53125 142.539062 255.503906 142.5625 255.476562 142.589844 C 254.03125 142.203125 252.5625 141.828125 251.210938 141.15625 C 250.601562 140.859375 249.984375 140.476562 249.632812 139.878906 C 249.238281 139.210938 249.9375 138.410156 250.347656 137.960938 C 250.496094 137.800781 250.5625 137.625 250.578125 137.453125 C 250.617188 137.4375 250.65625 137.421875 250.695312 137.402344 C 253.0625 136.035156 255.363281 134.613281 256.796875 132.214844 Z M 274.054688 119.839844 C 268.75 118.230469 262.558594 119.75 257.335938 120.828125 C 257.007812 120.898438 256.816406 121.101562 256.742188 121.335938 C 256.578125 121.355469 256.410156 121.429688 256.253906 121.578125 C 254.574219 123.15625 254.609375 124.910156 255.117188 127.054688 C 255.671875 129.421875 255.835938 131.058594 254.066406 132.957031 C 253.714844 133.339844 253.308594 133.671875 252.882812 133.992188 C 252.390625 131.75 251.757812 129.546875 251.101562 127.347656 C 250.664062 125.882812 250.410156 124.378906 250.027344 122.90625 C 250.191406 122.832031 250.328125 122.699219 250.40625 122.496094 C 253.363281 114.351562 256.917969 105.066406 267.363281 107.179688 C 268.261719 107.363281 269.089844 107.617188 269.859375 107.925781 C 269.890625 108.101562 269.980469 108.269531 270.152344 108.394531 C 273.949219 111.167969 274.523438 115.492188 274.054688 119.839844 Z M 273.949219 110.601562 C 276.839844 113.488281 278.148438 117.703125 278.589844 122.121094 C 277.625 121.347656 276.488281 120.757812 275.394531 120.3125 C 275.828125 116.808594 275.574219 113.414062 273.949219 110.601562 Z M 241.773438 138.78125 C 243.914062 137.957031 246.257812 137.945312 248.507812 137.53125 C 247.558594 139.019531 247.566406 140.675781 249.191406 141.9375 C 250.863281 143.238281 253.0625 143.75 255.070312 144.28125 C 255.363281 144.359375 255.605469 144.292969 255.789062 144.152344 C 255.984375 144.210938 256.210938 144.183594 256.4375 144.019531 C 260.027344 141.457031 262.820312 138.367188 264.148438 134.09375 C 264.164062 134.046875 264.167969 134.007812 264.175781 133.960938 C 268.910156 133.285156 279.796875 134.691406 280.96875 128.453125 C 284.578125 128.144531 287.964844 127.039062 291.371094 125.84375 C 295.628906 124.355469 300.054688 123.449219 304.269531 121.8125 C 304.34375 121.785156 304.398438 121.742188 304.460938 121.703125 C 307.40625 124.148438 310.015625 126.878906 311.402344 130.527344 C 313.023438 134.792969 311.789062 139.347656 310.453125 143.496094 C 307.488281 152.730469 302.136719 161.277344 295.835938 168.582031 C 283.042969 183.417969 263.839844 190.816406 245.996094 197.625 C 243.90625 187.683594 247.042969 178.097656 247.898438 168.226562 C 248.824219 157.542969 245.722656 148.5 241.773438 138.78125 Z M 265.757812 196.292969 C 250.992188 201.648438 236.21875 206.742188 221.839844 213.09375 C 224.519531 203.679688 225.636719 193.296875 221.929688 184.050781 C 218.515625 175.527344 208.96875 168.046875 199.429688 169.386719 C 189.679688 170.757812 182.964844 179.410156 178.257812 187.339844 C 176.492188 190.320312 174.949219 193.414062 173.574219 196.585938 C 173.53125 196.589844 173.488281 196.589844 173.445312 196.597656 C 171.554688 196.917969 169.65625 196.890625 167.757812 196.738281 C 167.566406 196.722656 167.414062 196.765625 167.285156 196.835938 C 163.511719 194.988281 159.917969 192.824219 156.359375 190.589844 C 153.074219 188.523438 149.511719 187.285156 145.933594 185.910156 C 150.164062 184.332031 154.074219 181.917969 157.894531 179.554688 C 161.699219 177.203125 164.050781 174.378906 163.925781 169.742188 C 163.917969 169.386719 163.734375 169.144531 163.496094 169.015625 C 163.402344 168.898438 163.277344 168.796875 163.113281 168.726562 C 162.675781 168.550781 162.234375 168.398438 161.792969 168.253906 C 165.910156 164.519531 170.933594 162.449219 176.148438 160.691406 C 181.664062 158.828125 187.183594 157.003906 192.683594 155.082031 C 204.101562 151.089844 215.597656 147.203125 227.152344 143.605469 C 227.253906 143.605469 227.351562 143.613281 227.453125 143.613281 C 227.769531 143.621094 227.988281 143.488281 228.128906 143.296875 C 228.527344 143.171875 228.925781 143.042969 229.324219 142.921875 C 229.394531 143.007812 229.496094 143.085938 229.628906 143.148438 C 231.265625 143.910156 232.957031 144.09375 234.722656 144.128906 C 234.917969 144.292969 235.1875 144.339844 235.464844 144.160156 C 235.480469 144.148438 235.488281 144.140625 235.503906 144.132812 C 235.894531 144.117188 236.140625 143.886719 236.242188 143.589844 C 237.730469 142.398438 238.886719 140.863281 240.191406 139.472656 C 242.066406 144.03125 243.96875 148.5625 245.222656 153.335938 C 246.601562 158.574219 246.519531 164.066406 246.054688 169.414062 C 245.777344 172.589844 245.277344 175.703125 244.796875 178.800781 C 241.804688 180.261719 238.125 180.8125 234.972656 182.144531 C 234.757812 179.445312 232.921875 178.414062 230.308594 179.589844 C 226.09375 181.488281 226.699219 187.726562 226.539062 191.457031 C 226.394531 194.878906 226.699219 199.753906 229.773438 201.984375 C 233.128906 204.421875 235.933594 202.925781 236.710938 199.015625 C 236.746094 198.851562 236.714844 198.714844 236.660156 198.59375 C 239.125 197.753906 241.515625 196.71875 243.898438 195.652344 C 244.019531 196.554688 244.167969 197.453125 244.367188 198.363281 C 244.449219 198.726562 244.683594 198.914062 244.953125 198.96875 C 245.074219 199.382812 245.441406 199.691406 245.960938 199.492188 C 265.566406 192.011719 285.695312 183.914062 299.273438 167.175781 C 305.527344 159.46875 310.382812 150.457031 313.058594 140.886719 C 315.445312 132.347656 311.972656 125.609375 305.394531 120.222656 C 304.324219 106.726562 292.949219 92.863281 278.625 92.929688 C 278.550781 92.929688 278.484375 92.941406 278.421875 92.953125 C 278.328125 92.925781 278.222656 92.917969 278.105469 92.929688 C 278.050781 92.9375 278 92.945312 277.945312 92.949219 C 277.886719 92.9375 277.820312 92.929688 277.753906 92.929688 C 277.683594 92.929688 277.613281 92.941406 277.546875 92.953125 C 277.546875 92.953125 277.542969 92.953125 277.539062 92.957031 C 277.472656 92.972656 277.417969 92.992188 277.367188 93.015625 C 267.160156 94.246094 257.378906 96.507812 250.9375 105.226562 C 247.339844 110.097656 245.316406 116.070312 243.347656 121.730469 C 240.898438 128.773438 238.023438 135.613281 234.921875 142.394531 C 233.5 142.382812 232.089844 142.300781 230.765625 141.75 C 230.773438 141.734375 230.785156 141.722656 230.792969 141.707031 C 235.292969 131.996094 240.183594 122.460938 244.003906 112.445312 C 245.289062 109.089844 246.78125 105.546875 247.597656 102.035156 C 248.074219 99.996094 247.867188 97.722656 245.804688 96.765625 C 245.695312 96.53125 245.480469 96.34375 245.136719 96.277344 C 233.464844 93.996094 221.449219 92.5625 209.644531 91.058594 C 203.136719 90.234375 196.628906 89.683594 190.160156 88.539062 C 184.917969 87.605469 179.707031 86.496094 174.476562 85.488281 C 187.636719 80.753906 201.789062 78.285156 215.679688 78.066406 C 232.152344 77.808594 248.472656 80.984375 264.605469 83.890625 C 271.292969 85.097656 277.945312 86.582031 284.175781 89.363281 C 290.4375 92.15625 295.492188 96.671875 300.738281 100.976562 C 304.964844 104.4375 309.371094 107.601562 314.476562 109.609375 C 320.03125 111.796875 325.398438 111.179688 331.121094 110.308594 C 331.214844 110.296875 331.289062 110.261719 331.363281 110.234375 C 331.527344 110.316406 331.722656 110.355469 331.945312 110.316406 C 332.339844 110.246094 332.75 110.175781 333.164062 110.109375 C 333.304688 110.265625 333.515625 110.367188 333.800781 110.347656 C 340.742188 109.910156 347.460938 111.636719 349.597656 119.027344 C 351.941406 127.140625 348.949219 134.265625 343.6875 140.25 C 342.539062 137.53125 340.347656 135.304688 336.609375 134.007812 C 330.851562 132.011719 325.96875 136.769531 322.933594 141.050781 C 318.265625 147.640625 315.582031 155.769531 313.339844 163.449219 C 311.53125 169.636719 309.972656 176.035156 309.261719 182.457031 C 309.257812 182.460938 309.261719 182.464844 309.261719 182.464844 C 309.152344 182.6875 309.121094 182.945312 309.179688 183.199219 C 309.1875 183.230469 309.191406 183.261719 309.199219 183.289062 C 294.460938 187.078125 280.085938 191.089844 265.757812 196.292969 Z M 199.375 178.167969 C 186.308594 181.019531 177.683594 198.085938 174.910156 209.679688 C 172.054688 221.640625 171.566406 240.730469 184.351562 246.464844 C 182.304688 246.039062 180.265625 245.367188 178.203125 244.566406 C 173.660156 242.804688 169.203125 241.257812 165.824219 237.703125 C 166.039062 237.660156 166.253906 237.617188 166.464844 237.574219 C 166.898438 237.488281 167.125 237.214844 167.195312 236.894531 C 167.5 236.675781 167.683594 236.304688 167.542969 235.828125 C 166.664062 232.816406 165.515625 229.789062 166.265625 226.628906 C 166.308594 226.449219 166.308594 226.289062 166.273438 226.140625 C 169.449219 214.601562 172.566406 202.839844 178.011719 192.128906 C 180.144531 187.9375 182.765625 183.515625 186.046875 179.792969 C 186.164062 179.800781 186.289062 179.789062 186.425781 179.75 C 190.417969 178.539062 194.960938 177.871094 199.375 178.167969 Z M 217.90625 193.484375 C 220.003906 200.550781 218.886719 207.957031 216.792969 214.859375 C 216.644531 214.980469 216.53125 215.152344 216.46875 215.390625 C 213.140625 228.570312 207.742188 245.382812 191.335938 245.90625 C 183.558594 246.15625 178.328125 239.765625 176.328125 232.933594 C 174.207031 225.683594 175.324219 217.457031 176.925781 210.234375 C 179.609375 198.140625 188.574219 181.113281 202.488281 179.828125 C 210.71875 179.066406 215.847656 186.550781 217.90625 193.484375 Z M 111.90625 230.648438 C 111.949219 230.578125 111.964844 230.507812 111.976562 230.4375 C 115.25 230.796875 118.523438 231.164062 121.804688 231.429688 C 125.023438 231.691406 128.292969 231.445312 131.496094 231.753906 C 131.523438 232.929688 131.300781 234.09375 130.859375 235.183594 C 124.273438 235.472656 118.140625 234.765625 111.605469 233.691406 C 111.542969 233.679688 111.488281 233.695312 111.429688 233.695312 C 110.765625 232.84375 111.4375 231.457031 111.90625 230.648438 Z M 148.851562 238.328125 C 142.589844 239.183594 136.300781 240.398438 129.988281 240.761719 C 118.015625 241.453125 106.039062 238.75 94.375 236.429688 C 88.722656 235.308594 83 234.503906 77.449219 232.957031 C 71.839844 231.390625 66.429688 229.15625 60.960938 227.179688 C 49.269531 222.957031 37.675781 218.820312 26.199219 214.019531 C 26.164062 213.992188 26.125 213.972656 26.082031 213.953125 C 23.089844 212.632812 20.597656 210.433594 21.425781 206.816406 C 21.519531 206.410156 21.640625 206.027344 21.785156 205.65625 C 21.789062 205.648438 21.796875 205.644531 21.800781 205.636719 C 21.832031 205.703125 21.867188 205.765625 21.929688 205.828125 C 23.9375 207.703125 26.054688 209.457031 28.453125 210.8125 C 28.527344 210.851562 28.597656 210.867188 28.667969 210.882812 C 28.972656 211.085938 29.410156 211.089844 29.640625 210.679688 C 30.160156 209.746094 30.597656 208.757812 30.871094 207.722656 C 30.890625 207.640625 30.886719 207.566406 30.882812 207.496094 C 43.394531 213.683594 55.699219 219.882812 69.304688 223.316406 C 76.417969 225.113281 83.695312 226.171875 90.929688 227.335938 C 97.5 228.394531 103.984375 229.988281 110.671875 230.007812 C 109.851562 231.441406 109.15625 233.566406 110.582031 234.855469 C 110.773438 235.03125 110.992188 235.0625 111.191406 235.015625 C 111.207031 235.019531 111.21875 235.03125 111.234375 235.035156 C 117.988281 236.140625 124.3125 236.898438 131.148438 236.566406 C 131.28125 236.5625 131.390625 236.519531 131.484375 236.460938 C 131.683594 236.453125 131.871094 236.359375 131.980469 236.105469 C 132.621094 234.636719 132.988281 233.070312 132.886719 231.457031 C 132.878906 231.285156 132.804688 231.15625 132.714844 231.050781 C 132.664062 230.75 132.457031 230.460938 132.074219 230.414062 C 129.109375 230.0625 126.0625 230.296875 123.074219 230.125 C 119.308594 229.90625 115.554688 229.4375 111.804688 229.027344 C 111.714844 228.792969 111.515625 228.609375 111.191406 228.613281 C 104.039062 228.683594 97.042969 226.917969 90.015625 225.785156 C 83.203125 224.6875 76.390625 223.589844 69.675781 221.972656 C 56.023438 218.683594 43.640625 212.25 31.128906 206.066406 C 30.914062 205.957031 30.707031 205.972656 30.53125 206.054688 C 28.027344 204.835938 26.222656 202.617188 23.78125 201.296875 C 23.90625 200.921875 24.019531 200.535156 24.085938 200.128906 C 26.199219 202.40625 29.054688 203.660156 31.984375 204.886719 C 32.085938 204.964844 32.179688 205.046875 32.28125 205.121094 C 32.464844 205.257812 32.648438 205.28125 32.804688 205.230469 C 34.269531 205.84375 35.738281 206.472656 37.128906 207.246094 C 37.484375 207.445312 37.828125 207.367188 38.074219 207.167969 C 38.613281 207.234375 39.253906 206.792969 39.101562 206.089844 C 38.152344 201.710938 37.246094 197.15625 34.488281 193.511719 C 31.835938 190.011719 26.921875 188.09375 23.035156 186.40625 C 22.808594 186.308594 22.589844 186.3125 22.398438 186.375 C 22.363281 184.832031 22.402344 183.285156 22.539062 181.722656 C 22.589844 181.167969 22.664062 180.617188 22.746094 180.070312 C 25.65625 182.070312 28.050781 184.632812 31.414062 185.910156 C 31.757812 186.039062 32.035156 185.945312 32.21875 185.753906 C 32.574219 185.773438 32.921875 185.585938 33.011719 185.128906 C 34.261719 178.71875 32.046875 173.402344 27.214844 169.128906 C 27.046875 168.980469 26.863281 168.910156 26.683594 168.902344 C 27.488281 167.390625 28.359375 165.917969 29.277344 164.503906 C 29.875 163.582031 30.507812 162.683594 31.160156 161.800781 C 31.6875 165.410156 35.988281 168.390625 39.652344 168.523438 C 39.699219 168.527344 39.742188 168.519531 39.785156 168.515625 C 39.851562 168.527344 39.921875 168.53125 40.003906 168.523438 C 41.621094 168.386719 43.011719 167.773438 44.265625 166.910156 C 44.316406 166.949219 44.371094 166.980469 44.4375 167.011719 C 55.785156 172.28125 67.40625 176.855469 79.707031 179.328125 C 86.324219 180.660156 93.078125 181.261719 99.742188 182.308594 C 106.128906 183.316406 112.5 183.613281 118.914062 184.289062 C 118.878906 184.519531 118.929688 184.765625 119.101562 184.988281 C 121.300781 187.8125 125.246094 188.105469 128.558594 188.210938 C 132.878906 188.347656 137.480469 188.050781 141.710938 187.148438 C 141.746094 187.152344 141.785156 187.160156 141.820312 187.160156 C 142.019531 187.160156 142.175781 187.105469 142.304688 187.019531 C 142.707031 186.921875 143.105469 186.820312 143.503906 186.707031 C 143.59375 186.808594 143.707031 186.894531 143.855469 186.953125 C 147.8125 188.550781 151.863281 189.765625 155.480469 192.09375 C 159.023438 194.371094 162.664062 196.511719 166.445312 198.363281 C 166.765625 198.519531 167.070312 198.472656 167.308594 198.324219 C 167.429688 198.40625 167.578125 198.46875 167.757812 198.480469 C 169.453125 198.613281 171.125 198.613281 172.804688 198.421875 C 169.199219 207.207031 166.753906 216.53125 164.253906 225.609375 C 164.203125 225.800781 164.203125 225.972656 164.242188 226.128906 C 163.472656 229.433594 164.390625 232.523438 165.324219 235.671875 C 159.863281 236.765625 154.367188 237.574219 148.851562 238.328125 Z M 23.25 202.601562 C 25.539062 203.894531 27.285156 205.945312 29.628906 207.148438 C 29.589844 207.210938 29.550781 207.273438 29.527344 207.351562 C 29.34375 208.050781 29.082031 208.71875 28.761719 209.363281 C 26.625 208.101562 24.726562 206.535156 22.917969 204.839844 C 22.691406 204.628906 22.429688 204.613281 22.207031 204.703125 C 22.542969 203.992188 22.914062 203.304688 23.25 202.601562 Z M 25.699219 189.523438 C 28.128906 190.707031 30.464844 192.070312 32.480469 193.898438 C 35.464844 196.605469 36.359375 201.351562 37.164062 205.300781 C 35.457031 204.445312 33.640625 203.761719 31.878906 203.019531 C 27.910156 199.542969 26.289062 194.777344 25.699219 189.523438 Z M 28.511719 201.394531 C 26.441406 200.191406 24.660156 198.621094 23.542969 196.167969 C 23.015625 193.46875 22.625 190.769531 22.464844 188.046875 C 23.105469 188.324219 23.746094 188.609375 24.382812 188.902344 C 24.308594 189.007812 24.261719 189.136719 24.28125 189.308594 C 24.765625 193.855469 25.949219 197.984375 28.511719 201.394531 Z M 28.132812 172.546875 C 30.863281 175.785156 32.132812 179.558594 31.433594 184.03125 C 29.6875 183.28125 28.191406 182.132812 26.714844 180.949219 C 26.730469 178.03125 26.996094 175.230469 28.132812 172.546875 Z M 25.957031 170.328125 C 25.96875 170.339844 25.972656 170.347656 25.984375 170.359375 C 26.378906 170.707031 26.75 171.066406 27.109375 171.429688 C 25.851562 174.140625 25.433594 176.917969 25.347656 179.847656 C 24.707031 179.339844 24.058594 178.847656 23.386719 178.394531 C 23.28125 178.328125 23.179688 178.285156 23.082031 178.269531 C 23.695312 175.523438 24.710938 172.867188 25.957031 170.328125 Z M 33.621094 158.859375 C 33.683594 158.765625 33.71875 158.667969 33.746094 158.574219 C 37.449219 154.285156 41.820312 150.523438 46.527344 147.347656 C 46.648438 147.414062 46.792969 147.457031 46.964844 147.445312 C 49.964844 147.335938 61.152344 147.355469 61.738281 151.515625 C 57.769531 153.136719 54.164062 155.1875 50.847656 157.933594 C 48.554688 159.835938 46.570312 163.0625 44.027344 165.054688 C 43.746094 165.101562 43.546875 165.265625 43.4375 165.480469 C 42.410156 166.183594 41.28125 166.675781 40.003906 166.78125 C 39.949219 166.785156 39.902344 166.796875 39.851562 166.808594 C 39.792969 166.792969 39.726562 166.785156 39.652344 166.78125 C 35.992188 166.648438 30.976562 162.753906 33.621094 158.859375 Z M 162.179688 170.238281 C 162.078125 174.890625 158.859375 176.859375 155.1875 179.203125 C 150.941406 181.914062 146.433594 184.132812 141.546875 185.410156 C 137.960938 186.347656 133.988281 186.371094 130.285156 186.46875 C 127.148438 186.550781 122.992188 186.601562 120.679688 184.152344 C 120.96875 184.066406 121.148438 183.847656 121.21875 183.585938 C 126.1875 178.660156 130.835938 173.335938 137 169.867188 C 141.132812 167.546875 145.558594 167.710938 150.09375 168.21875 C 154.210938 168.679688 158.277344 168.78125 162.179688 170.238281 Z M 53.921875 142.96875 C 64.382812 137.609375 76.230469 135.238281 87.539062 132.363281 C 99.21875 129.394531 110.90625 125.96875 122.800781 123.957031 C 122.941406 124.195312 123.121094 124.386719 123.332031 124.539062 C 123.46875 124.691406 123.648438 124.800781 123.839844 124.828125 C 124.3125 125.015625 124.855469 125.078125 125.378906 125.066406 C 142.246094 128.867188 158.390625 135.039062 175.46875 138.03125 C 183.863281 139.503906 192.316406 140.65625 200.800781 141.496094 C 205.1875 141.929688 209.589844 142.234375 213.996094 142.453125 C 216.816406 142.597656 219.613281 142.984375 222.417969 143.273438 C 211.4375 146.761719 200.515625 150.488281 189.652344 154.300781 C 179.808594 157.757812 168.210938 159.910156 160.351562 167.210938 C 160.164062 167.382812 160.089844 167.582031 160.085938 167.773438 C 157.207031 167.09375 154.300781 166.953125 151.265625 166.613281 C 146.78125 166.109375 142.605469 165.773438 138.285156 167.335938 C 130.796875 170.039062 125.203125 177.191406 119.707031 182.628906 C 113.179688 181.910156 106.695312 181.714844 100.207031 180.632812 C 93.992188 179.59375 87.714844 178.992188 81.507812 177.902344 C 69.042969 175.71875 57.195312 171.003906 45.761719 165.710938 C 46.917969 164.667969 47.96875 163.46875 48.988281 162.316406 C 52.777344 158.035156 57.394531 155.089844 62.6875 152.992188 C 63.03125 152.855469 63.207031 152.574219 63.253906 152.277344 C 63.421875 152.140625 63.527344 151.925781 63.5 151.625 C 63.03125 146.476562 54.277344 145.6875 49.132812 145.671875 C 50.703125 144.707031 52.300781 143.796875 53.921875 142.96875 Z M 144.027344 104.824219 C 151.183594 98.351562 158.835938 92.445312 167.421875 87.996094 C 167.523438 88.03125 167.628906 88.050781 167.757812 88.050781 C 167.972656 88.050781 168.148438 87.996094 168.296875 87.90625 C 169.136719 87.550781 169.980469 87.203125 170.832031 86.863281 C 170.921875 86.910156 171.015625 86.949219 171.132812 86.972656 C 183.117188 89.164062 194.902344 91.457031 207.015625 92.835938 C 213.566406 93.578125 220.089844 94.59375 226.601562 95.609375 C 232.488281 96.53125 238.445312 97.113281 244.296875 98.238281 C 244.386719 98.355469 244.507812 98.457031 244.679688 98.535156 C 247.175781 99.632812 244.699219 104.472656 244.015625 106.199219 C 242.664062 109.648438 241.535156 113.167969 240.125 116.597656 C 236.761719 124.769531 232.703125 132.636719 228.988281 140.648438 C 228.898438 140.851562 228.871094 141.046875 228.894531 141.230469 C 228.230469 141.4375 227.570312 141.652344 226.910156 141.855469 C 219.132812 141.675781 211.199219 140.660156 203.449219 139.996094 C 195.324219 139.308594 187.238281 138.21875 179.191406 136.898438 C 186.390625 137 193.648438 136.5625 200.445312 134.359375 C 200.605469 134.304688 200.710938 134.207031 200.792969 134.097656 C 201.421875 134.222656 202.054688 134.34375 202.6875 134.488281 C 209.605469 136.082031 216.492188 138.117188 222.839844 141.386719 C 223.636719 141.796875 224.34375 140.59375 223.542969 140.183594 C 217.492188 137.070312 210.851562 134.839844 204.214844 133.402344 C 196.238281 131.671875 188.496094 131.144531 180.375 130.554688 C 179.476562 130.488281 179.484375 131.882812 180.375 131.945312 C 186.347656 132.378906 192.210938 132.664062 198.066406 133.609375 C 189.292969 135.976562 179.773438 135.648438 170.757812 135.210938 C 170.625 135.203125 170.523438 135.238281 170.429688 135.285156 C 160.984375 133.28125 151.78125 130.460938 142.523438 127.785156 C 145.074219 127.710938 147.617188 127.476562 150.132812 127.15625 C 150.652344 127.09375 150.859375 126.578125 150.765625 126.195312 C 158.007812 126.957031 165.21875 128.332031 171.964844 130.527344 C 172.820312 130.808594 173.1875 129.460938 172.335938 129.183594 C 161.003906 125.496094 148.464844 124.101562 136.558594 124.019531 C 135.660156 124.015625 135.660156 125.40625 136.558594 125.414062 C 140.457031 125.441406 144.441406 125.613281 148.425781 125.964844 C 144.699219 126.375 140.921875 126.566406 137.1875 126.273438 C 133.34375 125.207031 129.480469 124.199219 125.578125 123.328125 C 125.574219 123.324219 125.574219 123.324219 125.570312 123.324219 C 131.296875 116.707031 137.523438 110.707031 144.027344 104.824219 Z M 127.820312 109.738281 C 125.863281 107.433594 120.457031 103.539062 123.289062 100.171875 C 124.949219 98.195312 128.933594 100.613281 130.652344 101.886719 C 130.496094 101.886719 130.335938 101.9375 130.191406 102.078125 C 127.273438 104.902344 128.359375 108.714844 129.378906 112.308594 C 129 111.398438 128.496094 110.535156 127.820312 109.738281 Z M 131.359375 102.472656 C 134.160156 105.039062 133.636719 108.859375 133.027344 112.367188 C 133.003906 112.511719 133.027344 112.632812 133.066406 112.746094 C 132.5 113.316406 131.9375 113.898438 131.378906 114.472656 C 130.496094 110.765625 128.109375 106.035156 131.175781 103.058594 C 131.363281 102.878906 131.402344 102.667969 131.359375 102.472656 Z M 312.859375 92.699219 C 317.734375 93.484375 322.605469 94.316406 327.476562 95.164062 C 331.277344 95.828125 334.964844 96.960938 338.769531 97.5625 C 338.648438 97.742188 338.527344 97.917969 338.40625 98.105469 C 338.347656 98.140625 338.289062 98.183594 338.230469 98.238281 C 337.949219 98.503906 337.667969 98.761719 337.386719 99.023438 C 330.074219 96.207031 321.910156 94.6875 314.15625 93.6875 C 306.765625 92.730469 298.921875 93.148438 291.675781 91.246094 C 290.464844 90.472656 289.234375 89.757812 287.988281 89.105469 C 296.296875 90.15625 304.585938 91.371094 312.859375 92.699219 Z M 325.390625 106.394531 C 327.199219 106.25 328.984375 105.976562 330.710938 105.476562 C 332.613281 104.925781 334.292969 103.886719 335.84375 102.671875 C 334.917969 104.300781 333.886719 105.839844 332.441406 107.015625 C 330.074219 106.953125 327.722656 106.71875 325.390625 106.394531 Z M 328.738281 108.542969 C 324.675781 109.042969 320.992188 109.046875 317.3125 108.152344 C 317.179688 107.582031 316.953125 107.058594 316.664062 106.566406 C 320.667969 107.421875 324.675781 108.175781 328.738281 108.542969 Z M 315.296875 107.570312 C 313.855469 107.089844 312.402344 106.464844 310.914062 105.65625 C 307.417969 103.753906 304.265625 101.273438 301.191406 98.710938 C 303.390625 99.820312 305.542969 101.011719 307.757812 102.121094 C 309.976562 103.238281 314.015625 105.003906 315.296875 107.570312 Z M 315.199219 104.796875 C 314.03125 103.703125 312.585938 102.824219 311.304688 102.058594 C 306.757812 99.324219 301.882812 96.835938 296.957031 94.875 C 296.808594 94.820312 296.675781 94.804688 296.550781 94.820312 C 296.316406 94.628906 296.078125 94.429688 295.84375 94.238281 C 295.4375 93.90625 295.023438 93.605469 294.613281 93.292969 C 299.824219 94.171875 305.21875 94.148438 310.445312 94.664062 C 319.007812 95.507812 328.082031 97.066406 336.207031 100.078125 C 334.175781 101.824219 332.035156 103.277344 329.328125 104.0625 C 325.390625 105.207031 320.695312 104.789062 316.609375 104.777344 C 316.386719 104.726562 316.160156 104.679688 315.929688 104.632812 C 315.632812 104.566406 315.382812 104.644531 315.199219 104.796875 Z M 340.640625 97.808594 C 341.191406 97.839844 341.449219 97.394531 341.414062 96.949219 C 342.304688 96.070312 343.394531 95.375 344.824219 94.988281 C 344.890625 94.972656 344.953125 94.945312 345.007812 94.917969 C 347.367188 95.851562 345.328125 102.09375 344.535156 103.636719 C 344.464844 103.78125 344.433594 103.917969 344.433594 104.050781 C 341.96875 106.820312 337.675781 107.625 333.894531 108.238281 C 333.914062 108.179688 333.925781 108.121094 333.933594 108.0625 C 335.449219 106.753906 336.574219 105.089844 337.558594 103.214844 C 338.546875 101.324219 339.394531 99.371094 340.640625 97.808594 Z M 352.164062 129.445312 C 352.070312 129.242188 351.933594 129.105469 351.789062 129.023438 C 352.433594 125.257812 352.042969 121.210938 351 117.605469 C 349.390625 112.039062 344.628906 109.566406 339.464844 108.816406 C 341.882812 108.105469 344.140625 107.046875 345.730469 105.214844 C 345.882812 105.039062 345.949219 104.84375 345.949219 104.652344 C 345.980469 104.613281 346.011719 104.570312 346.039062 104.515625 C 347.351562 101.953125 349.71875 93.933594 345.171875 93.132812 C 344.894531 93.089844 344.664062 93.15625 344.480469 93.289062 C 344.4375 93.296875 344.402344 93.296875 344.359375 93.308594 C 342.492188 93.8125 341.121094 94.78125 340.007812 95.988281 C 335.054688 95.382812 330.214844 93.875 325.296875 93.027344 C 320.417969 92.179688 315.535156 91.371094 310.644531 90.59375 C 301.386719 89.117188 292.097656 87.816406 282.785156 86.722656 C 275.21875 83.722656 267.085938 82.25 258.8125 80.683594 C 243.378906 77.75 227.515625 75.503906 211.777344 76.078125 C 196.746094 76.628906 181.363281 80.132812 167.511719 85.988281 C 167.386719 86.015625 167.273438 86.066406 167.179688 86.132812 C 167.101562 86.171875 167.035156 86.214844 166.980469 86.265625 C 158.789062 90.441406 151.492188 95.960938 144.589844 102 C 141.175781 104.984375 137.847656 108.039062 134.625 111.195312 C 135.121094 107.878906 135.226562 104.476562 132.757812 101.871094 C 130.734375 99.730469 127.339844 97.914062 124.335938 98.230469 C 121.613281 98.515625 120.878906 101.421875 121.351562 103.710938 C 121.734375 105.554688 123.472656 107.171875 124.714844 108.441406 C 127.238281 111.023438 128.78125 113.347656 128.925781 117.023438 C 127.652344 118.382812 126.394531 119.761719 125.160156 121.164062 C 125.058594 121.164062 124.957031 121.191406 124.851562 121.242188 C 124.730469 121.300781 124.605469 121.347656 124.480469 121.390625 C 124.085938 121.460938 123.703125 121.574219 123.316406 121.699219 C 123.28125 121.710938 123.253906 121.738281 123.222656 121.753906 C 123.066406 121.789062 122.914062 121.828125 122.761719 121.867188 C 122.699219 121.867188 122.636719 121.871094 122.570312 121.882812 C 109.683594 124.03125 97.03125 127.796875 84.375 131.007812 C 72.503906 134.027344 60.523438 136.828125 49.730469 142.835938 C 40.238281 148.117188 31.949219 156.140625 26.253906 165.378906 C 19.675781 176.046875 19.382812 187.464844 22.101562 199.394531 C 22.09375 199.4375 22.078125 199.480469 22.078125 199.527344 C 21.800781 203.023438 18.4375 205.644531 19.238281 209.351562 C 19.933594 212.5625 22.113281 214.46875 25.03125 215.757812 C 25.109375 215.792969 25.1875 215.8125 25.261719 215.832031 C 25.335938 215.886719 25.417969 215.941406 25.511719 215.976562 C 37.03125 220.804688 48.644531 225.027344 60.40625 229.199219 C 65.894531 231.144531 71.296875 233.320312 76.890625 234.972656 C 82.800781 236.714844 89.003906 237.492188 95.039062 238.6875 C 106.5625 240.976562 118.179688 243.3125 129.988281 242.855469 C 135.613281 242.632812 141.210938 241.457031 146.773438 240.699219 C 152.375 239.9375 157.96875 239.175781 163.523438 238.144531 C 163.5625 238.257812 163.625 238.363281 163.710938 238.46875 C 167.195312 242.59375 171.746094 244.171875 176.605469 246.15625 C 182.605469 248.613281 188.546875 250.105469 194.894531 248.140625 C 195.238281 248.035156 195.449219 247.8125 195.546875 247.550781 C 200.664062 246.359375 205.371094 243.050781 208.757812 239.203125 C 214.40625 232.777344 216.394531 224.242188 218.421875 216.179688 C 218.546875 216.066406 218.65625 215.914062 218.714844 215.714844 C 221.144531 207.828125 221.976562 199.855469 219.601562 191.847656 C 218.429688 187.910156 216.167969 184 212.988281 181.304688 C 212.964844 181.015625 212.835938 180.722656 212.550781 180.507812 C 206.003906 175.605469 196.738281 175.203125 188.839844 176.960938 C 191.050781 174.976562 193.519531 173.339844 196.289062 172.277344 C 206.214844 168.46875 216.648438 176.453125 220.230469 185.398438 C 223.902344 194.558594 222.085938 205.347656 219.253906 214.460938 C 218.914062 215.558594 220.316406 216.113281 220.988281 215.46875 C 221.214844 215.527344 221.460938 215.523438 221.714844 215.40625 C 236.304688 208.886719 251.3125 203.75 266.3125 198.304688 C 277.171875 194.367188 288.054688 191.105469 299.097656 188.109375 C 299.136719 188.179688 299.183594 188.242188 299.238281 188.304688 C 302.144531 191.652344 305.050781 194.273438 309.332031 195.660156 C 314.070312 197.195312 319.988281 198.410156 324.855469 196.820312 C 325.125 196.730469 325.308594 196.566406 325.425781 196.371094 C 330.964844 194.898438 334.90625 187.722656 336.925781 182.949219 C 338.824219 178.464844 340.324219 173.847656 341.195312 169.164062 C 341.3125 169.144531 341.433594 169.105469 341.546875 169.015625 C 344.871094 166.277344 347.859375 163.113281 347.78125 158.539062 C 347.78125 158.476562 347.757812 158.425781 347.746094 158.371094 C 353.414062 149.753906 356.699219 138.925781 352.164062 129.445312 " fill-opacity="1" fill-rule="nonzero"/></g><path fill="#201600" d="M 336.671875 165.835938 C 335.429688 172.730469 334.929688 180.964844 328.617188 185.152344 C 323.597656 188.480469 319.234375 183.722656 317.757812 179.234375 C 316.140625 174.308594 317.222656 167.992188 318.148438 163.0625 C 319.246094 157.222656 321.871094 147.691406 329.1875 147.613281 C 337.089844 147.53125 337.296875 160.085938 336.550781 165.316406 C 336.523438 165.523438 336.578125 165.691406 336.671875 165.835938 Z M 330.820312 146.457031 C 321.980469 143.648438 318.074219 156.617188 316.804688 162.691406 C 315.625 168.355469 314.875 174.898438 316.707031 180.492188 C 317.777344 183.753906 320.796875 187.554688 324.558594 187.601562 C 335.679688 187.742188 336.671875 172.808594 338.242188 164.992188 C 338.292969 164.730469 338.203125 164.519531 338.054688 164.367188 C 338.742188 157.875 337.929688 148.714844 330.820312 146.457031 " fill-opacity="1" fill-rule="nonzero"/><path fill="#201600" d="M 184.003906 213.527344 C 185.703125 204.304688 190.257812 191.515625 200.601562 189.160156 C 206.347656 187.851562 211 191.699219 212.703125 196.875 C 214.207031 201.449219 213.308594 205.894531 212.628906 210.488281 C 212.605469 210.644531 212.640625 210.773438 212.691406 210.894531 C 211.261719 220.929688 207.109375 230.535156 197.734375 235.539062 C 192.863281 238.140625 187.636719 236.878906 184.863281 232.113281 C 181.796875 226.84375 182.960938 219.167969 184.003906 213.527344 Z M 194.699219 238.078125 C 200.628906 237.101562 205.699219 231.871094 208.785156 227.050781 C 212.253906 221.648438 213.675781 215.113281 214.34375 208.816406 C 214.355469 208.703125 214.34375 208.601562 214.308594 208.519531 C 214.914062 204.203125 215.238281 200.125 213.800781 195.757812 C 212.363281 191.390625 208.675781 188.074219 204.019531 187.683594 C 190.746094 186.558594 184.808594 202.753906 182.65625 213.160156 C 180.777344 222.28125 180.691406 240.375 194.699219 238.078125 " fill-opacity="1" fill-rule="nonzero"/></svg>